<?xml version="1.0" encoding="UTF-8" ?>
<!DOCTYPE svg PUBLIC "-//W3C//DTD SVG 1.1//EN" "http://www.w3.org/Graphics/SVG/1.1/DTD/svg11.dtd">
<svg width="1024pt" height="1024pt" viewBox="0 0 1024 1024" version="1.1" xmlns="http://www.w3.org/2000/svg">
<g id="#ffffffff">
<path fill="#ffffff" opacity="1.00" d=" M 606.54 319.54 C 617.93 298.91 646.02 291.48 666.99 300.96 C 669.34 302.03 671.51 303.47 673.24 305.42 C 668.51 305.85 663.69 304.67 659.04 305.91 C 653.75 307.05 648.57 310.19 646.31 315.29 C 644.38 318.74 643.89 323.25 640.31 325.55 C 629.21 325.22 618.09 325.70 607.00 325.33 C 603.71 325.39 605.46 321.15 606.54 319.54 Z" />
<path fill="#ffffff" opacity="1.00" d=" M 359.47 479.91 C 360.35 468.68 358.74 457.29 360.51 446.16 C 360.37 455.76 360.60 465.36 360.60 474.96 C 360.99 500.32 360.48 525.68 360.77 551.04 C 361.48 561.89 360.81 572.76 361.34 583.62 C 369.92 583.64 378.52 584.01 387.09 583.38 C 405.37 583.55 423.68 583.86 441.99 583.68 C 445.92 583.51 449.87 583.00 453.79 583.63 L 453.33 583.66 C 418.88 584.27 384.40 583.15 349.97 584.35 C 348.09 584.27 344.52 585.21 345.23 582.07 C 345.16 539.22 345.14 496.36 345.55 453.51 C 346.63 451.76 347.67 449.99 348.67 448.20 C 349.14 450.77 350.16 453.18 351.59 455.37 C 352.51 453.39 352.80 450.93 354.34 449.33 C 356.74 447.98 358.57 451.08 358.70 453.15 C 359.65 462.04 358.69 471.01 359.47 479.91 Z" />
<path fill="#ffffff" opacity="1.00" d=" M 322.78 631.87 C 348.63 620.06 379.15 616.53 406.18 626.47 C 422.35 632.73 436.58 642.85 451.74 651.11 C 466.12 658.58 481.76 664.19 497.99 665.54 C 509.95 665.92 522.23 665.87 533.71 662.06 C 539.69 660.35 545.67 657.59 552.03 658.35 C 557.71 659.14 561.61 665.46 560.30 670.96 C 559.25 677.04 553.47 680.46 548.46 683.10 C 533.44 690.06 516.47 692.30 500.05 691.06 C 479.20 688.96 458.74 682.80 440.26 672.91 C 425.97 665.66 413.23 655.65 398.50 649.23 C 383.21 641.67 365.74 639.33 348.87 640.82 C 339.40 641.64 330.56 645.18 321.39 647.38 C 319.11 645.04 315.60 642.74 316.23 638.98 C 316.15 635.21 319.86 633.28 322.78 631.87 Z" />
<path fill="#ffffff" opacity="1.00" d=" M 327.29 743.06 C 329.94 742.89 332.70 742.78 335.02 744.29 C 334.58 744.83 334.14 745.39 333.71 745.95 C 335.97 745.73 337.03 748.16 335.60 749.67 C 333.83 753.30 329.66 754.61 326.00 755.39 C 325.01 754.82 324.05 754.32 323.11 753.73 C 324.98 753.90 326.18 753.13 326.72 751.43 C 326.09 751.43 324.84 751.45 324.22 751.45 C 324.25 751.31 324.30 751.01 324.33 750.86 C 326.04 750.81 327.17 750.01 327.73 748.45 C 327.10 748.45 325.82 748.43 325.19 748.43 C 325.22 748.29 325.28 748.01 325.31 747.87 C 327.11 747.85 328.26 747.00 328.75 745.31 C 328.18 745.29 327.04 745.26 326.47 745.25 C 326.74 744.51 327.02 743.78 327.29 743.06 M 327.75 744.38 C 328.35 745.69 331.08 744.88 332.43 745.00 C 332.45 744.75 332.47 744.26 332.49 744.01 C 330.86 743.77 329.28 743.89 327.75 744.38 Z" />
<path fill="#ffffff" opacity="1.00" d=" M 412.60 744.82 C 414.78 743.10 417.69 742.45 420.31 743.54 C 417.75 744.01 415.18 744.42 412.60 744.82 Z" />
<path fill="#ffffff" opacity="1.00" d=" M 494.48 745.51 C 496.58 744.25 498.90 745.76 501.00 746.26 C 500.70 753.46 498.27 760.94 493.34 766.31 C 491.49 768.05 487.89 770.48 485.76 767.94 C 484.64 764.31 485.57 760.53 486.69 757.05 C 486.04 757.22 484.73 757.56 484.08 757.73 C 484.12 757.43 484.19 756.84 484.23 756.54 C 484.88 756.60 486.17 756.70 486.82 756.76 C 487.20 755.91 487.98 754.21 488.36 753.36 C 488.82 752.39 489.30 751.45 489.80 750.52 C 490.84 748.45 492.37 746.55 494.48 745.51 Z" />
<path fill="#ffffff" opacity="1.00" d=" M 608.60 765.98 C 609.75 762.80 610.45 759.40 612.35 756.56 C 613.47 759.70 614.62 762.84 615.73 766.00 C 613.34 765.99 610.97 765.99 608.60 765.98 Z" />
<path fill="#ffffff" opacity="1.00" d=" M 637.99 770.68 C 631.85 772.33 631.18 760.30 637.02 760.02 C 638.45 760.43 639.59 761.43 640.82 762.26 C 640.77 765.27 641.68 769.45 637.99 770.68 Z" />
<path fill="#ffffff" opacity="1.00" d=" M 682.04 760.79 C 683.55 760.51 685.46 759.21 686.86 760.44 C 687.40 761.62 687.91 762.83 688.59 763.98 C 686.28 764.00 683.97 764.00 681.67 763.97 C 681.77 763.57 681.96 762.78 682.06 762.38 L 682.04 760.79 Z" />
<path fill="#ffffff" opacity="1.00" d=" M 709.01 760.80 C 710.53 760.54 712.53 759.13 713.88 760.48 C 714.41 761.65 714.91 762.85 715.59 763.98 C 713.29 764.00 710.99 764.00 708.70 763.97 C 708.79 763.58 708.96 762.78 709.05 762.38 L 709.01 760.80 Z" />
<path fill="#ffffff" opacity="1.00" d=" M 491.76 770.97 C 492.02 769.54 495.83 767.78 496.89 768.67 C 495.79 770.13 493.61 771.51 491.76 770.97 Z" />
</g>
<g id="#ff4942ff">
<path fill="#ff4942" opacity="1.00" d=" M 446.91 227.78 C 465.66 223.65 484.72 219.92 504.01 220.44 C 512.68 220.71 521.43 219.77 530.02 221.22 C 570.45 224.73 610.24 236.97 645.10 257.87 C 660.70 267.60 675.97 278.00 689.61 290.38 C 701.81 300.53 712.03 312.77 721.81 325.19 C 724.80 329.42 728.97 333.35 730.34 338.35 C 718.73 338.89 707.10 338.08 695.48 338.56 C 692.67 334.89 692.82 329.97 690.41 326.09 C 691.38 329.72 692.73 333.35 692.48 337.17 C 692.16 337.46 691.53 338.03 691.21 338.31 C 676.14 338.73 661.05 338.33 645.97 338.40 C 526.99 338.51 408.01 338.44 289.03 338.49 C 297.96 324.65 308.75 312.01 320.48 300.45 C 349.32 299.99 378.18 300.40 407.03 300.29 C 463.35 300.28 519.68 300.19 576.01 300.28 C 581.39 300.44 586.20 295.35 585.72 290.00 C 586.23 284.13 580.58 279.25 574.95 279.41 C 505.64 279.35 436.32 279.36 367.00 279.47 C 359.05 279.36 351.10 279.59 343.15 279.24 C 353.73 269.74 366.08 262.52 378.27 255.29 C 399.85 243.27 422.85 233.58 446.91 227.78 M 606.54 319.54 C 605.46 321.15 603.71 325.39 607.00 325.33 C 618.09 325.70 629.21 325.22 640.31 325.55 C 643.89 323.25 644.38 318.74 646.31 315.29 C 648.57 310.19 653.75 307.05 659.04 305.91 C 663.69 304.67 668.51 305.85 673.24 305.42 C 671.51 303.47 669.34 302.03 666.99 300.96 C 646.02 291.48 617.93 298.91 606.54 319.54 Z" />
</g>
<g id="#06182cff">
<path fill="#06182c" opacity="1.00" d=" M 396.91 358.15 C 397.81 357.39 398.79 356.36 400.09 356.53 C 403.76 356.69 407.37 357.43 411.00 357.96 C 413.19 358.32 415.38 358.71 417.58 359.13 C 418.93 360.18 420.24 361.57 422.06 361.79 C 447.25 365.18 471.70 372.62 496.84 376.40 C 507.56 379.32 518.48 381.39 529.39 383.50 C 535.02 384.33 540.32 386.62 546.00 387.24 C 551.13 388.24 556.29 389.14 561.38 390.37 C 568.18 392.73 575.41 393.19 582.50 394.19 C 595.81 405.54 608.52 417.61 621.58 429.26 C 620.99 429.19 619.80 429.04 619.21 428.97 C 622.94 432.68 626.10 438.18 631.84 438.75 C 638.57 444.52 644.84 450.80 651.47 456.70 C 652.38 460.61 655.99 462.71 658.67 465.34 C 660.37 467.03 662.38 468.43 664.80 468.88 C 671.17 475.28 678.35 480.88 684.38 487.60 C 687.18 490.50 684.77 494.38 682.51 496.72 C 680.03 498.94 676.78 499.82 673.60 500.46 C 673.84 511.67 673.68 522.89 673.42 534.09 C 674.75 531.58 676.04 529.04 677.49 526.59 C 679.05 523.96 680.72 521.40 682.47 518.89 C 686.67 517.09 688.36 512.48 691.92 509.88 C 695.09 507.50 698.73 504.98 702.88 505.11 C 705.81 505.96 708.21 508.42 709.59 511.09 C 710.39 517.05 706.71 522.32 704.72 527.69 C 702.53 533.84 699.01 539.70 699.00 546.42 C 697.70 550.15 696.25 553.83 694.99 557.58 C 692.43 564.00 690.37 570.61 688.52 577.27 C 687.91 579.54 687.47 581.86 687.09 584.19 C 699.22 584.08 711.37 584.47 723.49 584.01 C 729.13 566.39 733.47 548.35 735.90 530.00 C 737.01 521.37 738.39 512.74 738.54 504.02 C 738.78 493.85 740.24 483.58 738.59 473.47 C 725.93 475.77 713.68 481.15 704.12 489.86 C 702.59 491.13 700.98 492.60 698.90 492.79 C 696.52 493.15 694.59 491.43 692.68 490.31 C 691.59 484.74 692.53 479.11 694.81 473.97 C 697.33 469.95 699.73 465.75 703.46 462.71 C 703.51 462.35 703.61 461.63 703.66 461.26 C 710.21 456.29 717.36 452.13 725.16 449.45 C 716.59 439.64 704.35 433.32 691.51 431.37 C 687.82 428.87 683.24 429.58 679.05 429.61 C 675.29 429.69 671.65 430.64 667.95 431.18 C 664.06 432.16 662.47 426.06 664.15 423.36 C 668.42 417.10 673.44 411.15 679.73 406.84 C 683.11 404.50 687.84 404.16 690.28 400.54 C 691.43 400.17 692.59 399.81 693.78 399.49 C 702.46 397.41 711.59 397.67 720.31 399.42 C 723.34 400.52 726.28 401.85 729.24 403.14 C 731.47 404.73 733.74 406.28 736.07 407.75 C 736.14 407.81 736.28 407.93 736.35 407.99 C 740.31 412.16 744.11 416.47 747.60 421.04 C 748.16 420.06 748.74 419.09 749.32 418.13 C 753.20 411.47 758.36 405.57 764.73 401.20 C 772.44 395.66 781.82 392.79 791.17 391.57 C 801.08 391.46 811.51 392.74 819.96 398.33 C 822.81 400.17 825.30 403.49 824.35 407.07 C 822.74 411.20 817.50 410.74 813.94 411.80 C 807.54 413.68 801.45 416.44 795.65 419.72 C 785.76 426.19 777.04 435.19 773.01 446.46 C 784.10 448.77 795.83 451.58 804.32 459.59 C 810.61 464.58 815.05 471.54 818.25 478.82 C 819.64 481.80 819.76 485.12 819.73 488.36 C 818.33 489.62 816.76 490.66 815.14 491.61 C 811.20 491.64 808.35 488.75 805.47 486.51 C 801.17 482.99 796.15 480.56 791.33 477.88 C 786.62 474.72 780.88 473.99 775.35 473.74 C 769.32 473.20 763.29 472.26 757.21 472.65 C 756.85 473.00 756.12 473.69 755.76 474.04 C 755.45 484.00 755.77 493.98 755.67 503.95 C 755.61 508.01 754.46 511.95 754.32 516.01 C 754.15 520.02 754.48 524.03 754.36 528.04 C 752.49 547.06 747.44 565.56 743.48 584.21 C 763.98 584.67 784.48 584.41 804.98 584.37 C 809.26 584.47 813.70 583.84 817.81 585.40 C 820.09 587.69 822.09 590.70 821.54 594.10 C 820.88 597.72 818.03 601.52 814.05 601.56 C 807.70 602.01 801.33 601.46 794.99 601.95 C 775.64 602.46 756.27 602.15 736.92 602.13 C 651.93 601.96 566.95 602.21 481.96 602.00 C 430.63 602.45 379.31 601.96 327.99 602.16 C 292.14 602.22 256.28 602.37 220.43 602.18 C 214.54 600.84 207.53 603.55 202.46 599.47 C 198.14 596.18 197.95 588.75 202.46 585.58 C 207.14 584.10 212.13 584.72 216.96 584.53 C 226.86 584.29 236.77 584.79 246.67 584.40 C 246.95 571.95 246.17 559.51 246.29 547.06 C 246.33 535.55 246.22 524.04 246.26 512.53 C 244.18 512.83 242.12 513.22 240.07 513.66 C 234.17 516.08 228.77 519.77 224.85 524.86 C 221.26 528.54 219.37 533.42 216.12 537.36 C 214.03 537.29 211.52 538.03 209.96 536.19 C 205.89 532.13 208.38 525.93 208.32 520.91 C 209.84 514.65 212.82 508.73 216.67 503.57 C 222.16 496.53 230.33 492.14 238.74 489.54 C 236.71 484.80 232.61 481.40 229.02 477.86 C 218.88 469.06 205.38 464.67 192.04 464.64 C 189.21 464.91 186.09 463.77 185.08 460.91 C 183.44 457.41 186.59 454.18 188.98 451.99 C 204.28 439.56 226.55 438.14 244.13 446.44 C 245.16 446.92 246.18 447.43 247.21 447.92 C 249.51 449.83 251.82 451.72 254.19 453.54 C 255.19 452.02 256.18 450.49 257.22 448.99 C 261.35 443.30 266.02 437.93 271.55 433.56 C 276.28 430.06 281.67 427.58 287.10 425.36 C 288.35 425.65 289.39 425.28 290.21 424.27 C 296.16 423.79 302.01 421.50 308.03 422.54 C 312.16 422.92 316.33 426.56 315.74 430.99 C 315.79 435.34 310.78 436.80 307.77 438.81 C 303.05 441.02 299.01 444.39 295.30 447.99 C 283.09 458.72 275.67 473.87 271.48 489.36 C 277.60 491.68 284.05 493.64 289.29 497.72 C 297.00 503.65 304.00 510.88 308.04 519.84 C 311.02 525.81 314.36 533.09 310.51 539.46 C 307.66 540.02 304.19 541.67 301.78 539.19 C 296.88 535.01 292.74 529.99 287.54 526.14 C 280.56 520.24 272.32 515.62 263.23 514.02 C 263.22 527.79 263.41 541.57 263.46 555.34 C 262.01 565.12 264.54 574.96 264.28 584.80 C 268.83 585.42 273.43 585.13 278.00 584.91 C 294.67 584.71 311.36 585.25 328.03 584.62 C 328.58 579.77 328.45 574.89 328.37 570.02 C 328.37 541.69 328.32 513.36 328.39 485.04 C 328.20 476.38 328.89 467.68 327.86 459.06 C 326.40 459.26 324.93 459.39 323.52 459.77 C 321.81 461.98 320.59 464.60 318.34 466.37 C 316.36 467.97 314.68 469.94 313.83 472.39 C 313.52 472.67 312.88 473.24 312.57 473.53 C 310.14 473.36 307.67 473.41 305.30 472.79 C 301.40 469.65 300.10 464.14 301.77 459.47 C 302.32 458.67 302.91 457.89 303.53 457.16 C 306.72 454.35 309.49 451.14 312.39 448.06 C 313.67 447.54 315.16 447.29 316.18 446.27 C 319.28 443.35 322.46 440.39 324.66 436.70 C 323.11 437.72 321.57 438.77 320.14 439.96 C 337.30 421.50 354.61 403.17 371.94 384.87 C 379.95 375.66 389.06 367.50 396.91 358.15 M 421.30 378.10 C 431.03 388.27 442.28 396.83 452.47 406.52 C 453.69 407.63 454.83 408.93 456.37 409.65 C 457.90 411.55 459.47 413.76 461.84 414.67 C 470.19 423.50 479.92 430.89 488.51 439.49 C 492.80 443.51 497.40 447.19 501.65 451.27 C 504.43 453.61 507.11 456.71 510.95 457.16 C 515.95 457.66 520.96 458.15 525.96 458.66 C 530.68 459.64 535.43 460.50 540.23 460.93 C 541.08 461.07 542.78 461.36 543.63 461.50 C 545.97 462.01 548.30 462.63 550.70 462.87 C 557.72 464.76 565.12 464.82 572.27 466.14 C 570.87 466.53 569.52 467.04 568.15 467.53 C 573.07 467.48 577.87 468.55 582.70 469.35 C 588.15 470.25 593.69 470.41 599.21 470.40 C 600.91 470.88 602.64 471.18 604.40 471.41 C 608.19 471.92 611.96 472.60 615.76 473.05 C 618.00 474.67 620.86 474.28 623.46 474.39 C 624.46 475.21 625.61 475.75 626.92 475.89 C 635.32 477.39 643.66 479.62 652.25 479.71 C 650.34 476.62 647.07 474.86 644.57 472.33 C 639.30 466.91 633.09 462.53 627.82 457.12 C 616.86 447.59 604.92 439.00 595.25 428.08 C 591.77 425.47 587.89 423.27 585.09 419.86 C 582.76 416.83 579.35 415.00 576.50 412.53 C 572.14 408.51 565.96 407.88 560.40 406.75 C 553.68 403.73 546.25 402.88 539.25 400.72 C 524.88 397.90 510.65 394.45 496.28 391.64 C 490.87 390.33 485.46 388.47 479.80 389.37 C 467.04 386.92 454.31 384.31 441.61 381.53 C 434.91 380.07 428.17 378.51 421.30 378.10 M 365.76 418.63 C 362.68 422.30 358.92 425.31 355.89 429.01 C 352.49 432.62 348.59 435.82 345.97 440.09 C 345.01 444.48 345.61 449.04 345.55 453.51 C 345.14 496.36 345.16 539.22 345.23 582.07 C 344.52 585.21 348.09 584.27 349.97 584.35 C 384.40 583.15 418.88 584.27 453.33 583.66 C 457.49 584.52 461.78 584.46 465.99 584.07 C 466.48 581.08 466.28 578.04 466.28 575.03 C 466.27 546.07 466.29 517.10 466.28 488.14 C 468.02 487.84 469.76 487.55 471.52 487.32 C 475.20 487.40 478.88 487.35 482.57 487.39 C 482.54 519.50 482.52 551.61 482.54 583.73 L 482.93 584.16 C 487.74 584.41 492.57 584.24 497.39 584.23 C 497.61 547.14 497.70 510.04 497.30 472.96 C 487.91 464.18 478.98 454.86 469.08 446.67 C 454.34 433.01 439.56 419.39 424.65 405.92 L 424.01 405.53 C 415.61 398.49 408.18 390.45 400.19 382.98 C 388.77 394.92 377.16 406.67 365.76 418.63 M 514.30 475.44 C 514.34 511.88 514.55 548.33 514.20 584.77 C 518.09 585.42 522.04 585.32 525.97 585.17 C 567.97 584.84 609.98 584.76 651.98 585.18 C 655.33 585.23 658.68 585.00 662.03 584.72 C 661.31 575.73 655.66 568.32 651.21 560.83 C 649.07 557.93 647.23 554.02 643.37 553.23 C 635.92 544.72 626.24 538.02 615.14 535.38 C 610.02 530.81 602.30 532.61 596.08 530.94 C 592.64 529.87 591.11 525.23 593.15 522.39 C 599.65 516.70 608.56 514.96 616.96 514.65 C 628.63 513.82 640.50 516.62 650.72 522.30 C 652.52 523.32 654.58 523.65 656.61 523.98 C 656.73 515.17 657.22 506.35 656.66 497.55 C 651.82 496.45 646.95 495.56 642.01 495.05 C 635.96 494.02 629.89 492.60 623.70 492.99 C 613.28 491.40 602.82 490.05 592.41 488.38 C 587.26 485.76 581.36 485.75 575.86 484.39 C 567.67 482.24 559.13 482.15 550.85 480.49 C 546.48 479.60 541.95 479.67 537.63 478.49 C 532.48 476.93 526.97 477.19 521.88 475.33 C 519.42 474.22 516.79 474.83 514.30 475.44 M 262.37 513.86 C 261.21 518.50 261.75 523.30 261.67 528.03 C 261.74 536.75 261.30 545.53 262.35 554.21 C 263.05 545.49 262.95 536.73 262.90 527.99 C 262.86 523.28 263.21 518.53 262.37 513.86 Z" />
<path fill="#06182c" opacity="1.00" d=" M 348.87 640.82 C 365.74 639.33 383.21 641.67 398.50 649.23 C 413.23 655.65 425.97 665.66 440.26 672.91 C 458.74 682.80 479.20 688.96 500.05 691.06 C 495.80 694.87 490.03 696.09 484.75 697.85 C 465.38 702.83 444.58 701.84 425.65 695.43 C 405.88 689.36 389.66 675.66 370.28 668.71 C 364.28 666.49 358.21 664.11 351.78 663.56 C 349.51 663.37 347.17 663.56 345.04 662.64 C 342.71 662.42 340.36 662.31 338.03 662.16 C 333.74 661.03 329.36 662.22 325.04 662.42 C 318.70 663.17 312.41 664.40 306.25 666.07 C 302.12 667.04 298.20 668.65 294.25 670.13 C 293.78 670.01 292.85 669.76 292.39 669.64 C 291.51 667.85 290.64 666.07 289.78 664.28 C 299.64 657.46 310.58 652.45 321.39 647.38 C 330.56 645.18 339.40 641.64 348.87 640.82 Z" />
</g>
<g id="#ff4841ff">
<path fill="#ff4841" opacity="1.00" d=" M 276.99 359.90 C 277.44 358.60 278.70 358.29 279.95 358.39 C 309.00 358.32 338.04 358.41 367.09 358.32 C 377.03 358.26 386.98 358.59 396.91 358.15 C 389.06 367.50 379.95 375.66 371.94 384.87 C 354.61 403.17 337.30 421.50 320.14 439.96 C 317.42 442.52 314.86 445.25 312.39 448.06 C 309.49 451.14 306.72 454.35 303.53 457.16 C 300.71 458.39 297.92 460.61 298.04 464.01 C 297.19 469.95 301.91 474.90 306.97 477.12 C 310.01 478.54 313.08 476.14 315.23 474.17 C 318.02 471.27 320.88 468.39 324.42 466.39 C 324.71 467.90 325.02 469.42 325.16 470.97 C 325.47 500.33 325.33 529.70 325.34 559.06 C 325.08 566.76 326.25 574.68 324.22 582.21 C 319.31 583.77 314.05 582.85 308.99 583.06 C 295.18 582.79 281.33 583.75 267.54 582.57 C 266.33 573.75 266.21 564.84 265.36 555.99 C 265.25 542.66 265.27 529.32 265.42 515.98 C 270.17 517.37 274.83 519.21 278.98 521.97 C 281.66 523.69 284.11 526.19 287.54 526.14 C 292.74 529.99 296.88 535.01 301.78 539.19 C 304.19 541.67 307.66 540.02 310.51 539.46 C 314.36 533.09 311.02 525.81 308.04 519.84 C 304.00 510.88 297.00 503.65 289.29 497.72 C 284.05 493.64 277.60 491.68 271.48 489.36 C 275.67 473.87 283.09 458.72 295.30 447.99 C 300.62 446.09 304.74 442.08 309.39 439.02 L 307.77 438.81 C 310.78 436.80 315.79 435.34 315.74 430.99 C 316.33 426.56 312.16 422.92 308.03 422.54 C 302.01 421.50 296.16 423.79 290.21 424.27 C 288.78 423.60 287.74 423.97 287.10 425.36 C 281.67 427.58 276.28 430.06 271.55 433.56 C 266.02 437.93 261.35 443.30 257.22 448.99 C 256.21 449.63 255.18 450.24 254.15 450.84 C 252.08 449.35 249.71 448.38 247.21 447.92 C 246.18 447.43 245.16 446.92 244.13 446.44 C 245.15 434.54 249.28 423.22 253.11 412.00 C 259.25 393.87 267.19 376.35 276.99 359.90 Z" />
<path fill="#ff4841" opacity="1.00" d=" M 443.11 358.47 C 472.73 358.42 502.35 358.41 531.97 358.41 C 555.03 358.46 578.11 358.12 601.16 358.55 C 605.47 373.93 617.56 387.20 633.04 391.69 C 645.75 395.39 659.96 394.69 671.88 388.73 C 683.22 382.38 691.83 371.37 694.95 358.71 C 710.65 358.28 726.39 358.15 742.09 358.53 C 750.44 371.70 756.79 386.05 762.56 400.51 C 763.10 400.68 764.18 401.03 764.73 401.20 C 758.36 405.57 753.20 411.47 749.32 418.13 C 743.62 416.56 742.40 409.06 736.35 407.99 C 736.28 407.93 736.14 407.81 736.07 407.75 C 734.85 404.84 732.36 403.28 729.24 403.14 C 726.28 401.85 723.34 400.52 720.31 399.42 C 716.24 396.28 710.81 397.05 706.01 396.88 C 701.89 397.23 697.02 396.30 693.78 399.49 C 692.59 399.81 691.43 400.17 690.28 400.54 C 678.80 404.23 668.37 412.09 662.80 422.92 C 661.13 426.49 661.91 432.87 667.05 432.60 C 675.13 431.31 683.32 430.15 691.51 431.37 C 704.35 433.32 716.59 439.64 725.16 449.45 C 717.36 452.13 710.21 456.29 703.66 461.26 C 703.61 461.63 703.51 462.35 703.46 462.71 C 699.73 465.75 697.33 469.95 694.81 473.97 C 690.09 477.47 690.82 484.13 691.27 489.31 C 691.62 489.56 692.33 490.06 692.68 490.31 C 694.59 491.43 696.52 493.15 698.90 492.79 C 700.98 492.60 702.59 491.13 704.12 489.86 C 713.68 481.15 725.93 475.77 738.59 473.47 C 740.24 483.58 738.78 493.85 738.54 504.02 C 738.39 512.74 737.01 521.37 735.90 530.00 C 733.47 548.35 729.13 566.39 723.49 584.01 C 711.37 584.47 699.22 584.08 687.09 584.19 C 687.47 581.86 687.91 579.54 688.52 577.27 C 691.57 574.75 691.90 570.60 693.17 567.11 C 694.26 564.04 694.73 560.81 694.99 557.58 C 696.25 553.83 697.70 550.15 699.00 546.42 C 699.26 545.92 699.79 544.93 700.05 544.44 C 703.38 539.96 705.14 534.61 707.56 529.64 C 709.12 526.46 709.74 522.96 710.20 519.49 C 710.73 516.41 711.96 513.24 711.15 510.12 C 709.68 506.96 706.70 504.02 703.03 503.93 C 699.83 503.62 696.84 504.92 694.02 506.22 C 692.64 506.19 691.26 506.15 689.90 506.09 C 691.63 504.43 693.22 502.47 695.44 501.45 C 698.37 500.76 701.42 500.85 704.41 500.52 C 702.20 499.10 699.60 499.45 697.15 499.83 C 696.39 499.31 695.64 498.79 694.90 498.27 C 691.54 498.50 688.19 498.88 684.87 499.46 C 684.09 499.44 683.31 499.42 682.55 499.42 C 682.54 498.74 682.52 497.39 682.51 496.72 C 684.77 494.38 687.18 490.50 684.38 487.60 C 678.35 480.88 671.17 475.28 664.80 468.88 C 660.65 464.50 656.15 460.48 651.47 456.70 C 644.84 450.80 638.57 444.52 631.84 438.75 C 628.44 435.56 625.18 432.22 621.58 429.26 C 608.52 417.61 595.81 405.54 582.50 394.19 C 578.58 391.49 573.62 391.74 569.19 390.50 C 561.03 388.46 552.70 387.20 544.58 385.03 C 535.77 381.43 526.17 380.69 517.02 378.31 C 510.77 377.46 504.76 374.80 498.37 375.25 C 479.96 371.77 461.63 367.88 443.29 364.06 C 442.74 362.78 442.19 361.50 441.63 360.23 C 442.00 359.79 442.74 358.91 443.11 358.47 Z" />
</g>
<g id="#f77276ff">
<path fill="#f77276" opacity="1.00" d=" M 411.00 357.96 C 417.68 358.92 424.42 358.63 431.14 358.67 C 430.40 358.79 428.93 359.02 428.19 359.13 C 429.59 360.03 431.00 360.92 432.42 361.82 C 427.48 360.86 422.54 359.92 417.58 359.13 C 415.38 358.71 413.19 358.32 411.00 357.96 Z" />
<path fill="#f77276" opacity="1.00" d=" M 498.37 375.25 C 504.76 374.80 510.77 377.46 517.02 378.31 C 526.17 380.69 535.77 381.43 544.58 385.03 C 529.16 381.82 513.72 378.72 498.37 375.25 Z" />
<path fill="#f77276" opacity="1.00" d=" M 373.64 484.46 C 376.72 484.95 379.82 485.43 382.95 485.45 C 399.62 485.38 416.29 485.43 432.97 485.46 C 435.88 485.51 438.73 484.83 441.62 484.63 C 444.93 486.05 444.10 490.10 444.19 492.98 C 443.31 510.32 444.02 527.68 443.62 545.03 C 443.49 547.86 444.20 550.64 444.38 553.45 C 443.56 554.91 442.42 556.16 441.37 557.47 C 438.61 556.95 435.81 556.62 433.00 556.65 C 419.34 556.63 405.69 556.60 392.04 556.59 C 386.41 556.32 380.87 557.75 375.23 557.45 C 375.18 556.98 375.07 556.05 375.01 555.58 C 397.51 555.48 420.01 555.44 442.51 555.54 C 442.90 532.49 442.54 509.44 442.64 486.39 C 419.66 486.01 396.68 486.45 373.70 486.31 C 373.43 509.39 373.92 532.48 373.52 555.56 C 373.13 554.38 372.88 553.18 372.78 551.97 C 373.04 531.62 372.81 511.27 372.74 490.93 C 372.77 488.74 373.22 486.59 373.64 484.46 Z" />
<path fill="#f77276" opacity="1.00" d=" M 700.05 544.44 C 703.19 536.02 706.32 527.59 710.20 519.49 C 709.74 522.96 709.12 526.46 707.56 529.64 C 705.14 534.61 703.38 539.96 700.05 544.44 Z" />
<path fill="#f77276" opacity="1.00" d=" M 502.97 742.44 C 503.66 742.35 505.04 742.17 505.72 742.08 C 506.54 742.97 507.37 743.87 508.20 744.77 C 508.41 747.23 509.78 750.81 508.13 752.72 C 507.58 752.87 506.48 753.16 505.93 753.31 C 506.24 750.87 504.94 747.40 507.89 746.20 C 507.85 745.94 507.75 745.41 507.71 745.14 C 507.18 745.35 506.13 745.77 505.60 745.97 C 504.74 744.77 503.90 743.58 502.97 742.44 Z" />
</g>
<g id="#f16652ff">
<path fill="#f16652" opacity="1.00" d=" M 428.19 359.13 C 428.93 359.02 430.40 358.79 431.14 358.67 C 435.11 358.25 439.12 358.47 443.11 358.47 C 442.74 358.91 442.00 359.79 441.63 360.23 C 442.19 361.50 442.74 362.78 443.29 364.06 C 439.66 363.35 436.05 362.51 432.42 361.82 C 431.00 360.92 429.59 360.03 428.19 359.13 Z" />
<path fill="#f16652" opacity="1.00" d=" M 648.99 560.80 C 654.00 567.79 657.46 575.69 660.72 583.61 C 614.17 584.01 567.61 583.60 521.06 583.79 C 518.85 583.61 514.95 584.55 515.53 580.98 L 516.57 581.62 C 518.69 583.25 521.42 583.33 523.99 583.33 C 553.68 583.38 583.37 583.29 613.06 583.33 C 628.46 583.15 643.87 583.73 659.25 583.05 C 657.00 575.10 652.27 568.28 648.99 560.80 Z" />
</g>
<g id="#2a080fff">
<path fill="#2a080f" opacity="1.00" d=" M 417.58 359.13 C 422.54 359.92 427.48 360.86 432.42 361.82 C 436.05 362.51 439.66 363.35 443.29 364.06 C 461.63 367.88 479.96 371.77 498.37 375.25 C 513.72 378.72 529.16 381.82 544.58 385.03 C 552.70 387.20 561.03 388.46 569.19 390.50 C 573.62 391.74 578.58 391.49 582.50 394.19 C 575.41 393.19 568.18 392.73 561.38 390.37 C 556.29 389.14 551.13 388.24 546.00 387.24 C 540.32 386.62 535.02 384.33 529.39 383.50 C 518.48 381.39 507.56 379.32 496.84 376.40 C 471.70 372.62 447.25 365.18 422.06 361.79 C 420.24 361.57 418.93 360.18 417.58 359.13 Z" />
<path fill="#2a080f" opacity="1.00" d=" M 662.80 422.92 C 668.37 412.09 678.80 404.23 690.28 400.54 C 687.84 404.16 683.11 404.50 679.73 406.84 C 673.44 411.15 668.42 417.10 664.15 423.36 C 662.47 426.06 664.06 432.16 667.95 431.18 C 671.65 430.64 675.29 429.69 679.05 429.61 C 683.24 429.58 687.82 428.87 691.51 431.37 C 683.32 430.15 675.13 431.31 667.05 432.60 C 661.91 432.87 661.13 426.49 662.80 422.92 Z" />
<path fill="#2a080f" opacity="1.00" d=" M 755.76 474.04 C 756.12 473.69 756.85 473.00 757.21 472.65 C 757.43 486.95 757.33 501.26 756.06 515.51 L 756.03 515.97 C 754.63 519.84 754.79 524.00 754.36 528.04 C 754.48 524.03 754.15 520.02 754.32 516.01 C 754.46 511.95 755.61 508.01 755.67 503.95 C 755.77 493.98 755.45 484.00 755.76 474.04 Z" />
<path fill="#2a080f" opacity="1.00" d=" M 373.70 486.31 C 396.68 486.45 419.66 486.01 442.64 486.39 C 442.54 509.44 442.90 532.49 442.51 555.54 C 420.01 555.44 397.51 555.48 375.01 555.58 C 374.64 555.57 373.90 555.56 373.52 555.56 C 373.92 532.48 373.43 509.39 373.70 486.31 M 375.35 488.30 C 374.73 507.86 375.55 527.44 375.02 547.00 C 374.99 549.20 375.23 551.40 375.48 553.60 C 380.60 554.42 385.78 553.75 390.94 553.86 C 404.97 553.95 419.01 553.97 433.05 553.92 C 435.76 553.90 438.45 553.54 441.12 553.07 C 441.64 535.73 441.19 518.36 441.38 501.01 C 441.26 497.32 441.71 493.43 440.29 489.93 C 439.47 487.80 436.89 487.68 434.97 487.63 C 422.99 487.63 411.02 487.81 399.05 487.75 C 391.15 487.85 383.22 487.42 375.35 488.30 Z" />
<path fill="#2a080f" opacity="1.00" d=" M 694.02 506.22 C 696.84 504.92 699.83 503.62 703.03 503.93 C 706.70 504.02 709.68 506.96 711.15 510.12 C 711.96 513.24 710.73 516.41 710.20 519.49 C 706.32 527.59 703.19 536.02 700.05 544.44 C 699.79 544.93 699.26 545.92 699.00 546.42 C 699.01 539.70 702.53 533.84 704.72 527.69 C 706.71 522.32 710.39 517.05 709.59 511.09 C 708.21 508.42 705.81 505.96 702.88 505.11 C 698.73 504.98 695.09 507.50 691.92 509.88 C 688.36 512.48 686.67 517.09 682.47 518.89 C 685.51 514.00 689.54 509.82 694.02 506.22 Z" />
</g>
<g id="#fd4a42ff">
<path fill="#fd4a42" opacity="1.00" d=" M 421.30 378.10 C 428.17 378.51 434.91 380.07 441.61 381.53 C 454.31 384.31 467.04 386.92 479.80 389.37 C 493.95 392.84 508.44 394.81 522.45 398.85 C 529.49 401.61 536.96 404.37 544.66 403.53 C 545.17 403.67 546.20 403.95 546.71 404.08 C 560.57 414.61 573.76 426.01 587.88 436.20 C 592.53 439.77 597.21 443.31 601.88 446.86 C 595.08 443.19 589.26 438.03 582.54 434.24 C 575.38 428.94 567.56 424.66 560.11 419.79 C 551.77 414.39 543.31 409.15 534.58 404.41 C 530.90 402.44 526.64 402.17 522.56 402.23 C 525.97 406.32 530.58 409.07 534.80 412.23 C 550.79 423.42 565.71 436.04 581.62 447.34 C 593.03 455.86 604.08 464.90 615.76 473.05 C 611.96 472.60 608.19 471.92 604.40 471.41 C 588.85 458.60 572.24 447.12 556.14 435.01 C 544.43 427.08 533.66 417.83 521.61 410.40 C 513.46 404.94 505.19 397.75 494.76 398.08 C 496.39 399.92 498.03 401.75 499.85 403.41 C 499.49 405.07 499.14 406.73 498.79 408.40 C 489.37 403.23 480.86 394.98 469.68 394.12 C 472.36 399.08 477.32 402.01 481.73 405.23 C 485.47 407.79 489.00 410.64 492.66 413.31 C 502.27 419.95 510.66 428.19 520.38 434.69 C 529.80 441.13 538.34 448.74 547.55 455.47 C 550.80 457.70 554.07 459.92 557.01 462.56 C 554.90 462.68 552.80 462.81 550.70 462.87 C 548.30 462.63 545.97 462.01 543.63 461.50 C 540.53 458.58 536.83 456.47 533.37 454.04 C 523.83 445.32 513.17 437.96 503.03 429.98 C 495.80 423.46 487.56 418.20 480.21 411.83 C 475.41 407.51 469.88 404.13 464.72 400.28 C 460.16 397.13 455.94 393.43 451.00 390.88 C 447.34 388.87 443.04 389.38 439.04 389.38 C 454.32 400.58 469.94 411.38 484.29 423.79 C 491.12 430.04 498.80 435.27 505.96 441.14 C 512.41 446.62 518.99 451.96 525.72 457.08 C 529.93 460.09 535.48 459.30 540.23 460.93 C 535.43 460.50 530.68 459.64 525.96 458.66 C 520.96 458.15 515.95 457.66 510.95 457.16 C 507.11 456.71 504.43 453.61 501.65 451.27 C 497.40 447.19 492.80 443.51 488.51 439.49 C 479.92 430.89 470.19 423.50 461.84 414.67 L 463.30 415.05 C 461.55 412.61 459.27 410.58 456.37 409.65 C 454.83 408.93 453.69 407.63 452.47 406.52 C 442.28 396.83 431.03 388.27 421.30 378.10 Z" />
</g>
<g id="#f7eee5ff">
<path fill="#f7eee5" opacity="1.00" d=" M 365.76 418.63 C 377.16 406.67 388.77 394.92 400.19 382.98 C 408.18 390.45 415.61 398.49 424.01 405.53 C 419.47 403.10 416.76 398.12 411.92 396.26 C 399.78 408.64 386.51 419.85 374.41 432.29 C 373.69 431.00 372.98 429.73 372.27 428.46 C 371.27 428.30 370.26 428.13 369.26 427.98 C 371.32 426.57 373.48 425.31 375.74 424.25 C 376.26 421.48 376.52 418.67 376.52 415.85 C 374.68 416.60 372.85 417.38 371.04 418.19 C 370.62 419.40 370.26 420.63 369.93 421.88 C 368.50 420.85 367.12 419.73 365.76 418.63 Z" />
</g>
<g id="#c31a22ff">
<path fill="#c31a22" opacity="1.00" d=" M 439.04 389.38 C 443.04 389.38 447.34 388.87 451.00 390.88 C 455.94 393.43 460.16 397.13 464.72 400.28 C 469.88 404.13 475.41 407.51 480.21 411.83 C 487.56 418.20 495.80 423.46 503.03 429.98 C 513.17 437.96 523.83 445.32 533.37 454.04 C 530.53 453.77 527.75 453.22 525.06 452.30 C 526.06 453.81 527.03 455.35 527.99 456.91 C 527.42 456.95 526.29 457.04 525.72 457.08 C 518.99 451.96 512.41 446.62 505.96 441.14 C 498.80 435.27 491.12 430.04 484.29 423.79 C 469.94 411.38 454.32 400.58 439.04 389.38 Z" />
</g>
<g id="#451223ff">
<path fill="#451223" opacity="1.00" d=" M 479.80 389.37 C 485.46 388.47 490.87 390.33 496.28 391.64 C 510.65 394.45 524.88 397.90 539.25 400.72 C 546.25 402.88 553.68 403.73 560.40 406.75 C 555.70 406.66 551.20 405.31 546.71 404.08 C 546.20 403.95 545.17 403.67 544.66 403.53 C 537.38 401.40 529.94 399.90 522.45 398.85 C 508.44 394.81 493.95 392.84 479.80 389.37 Z" />
</g>
<g id="#c71921ff">
<path fill="#c71921" opacity="1.00" d=" M 469.68 394.12 C 480.86 394.98 489.37 403.23 498.79 408.40 C 504.49 412.92 510.09 417.56 515.84 422.02 C 524.22 428.71 533.03 434.84 541.48 441.44 C 552.12 449.92 563.29 457.69 574.28 465.69 C 573.78 465.81 572.78 466.03 572.27 466.14 C 565.12 464.82 557.72 464.76 550.70 462.87 C 552.80 462.81 554.90 462.68 557.01 462.56 C 554.07 459.92 550.80 457.70 547.55 455.47 C 538.34 448.74 529.80 441.13 520.38 434.69 C 510.66 428.19 502.27 419.95 492.66 413.31 C 489.00 410.64 485.47 407.79 481.73 405.23 C 477.32 402.01 472.36 399.08 469.68 394.12 Z" />
</g>
<g id="#ff4741ff">
<path fill="#ff4741" opacity="1.00" d=" M 411.92 396.26 C 416.76 398.12 419.47 403.10 424.01 405.53 L 424.65 405.92 C 439.56 419.39 454.34 433.01 469.08 446.67 C 468.38 446.50 466.98 446.15 466.29 445.97 C 472.96 452.76 480.50 458.63 487.05 465.54 C 486.39 465.94 485.09 466.74 484.43 467.14 C 486.54 469.45 488.60 471.81 490.55 474.25 C 488.29 475.40 485.85 476.21 483.29 476.07 C 475.86 475.82 468.44 476.16 461.02 476.06 C 458.84 476.07 456.62 476.01 454.52 476.60 C 453.60 479.66 453.75 482.90 453.73 486.07 C 453.87 514.39 454.13 542.71 454.03 571.03 C 453.83 575.22 453.53 579.42 453.79 583.63 C 449.87 583.00 445.92 583.51 441.99 583.68 C 423.68 583.86 405.37 583.55 387.09 583.38 C 378.52 584.01 369.92 583.64 361.34 583.62 C 360.81 572.76 361.48 561.89 360.77 551.04 C 360.48 525.68 360.99 500.32 360.60 474.96 C 360.60 465.36 360.37 455.76 360.51 446.16 C 365.21 441.61 369.77 436.90 374.41 432.29 C 386.51 419.85 399.78 408.64 411.92 396.26 M 404.28 425.41 C 399.82 426.55 395.70 429.35 393.44 433.42 C 388.09 442.39 393.41 455.44 403.25 458.58 C 409.38 460.78 416.81 458.85 421.31 454.17 C 425.60 450.21 427.01 443.77 425.78 438.20 C 423.87 428.99 413.34 422.51 404.28 425.41 M 373.64 484.46 C 373.22 486.59 372.77 488.74 372.74 490.93 C 372.81 511.27 373.04 531.62 372.78 551.97 C 372.88 553.18 373.13 554.38 373.52 555.56 C 373.90 555.56 374.64 555.57 375.01 555.58 C 375.07 556.05 375.18 556.98 375.23 557.45 C 380.87 557.75 386.41 556.32 392.04 556.59 C 405.69 556.60 419.34 556.63 433.00 556.65 C 435.81 556.62 438.61 556.95 441.37 557.47 C 442.42 556.16 443.56 554.91 444.38 553.45 C 444.20 550.64 443.49 547.86 443.62 545.03 C 444.02 527.68 443.31 510.32 444.19 492.98 C 444.10 490.10 444.93 486.05 441.62 484.63 C 438.73 484.83 435.88 485.51 432.97 485.46 C 416.29 485.43 399.62 485.38 382.95 485.45 C 379.82 485.43 376.72 484.95 373.64 484.46 Z" />
</g>
<g id="#cf5956ff">
<path fill="#cf5956" opacity="1.00" d=" M 693.78 399.49 C 697.02 396.30 701.89 397.23 706.01 396.88 C 710.81 397.05 716.24 396.28 720.31 399.42 C 711.59 397.67 702.46 397.41 693.78 399.49 Z" />
</g>
<g id="#c9161cff">
<path fill="#c9161c" opacity="1.00" d=" M 494.76 398.08 C 505.19 397.75 513.46 404.94 521.61 410.40 C 533.66 417.83 544.43 427.08 556.14 435.01 C 555.60 435.01 554.53 435.02 554.00 435.03 C 554.83 436.77 555.68 438.51 556.51 440.25 C 550.19 438.94 545.49 434.36 540.35 430.82 C 540.31 429.79 540.29 428.77 540.26 427.75 C 535.52 429.28 532.90 422.87 528.14 423.50 C 524.45 421.38 521.05 418.79 517.48 416.49 C 511.39 412.42 505.54 408.01 499.85 403.41 C 498.03 401.75 496.39 399.92 494.76 398.08 Z" />
</g>
<g id="#da4e5dff">
<path fill="#da4e5d" opacity="1.00" d=" M 522.45 398.85 C 529.94 399.90 537.38 401.40 544.66 403.53 C 536.96 404.37 529.49 401.61 522.45 398.85 Z" />
</g>
<g id="#b9101cff">
<path fill="#b9101c" opacity="1.00" d=" M 522.56 402.23 C 526.64 402.17 530.90 402.44 534.58 404.41 C 543.31 409.15 551.77 414.39 560.11 419.79 C 567.56 424.66 575.38 428.94 582.54 434.24 C 581.89 434.73 580.61 435.71 579.96 436.20 C 578.34 435.47 576.73 434.75 575.12 434.04 C 575.47 434.80 575.82 435.56 576.18 436.33 C 576.04 437.75 575.91 439.16 575.79 440.58 C 576.79 440.41 577.79 440.23 578.80 440.06 C 578.29 440.97 577.78 441.89 577.28 442.82 C 578.19 442.59 579.10 442.38 580.03 442.16 C 581.32 443.16 582.61 444.17 583.91 445.17 C 583.14 445.89 582.38 446.61 581.62 447.34 C 565.71 436.04 550.79 423.42 534.80 412.23 C 530.58 409.07 525.97 406.32 522.56 402.23 Z" />
<path fill="#b9101c" opacity="1.00" d=" M 657.73 757.53 L 658.36 758.00 C 658.34 761.36 658.46 764.75 658.00 768.10 C 658.11 764.57 658.01 761.04 657.73 757.53 Z" />
</g>
<g id="#d15258ff">
<path fill="#d15258" opacity="1.00" d=" M 729.24 403.14 C 732.36 403.28 734.85 404.84 736.07 407.75 C 733.74 406.28 731.47 404.73 729.24 403.14 Z" />
</g>
<g id="#fe5e46ff">
<path fill="#fe5e46" opacity="1.00" d=" M 498.79 408.40 C 499.14 406.73 499.49 405.07 499.85 403.41 C 505.54 408.01 511.39 412.42 517.48 416.49 C 516.70 416.89 515.92 417.30 515.15 417.70 C 516.10 419.12 517.05 420.55 518.00 421.98 C 517.46 421.99 516.38 422.01 515.84 422.02 C 510.09 417.56 504.49 412.92 498.79 408.40 Z" />
<path fill="#fe5e46" opacity="1.00" d=" M 686.86 760.44 C 688.57 759.71 690.13 762.53 689.08 763.89 L 688.59 763.98 C 687.91 762.83 687.40 761.62 686.86 760.44 Z" />
<path fill="#fe5e46" opacity="1.00" d=" M 713.88 760.48 C 715.57 759.67 717.14 762.54 716.08 763.88 L 715.59 763.98 C 714.91 762.85 714.41 761.65 713.88 760.48 Z" />
<path fill="#fe5e46" opacity="1.00" d=" M 728.13 767.36 C 729.90 767.86 729.26 770.96 727.53 770.94 C 727.01 769.85 727.21 768.16 728.13 767.36 Z" />
</g>
<g id="#a5101cff">
<path fill="#a5101c" opacity="1.00" d=" M 546.71 404.08 C 551.20 405.31 555.70 406.66 560.40 406.75 C 565.96 407.88 572.14 408.51 576.50 412.53 C 579.35 415.00 582.76 416.83 585.09 419.86 C 587.89 423.27 591.77 425.47 595.25 428.08 C 604.92 439.00 616.86 447.59 627.82 457.12 C 627.34 457.12 626.39 457.12 625.91 457.12 C 632.32 463.72 638.88 470.19 646.26 475.71 C 644.94 476.20 643.61 476.90 642.16 476.64 C 635.90 476.11 629.80 474.09 623.46 474.39 C 620.86 474.28 618.00 474.67 615.76 473.05 C 604.08 464.90 593.03 455.86 581.62 447.34 C 582.38 446.61 583.14 445.89 583.91 445.17 C 582.61 444.17 581.32 443.16 580.03 442.16 C 579.10 442.38 578.19 442.59 577.28 442.82 C 577.78 441.89 578.29 440.97 578.80 440.06 C 577.79 440.23 576.79 440.41 575.79 440.58 C 575.91 439.16 576.04 437.75 576.18 436.33 C 575.82 435.56 575.47 434.80 575.12 434.04 C 576.73 434.75 578.34 435.47 579.96 436.20 C 580.61 435.71 581.89 434.73 582.54 434.24 C 589.26 438.03 595.08 443.19 601.88 446.86 C 597.21 443.31 592.53 439.77 587.88 436.20 C 573.76 426.01 560.57 414.61 546.71 404.08 Z" />
</g>
<g id="#ca4e55ff">
<path fill="#ca4e55" opacity="1.00" d=" M 736.35 407.99 C 742.40 409.06 743.62 416.56 749.32 418.13 C 748.74 419.09 748.16 420.06 747.60 421.04 C 744.11 416.47 740.31 412.16 736.35 407.99 Z" />
</g>
<g id="#d75961ff">
<path fill="#d75961" opacity="1.00" d=" M 456.37 409.65 C 459.27 410.58 461.55 412.61 463.30 415.05 L 461.84 414.67 C 459.47 413.76 457.90 411.55 456.37 409.65 Z" />
</g>
<g id="#faf4f0ff">
<path fill="#faf4f0" opacity="1.00" d=" M 371.04 418.19 C 372.85 417.38 374.68 416.60 376.52 415.85 C 376.52 418.67 376.26 421.48 375.74 424.25 C 373.48 425.31 371.32 426.57 369.26 427.98 C 370.26 428.13 371.27 428.30 372.27 428.46 C 372.98 429.73 373.69 431.00 374.41 432.29 C 369.77 436.90 365.21 441.61 360.51 446.16 C 358.74 457.29 360.35 468.68 359.47 479.91 C 358.69 471.01 359.65 462.04 358.70 453.15 C 358.57 451.08 356.74 447.98 354.34 449.33 C 352.80 450.93 352.51 453.39 351.59 455.37 C 350.16 453.18 349.14 450.77 348.67 448.20 C 347.67 449.99 346.63 451.76 345.55 453.51 C 345.61 449.04 345.01 444.48 345.97 440.09 C 348.59 435.82 352.49 432.62 355.89 429.01 C 358.92 425.31 362.68 422.30 365.76 418.63 C 367.12 419.73 368.50 420.85 369.93 421.88 C 370.26 420.63 370.62 419.40 371.04 418.19 Z" />
</g>
<g id="#fe4d44ff">
<path fill="#fe4d44" opacity="1.00" d=" M 517.48 416.49 C 521.05 418.79 524.45 421.38 528.14 423.50 C 536.38 430.52 545.45 436.44 554.17 442.82 C 561.95 448.75 569.68 454.75 577.56 460.56 C 582.06 463.88 586.51 467.70 592.15 468.84 C 586.14 468.27 579.90 468.16 574.28 465.69 C 563.29 457.69 552.12 449.92 541.48 441.44 C 533.03 434.84 524.22 428.71 515.84 422.02 C 516.38 422.01 517.46 421.99 518.00 421.98 C 517.05 420.55 516.10 419.12 515.15 417.70 C 515.92 417.30 516.70 416.89 517.48 416.49 Z" />
</g>
<g id="#b8151dff">
<path fill="#b8151d" opacity="1.00" d=" M 528.14 423.50 C 532.90 422.87 535.52 429.28 540.26 427.75 C 540.29 428.77 540.31 429.79 540.35 430.82 C 545.49 434.36 550.19 438.94 556.51 440.25 C 555.68 438.51 554.83 436.77 554.00 435.03 C 554.53 435.02 555.60 435.01 556.14 435.01 C 572.24 447.12 588.85 458.60 604.40 471.41 C 602.64 471.18 600.91 470.88 599.21 470.40 C 596.88 469.75 594.52 469.25 592.15 468.84 C 586.51 467.70 582.06 463.88 577.56 460.56 C 569.68 454.75 561.95 448.75 554.17 442.82 C 545.45 436.44 536.38 430.52 528.14 423.50 Z" />
</g>
<g id="#bf5e5aff">
<path fill="#bf5e5a" opacity="1.00" d=" M 287.10 425.36 C 287.74 423.97 288.78 423.60 290.21 424.27 C 289.39 425.28 288.35 425.65 287.10 425.36 Z" />
</g>
<g id="#faeaddff">
<path fill="#faeadd" opacity="1.00" d=" M 404.28 425.41 C 413.34 422.51 423.87 428.99 425.78 438.20 C 427.01 443.77 425.60 450.21 421.31 454.17 C 416.81 458.85 409.38 460.78 403.25 458.58 C 393.41 455.44 388.09 442.39 393.44 433.42 C 395.70 429.35 399.82 426.55 404.28 425.41 M 402.01 439.20 C 399.47 445.22 407.17 451.38 412.34 447.31 C 417.18 444.49 415.28 436.88 410.15 435.65 C 406.82 434.12 403.72 436.51 402.01 439.20 Z" />
<path fill="#faeadd" opacity="1.00" d=" M 389.53 744.44 C 388.62 743.22 390.48 741.43 391.71 742.16 C 392.38 743.28 390.75 745.36 389.53 744.44 Z" />
<path fill="#faeadd" opacity="1.00" d=" M 485.90 753.14 C 487.89 749.46 489.81 745.15 493.99 743.53 C 495.86 742.49 498.00 743.08 499.96 743.52 C 498.08 743.84 496.18 743.97 494.32 744.37 C 491.11 745.14 489.45 748.30 487.66 750.75 L 489.80 750.52 C 489.30 751.45 488.82 752.39 488.36 753.36 C 487.75 753.31 486.52 753.19 485.90 753.14 Z" />
<path fill="#faeadd" opacity="1.00" d=" M 333.85 755.21 C 334.80 754.41 336.42 753.59 337.49 754.67 C 336.44 755.64 335.24 756.03 333.88 755.83 L 333.85 755.21 Z" />
<path fill="#faeadd" opacity="1.00" d=" M 544.25 756.29 C 545.42 755.90 546.96 756.47 547.74 757.42 C 547.53 759.24 543.82 757.82 544.25 756.29 Z" />
<path fill="#faeadd" opacity="1.00" d=" M 548.95 758.59 C 549.93 757.15 554.07 758.24 554.56 759.89 C 552.73 760.39 550.58 759.40 548.95 758.59 Z" />
</g>
<g id="#2d0710ff">
<path fill="#2d0710" opacity="1.00" d=" M 619.21 428.97 C 619.80 429.04 620.99 429.19 621.58 429.26 C 625.18 432.22 628.44 435.56 631.84 438.75 C 626.10 438.18 622.94 432.68 619.21 428.97 Z" />
</g>
<g id="#051c2eff">
<path fill="#051c2e" opacity="1.00" d=" M 402.01 439.20 C 403.72 436.51 406.82 434.12 410.15 435.65 C 415.28 436.88 417.18 444.49 412.34 447.31 C 407.17 451.38 399.47 445.22 402.01 439.20 Z" />
</g>
<g id="#300711ff">
<path fill="#300711" opacity="1.00" d=" M 320.14 439.96 C 321.57 438.77 323.11 437.72 324.66 436.70 C 322.46 440.39 319.28 443.35 316.18 446.27 C 315.16 447.29 313.67 447.54 312.39 448.06 C 314.86 445.25 317.42 442.52 320.14 439.96 Z" />
</g>
<g id="#ca5459ff">
<path fill="#ca5459" opacity="1.00" d=" M 295.30 447.99 C 299.01 444.39 303.05 441.02 307.77 438.81 L 309.39 439.02 C 304.74 442.08 300.62 446.09 295.30 447.99 Z" />
</g>
<g id="#da4f54ff">
<path fill="#da4f54" opacity="1.00" d=" M 466.29 445.97 C 466.98 446.15 468.38 446.50 469.08 446.67 C 478.98 454.86 487.91 464.18 497.30 472.96 C 497.70 510.04 497.61 547.14 497.39 584.23 C 492.57 584.24 487.74 584.41 482.93 584.16 C 483.68 558.47 483.15 532.77 483.25 507.08 C 483.45 500.23 482.53 493.36 483.53 486.55 C 485.36 490.85 484.11 495.52 484.14 500.01 C 484.15 525.34 483.87 550.67 484.07 575.99 C 484.14 578.12 484.22 580.28 484.69 582.37 C 488.16 583.03 492.10 583.73 495.43 582.36 C 496.50 577.33 495.82 572.13 495.94 567.03 C 496.13 540.01 496.02 513.00 495.72 485.99 C 495.65 482.14 496.23 478.22 495.42 474.43 C 493.36 470.87 489.84 468.48 487.05 465.54 C 480.50 458.63 472.96 452.76 466.29 445.97 Z" />
</g>
<g id="#c25252ff">
<path fill="#c25252" opacity="1.00" d=" M 247.21 447.92 C 249.71 448.38 252.08 449.35 254.15 450.84 C 255.18 450.24 256.21 449.63 257.22 448.99 C 256.18 450.49 255.19 452.02 254.19 453.54 C 251.82 451.72 249.51 449.83 247.21 447.92 Z" />
</g>
<g id="#9e181dff">
<path fill="#9e181d" opacity="1.00" d=" M 525.06 452.30 C 527.75 453.22 530.53 453.77 533.37 454.04 C 536.83 456.47 540.53 458.58 543.63 461.50 C 542.78 461.36 541.08 461.07 540.23 460.93 C 535.48 459.30 529.93 460.09 525.72 457.08 C 526.29 457.04 527.42 456.95 527.99 456.91 C 527.03 455.35 526.06 453.81 525.06 452.30 Z" />
</g>
<g id="#e94f5dff">
<path fill="#e94f5d" opacity="1.00" d=" M 298.04 464.01 C 297.92 460.61 300.71 458.39 303.53 457.16 C 302.91 457.89 302.32 458.67 301.77 459.47 C 297.80 463.56 299.81 469.93 303.60 473.35 C 306.07 475.47 310.06 475.72 312.57 473.53 C 312.88 473.24 313.52 472.67 313.83 472.39 C 318.27 468.60 322.05 464.09 326.72 460.56 C 327.42 485.69 326.82 510.84 326.94 535.98 C 326.95 551.96 327.02 567.94 326.86 583.92 C 306.48 583.85 286.09 584.11 265.71 583.77 C 265.01 574.29 264.52 564.79 263.46 555.34 C 263.41 541.57 263.22 527.79 263.23 514.02 C 272.32 515.62 280.56 520.24 287.54 526.14 C 284.11 526.19 281.66 523.69 278.98 521.97 C 274.83 519.21 270.17 517.37 265.42 515.98 C 265.27 529.32 265.25 542.66 265.36 555.99 C 266.21 564.84 266.33 573.75 267.54 582.57 C 281.33 583.75 295.18 582.79 308.99 583.06 C 314.05 582.85 319.31 583.77 324.22 582.21 C 326.25 574.68 325.08 566.76 325.34 559.06 C 325.33 529.70 325.47 500.33 325.16 470.97 C 325.02 469.42 324.71 467.90 324.42 466.39 C 320.88 468.39 318.02 471.27 315.23 474.17 C 313.08 476.14 310.01 478.54 306.97 477.12 C 301.91 474.90 297.19 469.95 298.04 464.01 Z" />
<path fill="#e94f5d" opacity="1.00" d=" M 515.65 485.03 C 515.63 482.12 516.05 479.23 516.51 476.37 C 519.77 476.94 523.03 477.53 526.31 477.97 C 523.62 477.90 520.86 477.62 518.24 478.32 C 515.93 480.88 516.73 484.80 516.49 487.98 C 516.66 519.19 516.65 550.41 516.57 581.62 L 515.53 580.98 C 515.94 549.00 515.70 517.01 515.65 485.03 Z" />
<path fill="#e94f5d" opacity="1.00" d=" M 673.60 500.46 C 676.78 499.82 680.03 498.94 682.51 496.72 C 682.52 497.39 682.54 498.74 682.55 499.42 C 680.26 500.39 677.91 501.22 675.54 501.94 C 675.06 510.15 675.12 518.37 675.20 526.58 C 675.77 526.59 676.91 526.59 677.49 526.59 C 676.04 529.04 674.75 531.58 673.42 534.09 C 673.68 522.89 673.84 511.67 673.60 500.46 Z" />
</g>
<g id="#621935ff">
<path fill="#621935" opacity="1.00" d=" M 625.91 457.12 C 626.39 457.12 627.34 457.12 627.82 457.12 C 633.09 462.53 639.30 466.91 644.57 472.33 C 647.07 474.86 650.34 476.62 652.25 479.71 C 643.66 479.62 635.32 477.39 626.92 475.89 C 625.61 475.75 624.46 475.21 623.46 474.39 C 629.80 474.09 635.90 476.11 642.16 476.64 C 643.61 476.90 644.94 476.20 646.26 475.71 C 638.88 470.19 632.32 463.72 625.91 457.12 Z" />
</g>
<g id="#430d11ff">
<path fill="#430d11" opacity="1.00" d=" M 651.47 456.70 C 656.15 460.48 660.65 464.50 664.80 468.88 C 662.38 468.43 660.37 467.03 658.67 465.34 C 655.99 462.71 652.38 460.61 651.47 456.70 Z" />
</g>
<g id="#480f15ff">
<path fill="#480f15" opacity="1.00" d=" M 323.52 459.77 C 324.93 459.39 326.40 459.26 327.86 459.06 C 328.89 467.68 328.20 476.38 328.39 485.04 C 328.32 513.36 328.37 541.69 328.37 570.02 C 328.45 574.89 328.58 579.77 328.03 584.62 C 311.36 585.25 294.67 584.71 278.00 584.91 C 273.43 585.13 268.83 585.42 264.28 584.80 C 264.54 574.96 262.01 565.12 263.46 555.34 C 264.52 564.79 265.01 574.29 265.71 583.77 C 286.09 584.11 306.48 583.85 326.86 583.92 C 327.02 567.94 326.95 551.96 326.94 535.98 C 326.82 510.84 327.42 485.69 326.72 460.56 C 322.05 464.09 318.27 468.60 313.83 472.39 C 314.68 469.94 316.36 467.97 318.34 466.37 C 320.59 464.60 321.81 461.98 323.52 459.77 Z" />
</g>
<g id="#3f121bff">
<path fill="#3f121b" opacity="1.00" d=" M 303.60 473.35 C 299.81 469.93 297.80 463.56 301.77 459.47 C 300.10 464.14 301.40 469.65 305.30 472.79 C 307.67 473.41 310.14 473.36 312.57 473.53 C 310.06 475.72 306.07 475.47 303.60 473.35 Z" />
</g>
<g id="#fe403bff">
<path fill="#fe403b" opacity="1.00" d=" M 484.43 467.14 C 485.09 466.74 486.39 465.94 487.05 465.54 C 489.84 468.48 493.36 470.87 495.42 474.43 C 496.23 478.22 495.65 482.14 495.72 485.99 C 496.02 513.00 496.13 540.01 495.94 567.03 C 495.82 572.13 496.50 577.33 495.43 582.36 C 492.10 583.73 488.16 583.03 484.69 582.37 C 484.22 580.28 484.14 578.12 484.07 575.99 C 483.87 550.67 484.15 525.34 484.14 500.01 C 484.11 495.52 485.36 490.85 483.53 486.55 C 482.53 493.36 483.45 500.23 483.25 507.08 C 483.15 532.77 483.68 558.47 482.93 584.16 L 482.54 583.73 C 482.52 551.61 482.54 519.50 482.57 487.39 C 478.88 487.35 475.20 487.40 471.52 487.32 C 475.28 486.78 479.11 486.80 482.85 486.04 C 483.14 482.72 483.20 479.39 483.29 476.07 C 485.85 476.21 488.29 475.40 490.55 474.25 C 488.60 471.81 486.54 469.45 484.43 467.14 Z" />
</g>
<g id="#540d1bff">
<path fill="#540d1b" opacity="1.00" d=" M 572.27 466.14 C 572.78 466.03 573.78 465.81 574.28 465.69 C 579.90 468.16 586.14 468.27 592.15 468.84 C 594.52 469.25 596.88 469.75 599.21 470.40 C 593.69 470.41 588.15 470.25 582.70 469.35 C 577.87 468.55 573.07 467.48 568.15 467.53 C 569.52 467.04 570.87 466.53 572.27 466.14 Z" />
</g>
<g id="#fe4b43ff">
<path fill="#fe4b43" opacity="1.00" d=" M 757.21 472.65 C 763.29 472.26 769.32 473.20 775.35 473.74 C 776.17 476.24 777.08 478.72 777.89 481.24 C 779.79 492.57 781.46 504.04 781.72 515.54 C 778.37 517.17 774.55 516.32 770.98 516.47 C 766.00 516.26 760.89 517.04 756.06 515.51 C 757.33 501.26 757.43 486.95 757.21 472.65 Z" />
</g>
<g id="#421421ff">
<path fill="#421421" opacity="1.00" d=" M 514.30 475.44 C 516.79 474.83 519.42 474.22 521.88 475.33 C 526.97 477.19 532.48 476.93 537.63 478.49 C 541.95 479.67 546.48 479.60 550.85 480.49 C 559.13 482.15 567.67 482.24 575.86 484.39 C 581.36 485.75 587.26 485.76 592.41 488.38 C 584.47 487.69 576.79 485.45 568.91 484.42 C 554.68 482.44 540.50 480.14 526.31 477.97 C 523.03 477.53 519.77 476.94 516.51 476.37 C 516.05 479.23 515.63 482.12 515.65 485.03 C 515.70 517.01 515.94 549.00 515.53 580.98 C 514.95 584.55 518.85 583.61 521.06 583.79 C 567.61 583.60 614.17 584.01 660.72 583.61 C 657.46 575.69 654.00 567.79 648.99 560.80 C 647.32 558.13 645.40 555.63 643.37 553.23 C 647.23 554.02 649.07 557.93 651.21 560.83 C 655.66 568.32 661.31 575.73 662.03 584.72 C 658.68 585.00 655.33 585.23 651.98 585.18 C 609.98 584.76 567.97 584.84 525.97 585.17 C 522.04 585.32 518.09 585.42 514.20 584.77 C 514.55 548.33 514.34 511.88 514.30 475.44 Z" />
</g>
<g id="#d64f56ff">
<path fill="#d64f56" opacity="1.00" d=" M 691.27 489.31 C 690.82 484.13 690.09 477.47 694.81 473.97 C 692.53 479.11 691.59 484.74 692.68 490.31 C 692.33 490.06 691.62 489.56 691.27 489.31 Z" />
</g>
<g id="#977c80ff">
<path fill="#977c80" opacity="1.00" d=" M 775.35 473.74 C 780.88 473.99 786.62 474.72 791.33 477.88 C 786.41 476.66 781.65 474.71 776.53 474.44 C 777.09 476.68 777.64 478.93 777.89 481.24 C 777.08 478.72 776.17 476.24 775.35 473.74 Z" />
</g>
<g id="#e72b2eff">
<path fill="#e72b2e" opacity="1.00" d=" M 454.52 476.60 C 456.62 476.01 458.84 476.07 461.02 476.06 C 468.44 476.16 475.86 475.82 483.29 476.07 C 483.20 479.39 483.14 482.72 482.85 486.04 C 476.82 484.92 469.73 484.72 464.45 488.23 C 465.40 498.48 464.56 508.77 464.75 519.04 C 464.73 535.36 464.69 551.68 464.68 568.00 C 464.60 572.77 465.58 577.68 464.25 582.35 C 460.94 583.59 457.26 583.21 453.79 583.63 C 453.53 579.42 453.83 575.22 454.03 571.03 C 454.13 542.71 453.87 514.39 453.73 486.07 C 453.75 482.90 453.60 479.66 454.52 476.60 Z" />
</g>
<g id="#da2629ff">
<path fill="#da2629" opacity="1.00" d=" M 518.24 478.32 C 520.86 477.62 523.62 477.90 526.31 477.97 C 540.50 480.14 554.68 482.44 568.91 484.42 C 576.79 485.45 584.47 487.69 592.41 488.38 C 602.82 490.05 613.28 491.40 623.70 492.99 C 634.34 495.12 645.08 496.68 655.77 498.53 C 656.00 506.68 655.85 514.85 655.60 523.00 C 652.71 521.72 649.86 520.34 647.06 518.89 C 637.53 513.97 626.53 512.98 615.97 513.42 C 608.03 513.61 599.76 515.55 593.27 520.26 C 588.78 523.64 590.87 531.99 596.64 532.30 C 602.86 533.00 609.11 533.61 615.14 535.38 C 626.24 538.02 635.92 544.72 643.37 553.23 C 645.40 555.63 647.32 558.13 648.99 560.80 C 652.27 568.28 657.00 575.10 659.25 583.05 C 643.87 583.73 628.46 583.15 613.06 583.33 C 583.37 583.29 553.68 583.38 523.99 583.33 C 521.42 583.33 518.69 583.25 516.57 581.62 C 516.65 550.41 516.66 519.19 516.49 487.98 C 516.73 484.80 515.93 480.88 518.24 478.32 Z" />
</g>
<g id="#bc3e43ff">
<path fill="#bc3e43" opacity="1.00" d=" M 464.45 488.23 C 469.73 484.72 476.82 484.92 482.85 486.04 C 479.11 486.80 475.28 486.78 471.52 487.32 C 469.76 487.55 468.02 487.84 466.28 488.14 C 466.29 517.10 466.27 546.07 466.28 575.03 C 466.28 578.04 466.48 581.08 465.99 584.07 C 461.78 584.46 457.49 584.52 453.33 583.66 L 453.79 583.63 C 457.26 583.21 460.94 583.59 464.25 582.35 C 465.58 577.68 464.60 572.77 464.68 568.00 C 464.69 551.68 464.73 535.36 464.75 519.04 C 464.56 508.77 465.40 498.48 464.45 488.23 Z" />
</g>
<g id="#05182cff">
<path fill="#05182c" opacity="1.00" d=" M 375.35 488.30 C 383.22 487.42 391.15 487.85 399.05 487.75 C 411.02 487.81 422.99 487.63 434.97 487.63 C 436.89 487.68 439.47 487.80 440.29 489.93 C 441.71 493.43 441.26 497.32 441.38 501.01 C 441.19 518.36 441.64 535.73 441.12 553.07 C 438.45 553.54 435.76 553.90 433.05 553.92 C 419.01 553.97 404.97 553.95 390.94 553.86 C 385.78 553.75 380.60 554.42 375.48 553.60 C 375.23 551.40 374.99 549.20 375.02 547.00 C 375.55 527.44 374.73 507.86 375.35 488.30 Z" />
</g>
<g id="#47111dff">
<path fill="#47111d" opacity="1.00" d=" M 623.70 492.99 C 629.89 492.60 635.96 494.02 642.01 495.05 C 646.95 495.56 651.82 496.45 656.66 497.55 C 657.22 506.35 656.73 515.17 656.61 523.98 C 654.58 523.65 652.52 523.32 650.72 522.30 C 640.50 516.62 628.63 513.82 616.96 514.65 C 608.56 514.96 599.65 516.70 593.15 522.39 C 591.11 525.23 592.64 529.87 596.08 530.94 C 602.30 532.61 610.02 530.81 615.14 535.38 C 609.11 533.61 602.86 533.00 596.64 532.30 C 590.87 531.99 588.78 523.64 593.27 520.26 C 599.76 515.55 608.03 513.61 615.97 513.42 C 626.53 512.98 637.53 513.97 647.06 518.89 C 649.86 520.34 652.71 521.72 655.60 523.00 C 655.85 514.85 656.00 506.68 655.77 498.53 C 645.08 496.68 634.34 495.12 623.70 492.99 Z" />
</g>
<g id="#ff4335ff">
<path fill="#ff4335" opacity="1.00" d=" M 684.87 499.46 C 688.19 498.88 691.54 498.50 694.90 498.27 C 695.64 498.79 696.39 499.31 697.15 499.83 C 699.60 499.45 702.20 499.10 704.41 500.52 C 701.42 500.85 698.37 500.76 695.44 501.45 C 693.22 502.47 691.63 504.43 689.90 506.09 C 691.26 506.15 692.64 506.19 694.02 506.22 C 689.54 509.82 685.51 514.00 682.47 518.89 C 680.72 521.40 679.05 523.96 677.49 526.59 C 676.91 526.59 675.77 526.59 675.20 526.58 C 675.12 518.37 675.06 510.15 675.54 501.94 C 677.91 501.22 680.26 500.39 682.55 499.42 C 683.31 499.42 684.09 499.44 684.87 499.46 Z" />
</g>
<g id="#280511ff">
<path fill="#280511" opacity="1.00" d=" M 262.37 513.86 C 263.21 518.53 262.86 523.28 262.90 527.99 C 262.95 536.73 263.05 545.49 262.35 554.21 C 261.30 545.53 261.74 536.75 261.67 528.03 C 261.75 523.30 261.21 518.50 262.37 513.86 Z" />
</g>
<g id="#c24e53ff">
<path fill="#c24e53" opacity="1.00" d=" M 688.52 577.27 C 690.37 570.61 692.43 564.00 694.99 557.58 C 694.73 560.81 694.26 564.04 693.17 567.11 C 691.90 570.60 691.57 574.75 688.52 577.27 Z" />
</g>
<g id="#4d849eff">
<path fill="#4d849e" opacity="1.00" d=" M 220.43 602.18 C 256.28 602.37 292.14 602.22 327.99 602.16 C 379.31 601.96 430.63 602.45 481.96 602.00 C 566.95 602.21 651.93 601.96 736.92 602.13 C 756.27 602.15 775.64 602.46 794.99 601.95 C 797.01 604.12 799.52 606.11 800.50 609.03 C 801.26 612.78 801.16 617.39 797.97 620.05 C 791.72 625.58 782.89 625.26 775.11 626.01 C 761.90 626.77 748.03 627.70 736.16 634.11 C 730.90 637.22 732.07 644.50 735.55 648.54 C 737.28 648.69 739.02 648.84 740.77 648.96 C 736.82 649.78 732.82 650.51 729.13 652.20 C 723.11 654.91 716.56 656.60 711.16 660.53 C 707.27 658.66 703.01 657.91 698.79 657.26 C 679.24 653.32 658.70 655.07 639.90 661.56 C 634.04 663.55 628.19 665.60 622.20 667.20 C 620.12 667.88 617.68 668.44 616.50 670.49 C 614.98 673.11 614.76 676.82 616.81 679.24 C 618.05 680.57 619.61 681.55 621.06 682.65 C 605.30 688.79 590.91 697.88 577.73 708.42 C 577.67 708.74 577.54 709.38 577.47 709.70 C 569.74 712.50 562.66 718.23 554.08 717.65 C 507.01 717.63 459.94 717.84 412.88 717.50 L 411.78 716.77 C 407.57 713.59 402.18 712.38 398.35 708.65 C 398.22 706.70 400.42 705.84 401.50 704.52 C 401.38 702.37 401.82 700.05 400.72 698.11 C 398.19 693.22 393.41 690.21 389.53 686.53 C 381.34 679.32 372.11 673.23 361.95 669.17 C 362.40 669.03 363.30 668.75 363.75 668.61 C 359.88 668.66 356.04 667.23 352.64 665.58 C 352.42 665.07 352.00 664.06 351.78 663.56 C 358.21 664.11 364.28 666.49 370.28 668.71 C 389.66 675.66 405.88 689.36 425.65 695.43 C 444.58 701.84 465.38 702.83 484.75 697.85 C 490.03 696.09 495.80 694.87 500.05 691.06 C 516.47 692.30 533.44 690.06 548.46 683.10 C 553.47 680.46 559.25 677.04 560.30 670.96 C 561.61 665.46 557.71 659.14 552.03 658.35 C 545.67 657.59 539.69 660.35 533.71 662.06 C 522.23 665.87 509.95 665.92 497.99 665.54 C 481.76 664.19 466.12 658.58 451.74 651.11 C 436.58 642.85 422.35 632.73 406.18 626.47 C 379.15 616.53 348.63 620.06 322.78 631.87 C 319.86 633.28 316.15 635.21 316.23 638.98 C 315.60 642.74 319.11 645.04 321.39 647.38 C 310.58 652.45 299.64 657.46 289.78 664.28 C 290.64 666.07 291.51 667.85 292.39 669.64 C 292.85 669.76 293.78 670.01 294.25 670.13 L 294.93 670.32 C 285.84 674.39 277.10 679.38 267.46 682.13 C 256.06 685.42 243.90 687.85 232.08 685.45 C 227.23 684.36 222.00 682.45 219.31 677.97 C 215.39 672.26 217.21 663.73 222.95 659.93 C 231.15 654.43 241.47 654.51 250.94 653.63 C 258.79 652.75 267.08 652.83 274.34 649.32 C 281.34 645.84 282.41 635.37 277.06 629.99 C 274.44 627.15 270.38 626.61 266.73 626.35 C 260.83 626.20 254.92 626.27 249.02 626.22 C 241.55 626.11 233.96 626.70 226.61 625.06 C 221.72 623.49 217.76 619.03 216.81 613.99 C 216.10 609.69 218.40 605.77 220.43 602.18 M 567.08 617.88 C 537.72 617.88 508.36 617.89 479.01 617.95 C 476.47 618.18 473.46 617.45 471.48 619.49 C 468.66 619.73 465.05 619.81 463.88 622.95 C 460.92 627.46 464.34 633.77 469.50 634.44 C 469.08 634.71 468.25 635.26 467.83 635.53 C 496.19 636.31 524.58 635.95 552.96 636.03 C 566.07 635.87 579.20 636.29 592.31 635.67 L 591.25 634.37 C 595.47 633.90 600.08 634.85 604.02 633.03 C 609.26 629.74 607.19 621.33 601.79 619.43 C 604.14 619.72 602.30 616.72 601.08 617.30 C 589.79 618.38 578.41 617.69 567.08 617.88 M 651.48 619.66 C 649.35 619.69 647.28 620.38 646.26 622.39 C 642.66 626.49 645.42 634.30 651.09 634.45 C 665.41 634.66 679.73 634.32 694.05 634.30 C 697.28 634.08 701.36 634.43 703.33 631.28 C 706.60 626.62 702.80 619.25 697.06 619.41 C 681.87 619.00 666.66 619.30 651.48 619.66 Z" />
<path fill="#4d849e" opacity="1.00" d=" M 724.72 763.55 C 723.29 763.20 723.11 760.46 724.71 760.34 C 725.51 761.40 725.52 762.47 724.72 763.55 Z" />
</g>
<g id="#648ba2ff">
<path fill="#648ba2" opacity="1.00" d=" M 567.08 617.88 C 578.41 617.69 589.79 618.38 601.08 617.30 C 602.30 616.72 604.14 619.72 601.79 619.43 C 577.86 619.13 553.92 619.31 529.99 619.26 C 510.49 619.38 490.98 619.09 471.48 619.49 C 473.46 617.45 476.47 618.18 479.01 617.95 C 508.36 617.89 537.72 617.88 567.08 617.88 Z" />
</g>
<g id="#07182cff">
<path fill="#07182c" opacity="1.00" d=" M 463.88 622.95 C 465.05 619.81 468.66 619.73 471.48 619.49 C 490.98 619.09 510.49 619.38 529.99 619.26 C 553.92 619.31 577.86 619.13 601.79 619.43 C 607.19 621.33 609.26 629.74 604.02 633.03 C 600.08 634.85 595.47 633.90 591.25 634.37 C 550.67 634.69 510.08 634.55 469.50 634.44 C 464.34 633.77 460.92 627.46 463.88 622.95 Z" />
</g>
<g id="#07182dff">
<path fill="#07182d" opacity="1.00" d=" M 651.48 619.66 C 666.66 619.30 681.87 619.00 697.06 619.41 C 702.80 619.25 706.60 626.62 703.33 631.28 C 701.36 634.43 697.28 634.08 694.05 634.30 C 679.73 634.32 665.41 634.66 651.09 634.45 C 645.42 634.30 642.66 626.49 646.26 622.39 C 647.28 620.38 649.35 619.69 651.48 619.66 Z" />
</g>
<g id="#6892a8ff">
<path fill="#6892a8" opacity="1.00" d=" M 467.83 635.53 C 468.25 635.26 469.08 634.71 469.50 634.44 C 510.08 634.55 550.67 634.69 591.25 634.37 L 592.31 635.67 C 579.20 636.29 566.07 635.87 552.96 636.03 C 524.58 635.95 496.19 636.31 467.83 635.53 Z" />
</g>
<g id="#06172bff">
<path fill="#06172b" opacity="1.00" d=" M 740.77 648.96 C 749.06 647.17 757.50 645.32 766.04 646.10 C 775.43 645.80 785.08 647.91 792.97 653.16 C 797.82 656.53 801.08 662.13 801.50 668.03 C 801.80 673.86 798.17 679.35 793.23 682.21 C 787.67 685.05 781.15 686.29 775.00 684.90 C 772.99 684.59 770.98 684.37 769.01 683.90 C 767.64 683.55 766.30 683.24 764.96 682.87 C 763.91 682.63 762.88 682.39 761.86 682.17 C 744.26 676.66 728.36 667.06 711.16 660.53 C 716.56 656.60 723.11 654.91 729.13 652.20 C 732.82 650.51 736.82 649.78 740.77 648.96 Z" />
<path fill="#06172b" opacity="1.00" d=" M 645.00 676.92 C 662.66 674.20 681.28 674.53 698.07 681.23 C 719.10 689.40 738.16 703.32 761.04 706.16 C 764.63 706.22 769.24 708.83 768.59 712.97 C 767.66 716.04 764.05 717.59 761.04 717.47 C 743.00 717.62 724.97 717.54 706.94 717.49 C 703.09 717.66 699.40 716.52 695.84 715.23 C 685.65 710.28 675.76 704.71 665.08 700.82 C 664.06 700.48 663.07 700.13 662.08 699.77 C 653.59 697.44 644.78 696.39 635.99 696.43 C 623.14 696.02 610.18 697.68 598.01 701.89 C 591.08 704.26 583.98 706.27 577.47 709.70 C 577.54 709.38 577.67 708.74 577.73 708.42 C 590.91 697.88 605.30 688.79 621.06 682.65 C 629.01 680.61 636.91 678.38 645.00 676.92 Z" />
<path fill="#06172b" opacity="1.00" d=" M 299.04 687.23 C 312.81 682.52 327.79 681.10 342.05 684.32 C 355.30 686.81 367.41 693.14 378.73 700.24 C 384.95 703.68 390.96 708.31 398.35 708.65 C 402.18 712.38 407.57 713.59 411.78 716.77 C 396.53 716.07 381.24 716.83 365.98 716.65 C 332.67 716.53 299.35 716.59 266.04 716.57 C 262.21 716.44 258.16 716.94 254.53 715.46 C 251.85 714.26 252.70 710.99 253.19 708.76 C 253.25 708.50 253.37 707.99 253.43 707.73 C 270.15 704.54 283.03 692.30 299.04 687.23 Z" />
</g>
<g id="#5a5f64ff">
<path fill="#5a5f64" opacity="1.00" d=" M 254.42 716.67 C 251.37 715.31 250.15 710.80 253.19 708.76 C 252.70 710.99 251.85 714.26 254.53 715.46 C 258.16 716.94 262.21 716.44 266.04 716.57 C 299.35 716.59 332.67 716.53 365.98 716.65 C 381.24 716.83 396.53 716.07 411.78 716.77 L 412.88 717.50 C 363.60 718.21 314.31 717.58 265.03 717.84 C 261.52 717.60 257.67 718.26 254.42 716.67 Z" />
</g>
<g id="#ed1c24ff">
<path fill="#ed1c24" opacity="1.00" d=" M 320.06 743.27 C 324.91 741.77 329.96 740.44 335.08 741.10 C 338.66 741.32 341.54 743.73 344.14 745.97 C 344.37 749.53 341.97 752.52 339.49 754.77 C 339.90 753.47 340.35 752.21 340.82 750.94 C 339.78 751.84 338.71 752.68 337.65 753.57 C 338.30 754.01 338.96 754.47 339.61 754.94 C 337.69 755.65 335.81 756.45 333.92 757.21 L 333.88 755.83 C 335.24 756.03 336.44 755.64 337.49 754.67 C 336.42 753.59 334.80 754.41 333.85 755.21 C 333.64 755.35 333.21 755.64 332.99 755.79 C 332.54 755.88 331.64 756.07 331.19 756.16 C 331.12 756.58 330.99 757.42 330.92 757.84 C 331.06 758.96 331.20 760.09 331.35 761.23 C 331.97 761.52 333.21 762.12 333.82 762.42 L 334.90 763.42 C 334.13 763.49 332.60 763.63 331.83 763.70 C 333.41 764.45 335.57 764.55 335.91 766.81 C 335.20 766.64 333.78 766.30 333.08 766.14 C 333.91 766.77 334.48 767.59 334.79 768.59 L 335.97 768.29 C 335.81 769.00 335.50 770.43 335.35 771.15 C 332.76 772.47 330.00 773.43 327.49 774.89 C 328.91 774.69 330.31 774.25 331.76 774.31 C 330.90 775.05 329.88 775.59 328.93 776.23 C 328.12 775.66 327.30 775.09 326.50 774.53 C 327.51 768.75 328.04 762.85 327.34 757.00 C 325.16 757.45 322.82 757.64 321.07 759.20 C 322.82 759.26 324.58 759.31 326.33 759.39 C 325.58 759.62 324.08 760.08 323.33 760.31 C 322.45 762.90 321.43 765.45 320.74 768.11 C 320.90 769.92 322.46 771.28 323.10 772.98 C 318.56 772.60 313.69 773.92 309.38 772.22 C 313.08 771.80 316.80 772.16 320.51 771.92 C 320.58 771.76 320.71 771.44 320.77 771.28 C 317.04 770.57 313.19 771.20 309.41 771.00 C 313.26 769.08 314.21 764.90 315.30 761.13 C 314.68 761.00 313.44 760.75 312.82 760.62 C 314.05 760.14 315.27 759.67 316.50 759.21 C 315.57 759.17 313.72 759.08 312.79 759.03 C 313.10 758.50 313.72 757.42 314.03 756.89 C 314.76 756.87 316.21 756.84 316.94 756.82 C 317.98 752.35 321.63 747.94 320.06 743.27 M 327.29 743.06 C 327.02 743.78 326.74 744.51 326.47 745.25 C 327.04 745.26 328.18 745.29 328.75 745.31 C 328.26 747.00 327.11 747.85 325.31 747.87 C 325.28 748.01 325.22 748.29 325.19 748.43 C 325.82 748.43 327.10 748.45 327.73 748.45 C 327.17 750.01 326.04 750.81 324.33 750.86 C 324.30 751.01 324.25 751.31 324.22 751.45 C 324.84 751.45 326.09 751.43 326.72 751.43 C 326.18 753.13 324.98 753.90 323.11 753.73 C 324.05 754.32 325.01 754.82 326.00 755.39 C 329.66 754.61 333.83 753.30 335.60 749.67 C 337.03 748.16 335.97 745.73 333.71 745.95 C 334.14 745.39 334.58 744.83 335.02 744.29 C 332.70 742.78 329.94 742.89 327.29 743.06 Z" />
<path fill="#ed1c24" opacity="1.00" d=" M 350.14 741.00 C 358.43 741.01 366.72 740.96 375.00 741.03 C 375.53 741.52 376.07 742.02 376.61 742.53 C 374.40 744.52 372.30 746.64 370.29 748.84 C 367.30 746.14 363.79 743.75 359.54 745.30 C 359.67 744.93 359.93 744.19 360.06 743.82 C 362.00 743.93 363.97 744.00 365.93 744.06 L 365.97 743.14 C 363.60 743.02 361.22 742.97 358.85 742.94 C 358.17 744.12 357.48 745.29 356.81 746.49 C 357.62 746.45 359.23 746.36 360.04 746.31 C 359.68 748.62 357.39 748.72 355.76 749.52 C 356.57 749.46 358.19 749.32 358.99 749.26 C 358.39 751.37 356.21 751.66 354.54 752.42 C 355.31 752.37 356.84 752.27 357.61 752.22 L 357.06 754.14 C 361.11 754.78 363.06 750.53 366.63 749.57 C 366.98 751.22 366.45 752.36 365.03 753.00 L 366.62 752.91 C 366.00 753.74 365.39 754.57 364.78 755.42 C 365.41 756.96 364.22 757.87 363.15 758.75 L 364.98 758.62 C 364.49 759.16 363.53 760.25 363.04 760.79 C 361.99 759.91 361.05 758.93 359.99 758.10 C 358.03 757.82 356.06 758.19 354.12 758.35 L 354.20 757.04 C 356.10 756.99 358.01 756.98 359.92 756.94 L 359.93 755.99 C 357.98 755.99 356.04 756.01 354.10 756.05 C 353.78 756.93 353.46 757.81 353.14 758.69 C 353.77 758.70 355.02 758.72 355.65 758.73 C 355.10 760.26 353.96 760.94 352.23 760.76 C 352.21 760.97 352.19 761.38 352.18 761.59 C 352.86 761.51 354.22 761.34 354.90 761.26 C 354.38 763.07 353.16 763.90 351.25 763.76 C 351.20 763.99 351.08 764.44 351.03 764.66 C 351.74 764.55 353.17 764.34 353.89 764.23 C 353.43 766.43 351.18 766.66 349.53 767.44 C 350.30 767.38 351.84 767.26 352.62 767.21 L 352.06 769.12 C 355.80 769.00 359.90 768.50 362.36 765.33 C 363.67 763.17 366.79 763.18 368.01 765.62 L 365.01 765.25 C 365.40 767.00 365.75 768.71 366.10 770.49 C 367.06 769.13 368.69 767.34 366.04 765.81 C 368.25 766.49 368.75 769.02 369.97 770.70 C 373.49 769.51 375.57 766.33 376.56 762.92 C 378.70 756.41 380.97 749.94 383.14 743.45 C 382.40 742.66 381.66 741.87 380.93 741.08 C 385.92 740.82 390.91 741.02 395.87 741.59 C 394.75 742.19 393.64 742.79 392.54 743.43 C 392.44 743.81 392.25 744.58 392.15 744.96 C 391.49 745.89 390.86 746.84 390.26 747.82 C 390.29 748.73 390.32 749.65 390.36 750.58 C 391.29 750.28 392.24 749.98 393.18 749.70 C 393.19 750.23 393.19 751.30 393.19 751.84 C 392.71 752.29 391.75 753.21 391.27 753.67 C 391.28 754.13 391.28 755.04 391.28 755.50 C 392.01 755.67 393.45 756.02 394.17 756.20 C 394.42 757.68 393.85 758.63 392.47 759.04 C 392.69 760.07 392.94 761.15 393.12 762.21 C 393.22 761.46 393.43 759.96 393.53 759.21 C 396.03 757.20 396.25 753.77 397.40 750.99 C 398.33 747.74 400.77 743.60 397.38 740.95 C 400.77 741.02 404.15 740.99 407.54 741.00 C 403.68 741.64 406.91 742.89 407.83 743.71 C 405.76 744.17 404.36 745.69 403.54 747.59 C 402.90 747.51 401.61 747.35 400.96 747.27 C 401.95 747.82 402.94 748.38 403.94 748.94 L 403.00 749.23 C 402.30 749.45 400.92 749.90 400.23 750.12 C 399.32 752.72 398.55 755.40 398.74 758.19 C 398.26 758.41 397.29 758.86 396.81 759.09 C 397.19 759.52 397.96 760.39 398.34 760.83 C 397.47 761.35 396.61 761.89 395.75 762.43 C 396.40 762.84 397.71 763.66 398.36 764.07 C 397.15 764.51 395.95 764.97 394.76 765.44 C 395.55 765.42 397.14 765.38 397.93 765.37 C 397.38 767.39 395.30 767.71 393.74 768.55 C 394.47 768.46 395.93 768.30 396.66 768.21 C 396.06 769.78 395.50 771.40 394.94 772.99 C 392.97 772.99 391.01 772.99 389.05 773.00 L 389.01 772.14 C 391.08 771.90 393.46 772.33 395.16 770.83 C 393.02 770.86 390.90 770.97 388.77 771.08 C 387.51 764.99 386.66 758.84 385.47 752.74 C 384.26 752.99 383.03 753.17 381.82 753.38 C 382.64 753.38 384.28 753.38 385.10 753.38 C 384.23 755.03 382.68 755.94 381.05 756.67 C 381.79 756.59 383.28 756.43 384.02 756.35 C 383.19 758.09 381.64 759.10 379.95 759.84 C 380.69 759.71 382.18 759.45 382.93 759.32 C 382.62 761.44 380.59 761.79 379.06 762.52 C 379.80 762.49 381.29 762.43 382.03 762.39 C 381.66 762.80 380.92 763.62 380.54 764.03 C 379.66 765.15 377.95 766.14 378.51 767.85 C 379.09 768.77 379.86 769.54 380.61 770.34 C 381.45 771.19 382.31 772.03 383.16 772.88 C 378.32 772.69 373.16 773.89 368.55 772.17 C 372.71 771.44 377.20 772.92 381.17 771.21 C 377.74 770.91 374.31 770.94 370.88 770.95 C 369.41 770.64 368.69 772.19 367.71 772.95 C 358.67 772.90 349.59 773.33 340.57 772.71 C 341.12 772.55 342.23 772.23 342.78 772.06 C 350.55 771.77 358.35 772.26 366.12 771.88 L 368.12 771.14 C 358.84 770.76 349.54 771.15 340.26 770.95 C 341.68 769.84 343.46 769.09 344.55 767.62 C 345.82 764.76 346.63 761.72 347.56 758.75 C 346.34 757.30 348.20 756.77 348.96 755.97 C 348.33 756.04 347.06 756.18 346.42 756.25 C 346.45 757.03 346.49 758.60 346.51 759.39 C 345.27 758.84 344.14 758.19 343.11 757.35 C 344.89 755.53 347.05 754.15 349.56 753.57 C 350.59 750.31 351.67 747.08 352.74 743.84 C 351.87 742.89 351.00 741.94 350.14 741.00 M 389.53 744.44 C 390.75 745.36 392.38 743.28 391.71 742.16 C 390.48 741.43 388.62 743.22 389.53 744.44 M 404.77 743.36 C 404.97 743.67 404.97 743.67 404.77 743.36 M 383.25 750.07 C 383.37 753.39 386.24 748.54 383.25 750.07 Z" />
<path fill="#ed1c24" opacity="1.00" d=" M 408.87 741.00 C 417.60 741.02 426.33 740.97 435.07 741.00 C 436.46 740.82 437.62 741.76 438.85 742.26 C 436.16 744.77 434.57 748.36 431.39 750.34 C 431.53 749.82 431.81 748.77 431.95 748.25 C 431.69 747.71 431.18 746.62 430.92 746.08 C 429.37 745.60 427.80 745.19 426.23 744.86 C 424.22 751.43 421.78 757.87 419.87 764.48 C 419.45 764.60 418.61 764.85 418.19 764.97 C 418.62 765.15 419.50 765.51 419.94 765.69 C 419.12 766.63 418.31 767.59 417.50 768.55 C 417.79 768.50 418.37 768.41 418.66 768.36 C 419.30 769.86 419.99 771.38 420.68 772.89 C 416.04 772.97 411.37 773.28 406.75 772.69 C 410.50 771.34 414.58 772.23 418.48 772.00 L 418.45 771.00 C 414.69 771.00 410.92 771.00 407.16 770.95 C 408.74 769.68 411.07 768.93 411.63 766.77 C 414.31 759.52 416.64 752.15 419.06 744.82 C 415.97 744.61 413.50 746.30 412.05 748.92 C 411.22 748.47 410.40 748.04 409.59 747.62 C 409.43 745.40 409.17 743.19 408.87 741.00 M 412.60 744.82 C 415.18 744.42 417.75 744.01 420.31 743.54 C 417.69 742.45 414.78 743.10 412.60 744.82 M 425.22 743.33 C 425.48 744.72 429.27 744.60 429.66 743.32 C 428.36 742.57 426.51 742.57 425.22 743.33 Z" />
<path fill="#ed1c24" opacity="1.00" d=" M 453.37 741.02 C 457.56 741.44 462.44 739.75 466.08 742.46 C 465.12 743.07 464.11 743.49 463.05 743.75 C 462.78 743.60 462.24 743.31 461.97 743.17 C 461.15 743.63 460.89 744.63 460.36 745.38 C 460.95 745.41 462.14 745.47 462.73 745.50 C 462.06 747.04 460.84 747.88 459.09 748.05 C 459.95 748.13 460.81 748.34 461.69 748.67 C 461.07 750.02 459.99 750.77 458.45 750.90 C 458.44 750.98 458.41 751.14 458.40 751.22 C 459.01 751.27 460.23 751.39 460.84 751.44 C 459.66 752.54 458.45 753.64 457.17 754.63 C 457.61 754.42 458.48 753.99 458.92 753.78 C 461.60 753.98 464.30 754.02 466.99 753.97 C 468.19 750.56 469.31 747.12 470.52 743.71 C 469.88 742.80 469.25 741.90 468.62 741.00 C 472.10 740.99 475.59 740.99 479.08 741.02 C 479.51 741.35 480.38 742.03 480.82 742.36 C 479.73 743.12 478.64 743.87 477.56 744.64 C 475.67 748.69 475.71 754.02 472.11 757.00 L 473.84 756.61 C 473.49 758.28 472.56 759.34 471.04 759.80 C 471.41 759.84 472.14 759.91 472.50 759.95 C 471.41 763.15 469.54 766.25 469.81 769.75 L 469.80 770.92 C 465.96 771.03 462.12 771.00 458.29 770.99 C 463.13 768.86 463.59 763.39 465.20 759.01 C 461.75 758.93 458.30 759.07 454.88 759.44 C 455.62 759.54 457.11 759.75 457.85 759.85 C 457.10 761.54 455.86 762.65 453.95 762.65 C 454.70 762.66 456.20 762.68 456.95 762.70 C 456.17 764.46 454.95 765.71 452.91 765.61 C 453.68 765.65 455.23 765.71 456.00 765.74 C 455.23 767.38 453.76 768.18 452.07 768.55 C 454.12 768.16 455.52 768.89 455.89 771.12 C 451.73 770.88 447.57 771.02 443.42 771.00 C 448.68 768.38 448.96 762.00 450.81 757.09 C 450.51 757.06 449.92 757.01 449.63 756.98 C 449.17 757.75 448.24 759.29 447.78 760.06 C 447.40 759.48 446.64 758.32 446.26 757.74 C 447.88 756.30 449.72 755.12 451.80 754.45 C 453.09 750.97 454.22 747.42 455.40 743.90 C 454.72 742.93 454.04 741.97 453.37 741.02 M 455.53 757.29 C 458.94 758.50 463.07 758.55 466.47 757.26 C 462.83 756.84 459.15 756.82 455.53 757.29 Z" />
<path fill="#ed1c24" opacity="1.00" d=" M 477.78 764.02 C 477.12 754.39 483.46 744.03 493.03 741.46 C 496.27 740.86 500.15 740.28 502.97 742.44 C 503.90 743.58 504.74 744.77 505.60 745.97 C 506.13 745.77 507.18 745.35 507.71 745.14 C 507.75 745.41 507.85 745.94 507.89 746.20 C 504.94 747.40 506.24 750.87 505.93 753.31 C 506.48 753.16 507.58 752.87 508.13 752.72 L 508.12 754.36 C 506.96 754.66 505.81 755.01 504.68 755.40 C 505.46 755.35 507.01 755.26 507.78 755.21 C 507.58 755.80 507.17 756.97 506.97 757.55 C 505.80 757.61 504.66 757.90 503.61 758.43 C 504.42 758.39 506.04 758.33 506.85 758.29 C 504.46 762.84 501.59 767.40 497.10 770.15 C 492.46 773.11 486.12 774.28 481.15 771.47 C 481.56 771.28 482.38 770.91 482.79 770.72 C 480.81 768.86 477.88 767.24 477.78 764.02 M 485.90 753.14 C 486.52 753.19 487.75 753.31 488.36 753.36 C 487.98 754.21 487.20 755.91 486.82 756.76 C 486.17 756.70 484.88 756.60 484.23 756.54 C 484.19 756.84 484.12 757.43 484.08 757.73 C 484.73 757.56 486.04 757.22 486.69 757.05 C 485.57 760.53 484.64 764.31 485.76 767.94 C 487.89 770.48 491.49 768.05 493.34 766.31 C 498.27 760.94 500.70 753.46 501.00 746.26 C 498.90 745.76 496.58 744.25 494.48 745.51 C 492.37 746.55 490.84 748.45 489.80 750.52 L 487.66 750.75 C 489.45 748.30 491.11 745.14 494.32 744.37 C 496.18 743.97 498.08 743.84 499.96 743.52 C 498.00 743.08 495.86 742.49 493.99 743.53 C 489.81 745.15 487.89 749.46 485.90 753.14 M 491.76 770.97 C 493.61 771.51 495.79 770.13 496.89 768.67 C 495.83 767.78 492.02 769.54 491.76 770.97 M 484.26 771.29 C 485.12 772.89 488.53 771.98 490.17 771.67 L 490.18 771.33 C 488.35 770.82 485.97 770.50 484.26 771.29 Z" />
<path fill="#ed1c24" opacity="1.00" d=" M 514.63 741.00 C 518.81 741.25 523.29 740.17 527.21 742.09 C 525.83 743.45 524.17 744.43 522.48 745.34 L 522.45 745.76 C 522.67 746.45 523.12 747.81 523.35 748.50 C 522.83 748.47 521.80 748.42 521.29 748.39 C 521.54 749.14 522.04 750.64 522.30 751.39 C 521.17 751.40 520.06 751.42 518.95 751.46 C 519.60 751.57 520.92 751.81 521.58 751.93 C 521.45 754.13 520.06 754.79 518.03 754.51 C 518.70 754.63 520.03 754.87 520.69 754.99 C 520.08 756.75 518.88 757.75 516.96 757.52 C 517.69 757.59 519.14 757.74 519.87 757.82 C 519.11 759.47 517.90 760.61 516.02 760.71 C 516.69 760.67 518.03 760.60 518.70 760.57 C 518.40 761.32 517.80 762.83 517.49 763.58 C 516.64 763.73 515.80 763.90 514.96 764.08 C 515.55 764.10 516.73 764.13 517.32 764.14 C 517.43 765.41 517.66 767.95 517.78 769.22 C 517.00 768.68 515.45 767.60 514.67 767.06 C 516.91 772.32 524.73 769.93 526.47 765.44 C 529.56 758.57 531.78 751.33 534.07 744.17 C 533.26 743.12 532.45 742.08 531.66 741.05 C 534.49 741.00 537.33 740.89 540.16 741.03 C 541.24 740.82 542.10 741.59 542.60 742.47 C 540.86 743.68 538.78 746.69 536.86 744.12 C 538.51 745.67 538.48 747.59 536.42 748.70 L 537.94 748.54 C 537.19 749.51 536.51 750.58 535.81 751.61 C 536.11 752.72 535.47 753.65 534.84 754.51 C 535.09 755.73 534.43 756.71 533.69 757.62 C 533.98 757.64 534.57 757.68 534.87 757.70 C 534.37 758.27 533.36 759.42 532.86 759.99 C 532.71 764.85 529.92 770.14 525.14 771.86 C 520.82 773.67 515.93 773.23 511.54 771.93 C 509.88 768.78 509.35 765.25 510.72 761.89 C 512.65 755.90 514.75 749.97 516.72 744.00 C 516.01 742.99 515.32 741.99 514.63 741.00 Z" />
<path fill="#ed1c24" opacity="1.00" d=" M 547.37 743.32 C 551.47 740.39 556.82 740.65 561.53 741.62 C 563.23 742.05 564.96 741.83 566.64 741.38 C 567.16 741.60 568.21 742.06 568.74 742.29 C 566.24 744.70 564.24 747.56 562.02 750.23 C 560.70 749.22 559.95 747.80 559.46 746.27 C 558.31 745.33 557.14 744.39 555.99 743.47 C 554.26 744.19 552.28 744.70 551.05 746.23 C 549.53 747.57 551.03 749.61 551.59 751.05 C 550.25 750.30 548.90 749.56 547.54 748.90 C 549.65 755.16 558.19 752.58 561.85 757.40 C 562.45 757.48 563.63 757.64 564.22 757.72 C 564.22 759.72 564.15 761.71 564.08 763.72 C 563.03 763.36 561.98 763.00 560.95 762.64 C 561.78 763.12 562.62 763.60 563.46 764.10 C 560.52 769.22 554.93 772.67 549.04 773.00 C 544.08 773.39 539.26 771.65 534.30 772.05 L 534.25 770.97 C 536.30 770.98 538.37 770.94 540.41 770.65 C 538.15 769.71 535.70 770.08 533.36 770.35 C 535.93 767.87 537.82 764.76 540.45 762.36 C 541.50 762.49 542.42 763.09 543.42 763.48 C 543.47 765.74 544.36 767.84 545.18 769.92 C 550.03 770.76 555.31 768.59 556.98 763.70 C 553.08 759.37 546.72 760.09 542.13 756.95 C 542.29 756.51 542.60 755.64 542.76 755.20 C 541.06 750.72 543.44 745.73 547.37 743.32 M 544.25 756.29 C 543.82 757.82 547.53 759.24 547.74 757.42 C 546.96 756.47 545.42 755.90 544.25 756.29 M 548.95 758.59 C 550.58 759.40 552.73 760.39 554.56 759.89 C 554.07 758.24 549.93 757.15 548.95 758.59 Z" />
<path fill="#ed1c24" opacity="1.00" d=" M 573.19 741.00 C 581.46 741.01 589.73 740.96 598.00 741.03 C 598.52 741.51 599.06 742.00 599.60 742.50 C 597.83 744.13 596.23 745.96 594.34 747.46 C 592.40 748.65 590.72 746.73 589.18 745.81 C 587.40 744.25 584.81 745.31 582.74 745.20 C 582.81 744.86 582.94 744.18 583.01 743.84 C 584.98 743.94 586.98 744.01 588.96 744.07 L 588.95 743.15 C 586.57 743.03 584.19 742.97 581.81 742.95 C 581.15 744.13 580.47 745.31 579.82 746.52 C 580.62 746.46 582.22 746.34 583.02 746.28 C 582.70 748.64 580.35 748.72 578.71 749.55 C 579.53 749.47 581.16 749.32 581.98 749.24 C 581.37 751.30 579.26 751.76 577.54 752.37 C 578.27 752.35 579.73 752.31 580.47 752.28 L 580.14 754.13 C 584.15 754.74 586.09 750.50 589.64 749.57 C 589.79 750.77 589.52 751.82 588.83 752.71 C 589.14 753.89 588.31 754.71 587.61 755.53 C 587.79 755.91 588.16 756.67 588.34 757.05 C 587.60 757.54 586.86 758.03 586.12 758.54 L 587.91 758.73 C 587.44 759.24 586.49 760.26 586.02 760.77 C 584.97 759.89 584.04 758.92 582.98 758.10 C 581.05 757.80 579.10 758.19 577.19 758.37 L 577.18 757.04 C 579.30 757.00 581.43 757.00 583.55 756.79 C 581.62 755.61 579.29 756.06 577.16 755.98 C 576.81 756.88 576.46 757.78 576.12 758.68 C 576.75 758.70 578.00 758.73 578.63 758.75 C 578.10 760.28 576.97 760.94 575.26 760.74 C 575.21 760.94 575.11 761.34 575.07 761.54 C 575.78 761.48 577.21 761.37 577.92 761.31 C 577.34 763.09 576.11 763.91 574.22 763.77 C 574.17 763.99 574.09 764.43 574.05 764.65 C 574.76 764.55 576.18 764.34 576.90 764.24 C 576.38 766.34 574.24 766.77 572.53 767.37 C 573.19 767.36 574.51 767.32 575.17 767.31 L 575.41 769.00 C 579.37 769.30 583.36 767.98 585.90 764.83 C 586.88 763.17 588.72 763.96 590.20 764.31 C 590.67 766.52 591.73 768.52 592.63 770.59 C 592.13 771.40 591.62 772.20 591.08 773.00 C 581.93 772.81 572.74 773.40 563.61 772.69 C 564.67 772.24 565.77 772.00 566.92 771.98 C 574.29 771.94 581.67 772.09 589.05 771.97 C 591.07 772.22 593.14 767.90 589.06 767.85 L 589.79 771.00 C 580.95 770.98 572.11 771.05 563.27 770.95 C 565.04 769.55 567.61 768.65 568.16 766.19 C 568.99 763.22 570.84 760.30 570.27 757.13 C 570.73 756.92 571.66 756.49 572.12 756.27 C 571.45 756.24 570.10 756.18 569.43 756.15 C 569.45 756.94 569.50 758.53 569.53 759.32 C 568.29 759.10 567.28 758.56 566.50 757.70 C 567.34 755.09 570.28 754.35 572.57 753.56 C 573.58 750.32 574.65 747.11 575.74 743.90 C 574.88 742.93 574.03 741.96 573.19 741.00 Z" />
<path fill="#ed1c24" opacity="1.00" d=" M 335.69 770.09 C 336.09 769.56 336.50 769.04 336.92 768.54 C 337.74 769.65 338.58 770.76 339.45 771.87 C 337.37 772.57 335.30 773.37 333.11 773.64 L 333.10 773.37 C 334.60 772.64 336.16 772.08 337.77 771.63 C 337.25 771.24 336.21 770.47 335.69 770.09 Z" />
<path fill="#ed1c24" opacity="1.00" d=" M 443.66 771.99 C 447.81 772.16 451.96 771.83 456.09 771.79 L 457.14 772.85 C 452.68 773.11 448.21 772.97 443.74 773.00 L 443.66 771.99 Z" />
</g>
<g id="#f3bbdeff">
<path fill="#f3bbde" opacity="1.00" d=" M 404.77 743.36 C 404.97 743.67 404.97 743.67 404.77 743.36 Z" />
</g>
<g id="#fce4ddff">
<path fill="#fce4dd" opacity="1.00" d=" M 425.22 743.33 C 426.51 742.57 428.36 742.57 429.66 743.32 C 429.27 744.60 425.48 744.72 425.22 743.33 Z" />
</g>
<g id="#ee1c24ff">
<path fill="#ee1c24" opacity="1.00" d=" M 327.75 744.38 C 329.28 743.89 330.86 743.77 332.49 744.01 C 332.47 744.26 332.45 744.75 332.43 745.00 C 331.08 744.88 328.35 745.69 327.75 744.38 Z" />
</g>
<g id="#f16d93ff">
<path fill="#f16d93" opacity="1.00" d=" M 392.15 744.96 C 392.53 746.52 392.83 748.11 393.18 749.70 C 392.24 749.98 391.29 750.28 390.36 750.58 C 390.32 749.65 390.29 748.73 390.26 747.82 C 390.86 746.84 391.49 745.89 392.15 744.96 Z" />
</g>
<g id="#f05e63ff">
<path fill="#f05e63" opacity="1.00" d=" M 383.25 750.07 C 386.24 748.54 383.37 753.39 383.25 750.07 Z" />
</g>
<g id="#f1627aff">
<path fill="#f1627a" opacity="1.00" d=" M 400.23 750.12 C 400.92 749.90 402.30 749.45 403.00 749.23 C 401.79 754.28 399.82 759.09 398.36 764.07 C 397.71 763.66 396.40 762.84 395.75 762.43 C 396.61 761.89 397.47 761.35 398.34 760.83 C 397.96 760.39 397.19 759.52 396.81 759.09 C 397.29 758.86 398.26 758.41 398.74 758.19 C 398.55 755.40 399.32 752.72 400.23 750.12 Z" />
</g>
<g id="#b66600ff">
<path fill="#b66600" opacity="1.00" d=" M 624.00 751.00 L 625.00 750.99 C 625.00 758.33 625.00 765.67 625.00 773.01 L 624.00 773.01 C 623.99 765.67 624.00 758.34 624.00 751.00 Z" />
<path fill="#b66600" opacity="1.00" d=" M 672.00 751.02 L 673.00 750.98 C 673.00 758.31 673.00 765.65 673.00 772.99 L 672.00 773.01 C 672.00 765.68 672.00 758.35 672.00 751.02 Z" />
<path fill="#b66600" opacity="1.00" d=" M 665.00 758.04 L 665.99 757.97 C 666.00 762.99 666.00 768.00 666.00 773.02 L 665.00 772.98 C 665.00 767.99 665.00 763.01 665.00 758.04 Z" />
<path fill="#b66600" opacity="1.00" d=" M 695.00 758.03 L 696.00 757.92 C 695.99 762.95 696.00 767.97 696.00 773.00 L 695.00 773.01 C 695.00 768.01 695.00 763.02 695.00 758.03 Z" />
<path fill="#b66600" opacity="1.00" d=" M 722.05 771.82 C 720.40 771.43 720.31 770.90 721.77 770.22 C 721.84 770.62 721.98 771.42 722.05 771.82 Z" />
</g>
<g id="#000000ff">
<path fill="#000000" opacity="1.00" d=" M 625.00 750.99 L 626.03 751.07 C 626.01 758.35 626.01 765.64 626.02 772.93 L 625.00 773.01 C 625.00 765.67 625.00 758.33 625.00 750.99 Z" />
<path fill="#000000" opacity="1.00" d=" M 673.00 750.98 L 674.04 751.08 C 673.98 758.39 673.99 765.70 674.03 773.01 L 673.00 772.99 C 673.00 765.65 673.00 758.31 673.00 750.98 Z" />
<path fill="#000000" opacity="1.00" d=" M 666.19 752.20 L 666.99 751.86 C 667.82 752.70 667.84 754.27 667.01 755.13 L 666.20 754.82 C 666.20 754.16 666.19 752.85 666.19 752.20 Z" />
<path fill="#000000" opacity="1.00" d=" M 610.81 753.04 C 611.65 753.08 613.33 753.14 614.16 753.17 L 613.98 754.33 C 614.08 754.69 614.28 755.40 614.38 755.76 L 615.17 755.84 L 614.99 757.13 C 615.19 757.62 615.59 758.59 615.79 759.07 C 617.34 761.78 618.28 764.86 618.97 767.91 C 619.27 769.68 619.82 771.43 620.63 773.07 C 617.39 773.60 617.40 770.02 616.31 767.97 C 613.48 767.99 610.65 767.97 607.83 768.12 L 607.39 768.14 C 606.52 769.52 605.90 771.10 605.92 772.78 C 605.30 772.85 604.06 773.01 603.43 773.08 C 605.66 767.06 607.47 760.77 610.28 755.04 C 610.42 754.54 610.68 753.54 610.81 753.04 M 608.60 765.98 C 610.97 765.99 613.34 765.99 615.73 766.00 C 614.62 762.84 613.47 759.70 612.35 756.56 C 610.45 759.40 609.75 762.80 608.60 765.98 Z" />
<path fill="#000000" opacity="1.00" d=" M 632.52 759.51 C 634.98 756.86 638.41 758.26 641.06 759.65 L 641.79 759.74 C 641.86 759.35 641.99 758.57 642.06 758.18 L 643.00 757.93 C 643.00 764.95 642.99 771.98 643.00 779.01 L 642.00 778.99 C 641.98 776.24 641.97 773.49 641.81 770.76 L 641.01 771.10 C 640.78 771.22 640.30 771.46 640.06 771.58 C 638.28 772.77 636.22 773.32 634.09 773.03 C 630.34 769.95 630.41 764.84 631.51 760.54 L 632.45 759.58 C 632.47 759.56 632.50 759.53 632.52 759.51 M 637.99 770.68 C 641.68 769.45 640.77 765.27 640.82 762.26 C 639.59 761.43 638.45 760.43 637.02 760.02 C 631.18 760.30 631.85 772.33 637.99 770.68 Z" />
<path fill="#000000" opacity="1.00" d=" M 648.90 757.96 C 649.37 758.00 650.32 758.08 650.79 758.12 C 650.89 761.96 650.14 765.99 651.52 769.68 C 652.88 771.69 655.41 770.72 657.01 769.57 C 657.25 769.20 657.75 768.46 658.00 768.10 C 658.46 764.75 658.34 761.36 658.36 758.00 L 660.00 758.00 C 660.00 763.02 660.00 768.05 660.00 773.07 L 659.06 772.80 C 658.99 772.41 658.85 771.63 658.77 771.24 L 658.04 771.35 C 657.42 771.62 656.16 772.16 655.53 772.44 C 655.50 772.45 655.44 772.48 655.41 772.49 C 654.53 772.63 652.76 772.90 651.87 773.04 C 646.86 769.69 649.46 762.95 648.90 757.96 Z" />
<path fill="#000000" opacity="1.00" d=" M 665.99 757.97 L 667.01 758.08 C 667.00 763.02 667.01 767.97 667.04 772.92 L 666.00 773.02 C 666.00 768.00 666.00 762.99 665.99 757.97 Z" />
<path fill="#000000" opacity="1.00" d=" M 679.63 760.46 C 682.31 757.57 687.63 756.78 690.15 760.29 C 690.57 762.11 690.81 763.96 691.24 765.79 C 688.03 766.10 684.81 765.94 681.60 766.12 L 680.91 766.14 C 680.54 767.21 680.79 768.14 681.65 768.93 C 682.03 769.35 682.78 770.21 683.16 770.63 L 683.39 770.90 L 683.74 770.91 C 685.92 771.04 688.13 770.88 690.23 770.21 C 690.19 770.62 690.11 771.44 690.06 771.85 C 687.45 773.66 683.95 773.13 681.13 772.12 C 678.23 768.90 678.56 764.35 679.63 760.46 M 682.04 760.79 L 682.06 762.38 C 680.43 762.56 680.30 763.09 681.67 763.97 C 683.97 764.00 686.28 764.00 688.59 763.98 L 689.08 763.89 C 690.13 762.53 688.57 759.71 686.86 760.44 C 685.46 759.21 683.55 760.51 682.04 760.79 Z" />
<path fill="#000000" opacity="1.00" d=" M 706.62 760.48 C 709.29 757.57 714.64 756.78 717.16 760.30 C 717.57 762.11 717.81 763.97 718.24 765.80 C 714.93 766.12 711.60 765.89 708.29 766.13 L 707.76 766.16 C 707.65 767.38 707.67 769.07 708.96 769.72 C 711.64 771.98 715.20 770.65 718.25 770.10 C 716.90 774.05 711.36 773.26 708.17 772.14 C 705.22 768.95 705.56 764.37 706.62 760.48 M 709.01 760.80 L 709.05 762.38 C 707.42 762.61 707.30 763.14 708.70 763.97 C 710.99 764.00 713.29 764.00 715.59 763.98 L 716.08 763.88 C 717.14 762.54 715.57 759.67 713.88 760.48 C 712.53 759.13 710.53 760.54 709.01 760.80 Z" />
<path fill="#000000" opacity="1.00" d=" M 721.67 763.19 C 720.80 759.13 725.73 757.00 728.99 758.27 C 729.41 759.18 729.90 760.05 730.47 760.90 C 728.61 760.28 726.64 759.57 724.71 760.34 C 723.11 760.46 723.29 763.20 724.72 763.55 L 726.48 764.24 C 726.53 764.26 726.65 764.31 726.70 764.33 C 727.34 764.61 728.62 765.17 729.26 765.45 C 729.50 765.82 729.98 766.56 730.22 766.94 C 729.81 768.19 729.76 769.48 730.05 770.81 C 729.23 773.53 723.77 773.86 722.05 771.82 C 721.98 771.42 721.84 770.62 721.77 770.22 C 723.64 770.74 725.56 771.20 727.53 770.94 C 729.26 770.96 729.90 767.86 728.13 767.36 C 725.93 766.09 722.79 765.78 721.67 763.19 Z" />
</g>
<g id="#000066ff">
<path fill="#000066" opacity="1.00" d=" M 626.03 751.07 L 627.20 750.61 C 626.87 758.19 626.87 765.80 627.21 773.39 L 626.02 772.93 C 626.01 765.64 626.01 758.35 626.03 751.07 Z" />
<path fill="#000066" opacity="1.00" d=" M 674.04 751.08 L 675.19 750.59 C 674.79 758.04 675.09 765.52 675.01 772.98 L 674.03 773.01 C 673.99 765.70 673.98 758.39 674.04 751.08 Z" />
<path fill="#000066" opacity="1.00" d=" M 667.01 758.08 L 668.20 757.59 C 667.88 762.86 667.88 768.15 668.19 773.43 L 667.04 772.92 C 667.01 767.97 667.00 763.02 667.01 758.08 Z" />
</g>
<g id="#b6ffffff">
<path fill="#b6ffff" opacity="1.00" d=" M 627.20 750.61 C 628.67 753.88 627.76 757.58 627.96 761.05 C 627.69 765.14 628.74 769.46 627.21 773.39 C 626.87 765.80 626.87 758.19 627.20 750.61 Z" />
<path fill="#b6ffff" opacity="1.00" d=" M 675.19 750.59 C 676.27 752.55 675.99 754.85 676.01 757.01 C 675.92 762.34 676.01 767.67 675.92 773.00 L 675.01 772.98 C 675.09 765.52 674.79 758.04 675.19 750.59 Z" />
<path fill="#b6ffff" opacity="1.00" d=" M 668.20 757.59 C 669.48 760.19 668.89 763.18 669.04 765.98 C 668.92 768.46 669.39 771.12 668.19 773.43 C 667.88 768.15 667.88 762.86 668.20 757.59 Z" />
<path fill="#b6ffff" opacity="1.00" d=" M 698.01 773.00 C 697.98 769.40 697.89 765.79 698.44 762.23 C 699.03 765.78 699.05 769.39 698.94 772.98 L 698.01 773.00 Z" />
</g>
<g id="#f1698bff">
<path fill="#f1698b" opacity="1.00" d=" M 393.19 751.84 C 393.57 753.27 393.87 754.72 394.17 756.20 C 393.45 756.02 392.01 755.67 391.28 755.50 C 391.28 755.04 391.28 754.13 391.27 753.67 C 391.75 753.21 392.71 752.29 393.19 751.84 Z" />
</g>
<g id="#9b4427ff">
<path fill="#9b4427" opacity="1.00" d=" M 666.20 754.82 C 664.34 755.40 664.32 751.56 666.19 752.20 C 666.19 752.85 666.20 754.16 666.20 754.82 Z" />
</g>
<g id="#5da2c2ff">
<path fill="#5da2c2" opacity="1.00" d=" M 666.99 751.86 C 669.86 750.89 669.91 756.02 667.01 755.13 C 667.84 754.27 667.82 752.70 666.99 751.86 Z" />
</g>
<g id="#b6651dff">
<path fill="#b6651d" opacity="1.00" d=" M 609.72 754.34 C 610.00 754.01 610.54 753.37 610.81 753.04 C 610.68 753.54 610.42 754.54 610.28 755.04 L 609.72 754.34 Z" />
</g>
<g id="#338edbff">
<path fill="#338edb" opacity="1.00" d=" M 613.98 754.33 L 614.82 754.28 C 614.90 754.67 615.08 755.45 615.17 755.84 L 614.38 755.76 C 614.28 755.40 614.08 754.69 613.98 754.33 Z" />
</g>
<g id="#f25d7aff">
<path fill="#f25d7a" opacity="1.00" d=" M 332.99 755.79 C 333.21 755.64 333.64 755.35 333.85 755.21 L 333.88 755.83 L 333.92 757.21 C 333.95 758.94 333.90 760.67 333.82 762.42 C 333.21 762.12 331.97 761.52 331.35 761.23 C 331.20 760.09 331.06 758.96 330.92 757.84 C 332.14 757.78 332.83 757.09 332.99 755.79 Z" />
</g>
<g id="#f6bac8ff">
<path fill="#f6bac8" opacity="1.00" d=" M 331.19 756.16 C 331.64 756.07 332.54 755.88 332.99 755.79 C 332.83 757.09 332.14 757.78 330.92 757.84 C 330.99 757.42 331.12 756.58 331.19 756.16 Z" />
</g>
<g id="#fef1f2ff">
<path fill="#fef1f2" opacity="1.00" d=" M 455.53 757.29 C 459.15 756.82 462.83 756.84 466.47 757.26 C 463.07 758.55 458.94 758.50 455.53 757.29 Z" />
</g>
<g id="#1d65b6ff">
<path fill="#1d65b6" opacity="1.00" d=" M 614.99 757.13 L 615.88 757.32 L 616.29 758.31 L 615.79 759.07 C 615.59 758.59 615.19 757.62 614.99 757.13 Z" />
</g>
<g id="#903a00ff">
<path fill="#903a00" opacity="1.00" d=" M 641.26 758.09 L 642.06 758.18 C 641.99 758.57 641.86 759.35 641.79 759.74 L 641.06 759.65 C 641.11 759.26 641.21 758.48 641.26 758.09 Z" />
<path fill="#903a00" opacity="1.00" d=" M 658.04 771.35 L 658.77 771.24 C 658.85 771.63 658.99 772.41 659.06 772.80 L 658.26 772.90 C 658.21 772.51 658.10 771.74 658.04 771.35 Z" />
</g>
<g id="#3a90dbff">
<path fill="#3a90db" opacity="1.00" d=" M 643.00 757.93 L 644.00 758.02 C 644.00 765.01 644.00 772.00 643.99 778.99 L 643.00 779.01 C 642.99 771.98 643.00 764.95 643.00 757.93 Z" />
<path fill="#3a90db" opacity="1.00" d=" M 660.00 758.00 L 661.00 758.00 C 661.00 762.99 661.00 767.99 660.99 772.99 L 660.00 773.07 C 660.00 768.05 660.00 763.02 660.00 758.00 Z" />
</g>
<g id="#bf7c2fff">
<path fill="#bf7c2f" opacity="1.00" d=" M 648.00 758.01 L 648.90 757.96 C 649.46 762.95 646.86 769.69 651.87 773.04 C 651.32 772.83 650.20 772.42 649.65 772.22 C 646.88 767.97 648.31 762.75 648.00 758.01 Z" />
</g>
<g id="#ffd88cff">
<path fill="#ffd88c" opacity="1.00" d=" M 657.01 769.57 C 657.23 765.56 656.50 761.41 657.73 757.53 C 658.01 761.04 658.11 764.57 658.00 768.10 C 657.75 768.46 657.25 769.20 657.01 769.57 Z" />
</g>
<g id="#040206ff">
<path fill="#040206" opacity="1.00" d=" M 696.00 757.92 L 697.06 758.15 C 697.09 758.52 697.15 759.27 697.18 759.64 L 697.98 759.72 C 698.17 759.65 698.56 759.52 698.76 759.45 C 699.94 758.01 701.74 757.87 703.47 758.13 C 703.13 758.58 702.46 759.46 702.13 759.91 L 700.54 760.49 C 700.50 760.51 700.42 760.54 700.38 760.56 C 699.91 760.84 698.98 761.39 698.51 761.66 C 696.03 764.87 697.31 769.26 697.05 773.00 L 696.00 773.00 C 696.00 767.97 695.99 762.95 696.00 757.92 Z" />
</g>
<g id="#0066b6ff">
<path fill="#0066b6" opacity="1.00" d=" M 697.06 758.15 C 697.38 758.40 698.01 758.90 698.32 759.15 L 697.98 759.72 L 697.18 759.64 C 697.15 759.27 697.09 758.52 697.06 758.15 Z" />
</g>
<g id="#7499bfff">
<path fill="#7499bf" opacity="1.00" d=" M 703.47 758.13 C 705.88 758.71 702.70 762.80 702.13 759.91 C 702.46 759.46 703.13 758.58 703.47 758.13 Z" />
</g>
<g id="#6db5e4ff">
<path fill="#6db5e4" opacity="1.00" d=" M 728.99 758.27 C 730.56 756.97 732.63 760.68 730.47 760.90 C 729.90 760.05 729.41 759.18 728.99 758.27 Z" />
</g>
<g id="#db903aff">
<path fill="#db903a" opacity="1.00" d=" M 632.45 759.58 C 632.47 759.56 632.50 759.53 632.52 759.51 C 632.50 759.53 632.47 759.56 632.45 759.58 Z" />
<path fill="#db903a" opacity="1.00" d=" M 698.32 759.15 L 698.76 759.45 C 698.56 759.52 698.17 759.65 697.98 759.72 L 698.32 759.15 Z" />
</g>
<g id="#74b4efff">
<path fill="#74b4ef" opacity="1.00" d=" M 690.15 760.29 C 692.41 760.25 693.25 764.96 691.24 765.79 C 690.81 763.96 690.57 762.11 690.15 760.29 Z" />
<path fill="#74b4ef" opacity="1.00" d=" M 717.16 760.30 C 719.42 760.26 720.25 764.96 718.24 765.80 C 717.81 763.97 717.57 762.11 717.16 760.30 Z" />
</g>
<g id="#66b6dbff">
<path fill="#66b6db" opacity="1.00" d=" M 700.38 760.56 C 700.42 760.54 700.50 760.51 700.54 760.49 C 700.50 760.51 700.42 760.54 700.38 760.56 Z" />
<path fill="#66b6db" opacity="1.00" d=" M 683.16 770.63 C 683.30 770.70 683.59 770.84 683.74 770.91 L 683.39 770.90 L 683.16 770.63 Z" />
</g>
<g id="#e4b175ff">
<path fill="#e4b175" opacity="1.00" d=" M 634.09 773.03 C 629.52 771.00 628.61 764.26 631.51 760.54 C 630.41 764.84 630.34 769.95 634.09 773.03 Z" />
</g>
<g id="#e8b472ff">
<path fill="#e8b472" opacity="1.00" d=" M 681.13 772.12 C 677.10 770.01 676.98 763.71 679.63 760.46 C 678.56 764.35 678.23 768.90 681.13 772.12 Z" />
<path fill="#e8b472" opacity="1.00" d=" M 708.17 772.14 C 704.12 770.02 703.96 763.76 706.62 760.48 C 705.56 764.37 705.22 768.95 708.17 772.14 Z" />
</g>
<g id="#65b6edff">
<path fill="#65b6ed" opacity="1.00" d=" M 681.67 763.97 C 680.30 763.09 680.43 762.56 682.06 762.38 C 681.96 762.78 681.77 763.57 681.67 763.97 Z" />
<path fill="#65b6ed" opacity="1.00" d=" M 708.70 763.97 C 707.30 763.14 707.42 762.61 709.05 762.38 C 708.96 762.78 708.79 763.58 708.70 763.97 Z" />
</g>
<g id="#050c67ff">
<path fill="#050c67" opacity="1.00" d=" M 697.05 773.00 C 697.31 769.26 696.03 764.87 698.51 761.66 L 698.44 762.23 C 697.89 765.79 697.98 769.40 698.01 773.00 L 697.05 773.00 Z" />
</g>
<g id="#003a66ff">
<path fill="#003a66" opacity="1.00" d=" M 726.48 764.24 C 726.53 764.26 726.65 764.31 726.70 764.33 C 726.65 764.31 726.53 764.26 726.48 764.24 Z" />
</g>
<g id="#f27391ff">
<path fill="#f27391" opacity="1.00" d=" M 378.51 767.85 C 377.95 766.14 379.66 765.15 380.54 764.03 C 380.62 766.12 380.63 768.23 380.61 770.34 C 379.86 769.54 379.09 768.77 378.51 767.85 Z" />
</g>
<g id="#a3d5f5ff">
<path fill="#a3d5f5" opacity="1.00" d=" M 729.26 765.45 C 731.84 763.93 733.72 769.07 731.30 769.99 C 731.14 769.34 730.83 768.04 730.67 767.39 L 730.22 766.94 C 729.98 766.56 729.50 765.82 729.26 765.45 Z" />
</g>
<g id="#65b6f3ff">
<path fill="#65b6f3" opacity="1.00" d=" M 680.91 766.14 L 681.60 766.12 L 682.17 767.03 C 682.04 767.50 681.78 768.45 681.65 768.93 C 680.79 768.14 680.54 767.21 680.91 766.14 Z" />
</g>
<g id="#4c88d0ff">
<path fill="#4c88d0" opacity="1.00" d=" M 707.76 766.16 L 708.29 766.13 C 709.40 767.18 709.63 768.38 708.96 769.72 C 707.67 769.07 707.65 767.38 707.76 766.16 Z" />
</g>
<g id="#ed1c50ff">
<path fill="#ed1c50" opacity="1.00" d=" M 335.49 767.50 C 335.77 767.76 335.77 767.76 335.49 767.50 Z" />
</g>
<g id="#000f5bff">
<path fill="#000f5b" opacity="1.00" d=" M 730.22 766.94 L 730.67 767.39 C 730.83 768.04 731.14 769.34 731.30 769.99 C 730.99 770.19 730.36 770.60 730.05 770.81 C 729.76 769.48 729.81 768.19 730.22 766.94 Z" />
</g>
<g id="#4082c7ff">
<path fill="#4082c7" opacity="1.00" d=" M 607.39 768.14 L 607.83 768.12 C 608.61 769.57 607.69 772.66 605.92 772.78 C 605.90 771.10 606.52 769.52 607.39 768.14 Z" />
</g>
<g id="#3f7cc1ff">
<path fill="#3f7cc1" opacity="1.00" d=" M 618.97 767.91 C 620.82 768.06 621.67 771.30 621.03 772.93 L 620.63 773.07 C 619.82 771.43 619.27 769.68 618.97 767.91 Z" />
</g>
<g id="#ee2837ff">
<path fill="#ee2837" opacity="1.00" d=" M 469.81 769.75 C 470.59 770.75 471.36 771.76 472.12 772.79 C 467.67 773.17 463.19 772.96 458.73 773.00 L 458.64 772.00 C 462.35 771.93 466.08 772.16 469.79 771.81 L 469.80 770.92 L 469.81 769.75 Z" />
</g>
<g id="#003a90ff">
<path fill="#003a90" opacity="1.00" d=" M 690.23 770.21 C 691.71 770.80 691.65 771.35 690.06 771.85 C 690.11 771.44 690.19 770.62 690.23 770.21 Z" />
</g>
<g id="#fee8f4ff">
<path fill="#fee8f4" opacity="1.00" d=" M 484.26 771.29 C 485.97 770.50 488.35 770.82 490.18 771.33 L 490.17 771.67 C 488.53 771.98 485.12 772.89 484.26 771.29 Z" />
</g>
<g id="#f6d690ff">
<path fill="#f6d690" opacity="1.00" d=" M 640.06 771.58 C 640.30 771.46 640.78 771.22 641.01 771.10 C 641.00 773.73 641.00 776.36 641.00 779.01 L 640.06 779.00 C 639.99 776.52 639.87 774.04 640.06 771.58 Z" />
</g>
<g id="#3a0000ff">
<path fill="#3a0000" opacity="1.00" d=" M 641.01 771.10 L 641.81 770.76 C 641.97 773.49 641.98 776.24 642.00 778.99 L 641.00 779.01 C 641.00 776.36 641.00 773.73 641.01 771.10 Z" />
</g>
<g id="#3a66b6ff">
<path fill="#3a66b6" opacity="1.00" d=" M 655.41 772.49 C 655.44 772.48 655.50 772.45 655.53 772.44 C 655.50 772.45 655.44 772.48 655.41 772.49 Z" />
</g>
</svg>
