<?xml version="1.0" encoding="UTF-8" ?>
<!DOCTYPE svg PUBLIC "-//W3C//DTD SVG 1.1//EN" "http://www.w3.org/Graphics/SVG/1.1/DTD/svg11.dtd">
<svg width="1024pt" height="1024pt" viewBox="0 0 1024 1024" version="1.1" xmlns="http://www.w3.org/2000/svg">
<g id="#fde9dcff">
<path fill="#fde9dc" opacity="1.00" d=" M 0.00 0.00 L 1024.00 0.00 L 1024.00 1024.00 L 0.00 1024.00 L 0.00 0.00 M 445.62 227.69 C 414.65 235.47 385.32 249.13 358.77 266.78 C 353.02 270.86 347.00 274.65 341.99 279.67 C 419.33 279.79 496.67 279.60 574.01 279.68 C 578.77 279.45 583.68 282.41 585.00 287.12 C 586.91 292.80 582.43 300.28 576.05 299.66 C 492.02 299.65 407.99 299.69 323.97 299.66 C 320.53 299.08 318.30 302.00 316.11 304.11 C 305.76 314.85 296.36 326.53 287.99 338.88 C 311.64 339.88 335.33 338.39 359.00 339.09 C 382.00 339.32 405.00 338.71 428.00 338.84 C 476.00 338.98 523.99 338.85 572.00 338.88 C 582.33 338.80 592.66 339.35 603.00 339.21 C 632.76 339.02 662.52 339.40 692.27 339.04 C 692.74 335.32 691.62 331.70 691.21 328.04 C 693.16 331.31 693.69 335.14 694.43 338.82 C 699.92 339.62 705.47 339.02 711.00 339.13 C 717.98 338.97 724.97 339.42 731.94 338.84 C 729.96 335.61 727.88 332.45 725.63 329.41 C 713.63 313.60 700.49 298.50 685.09 285.90 C 673.39 275.64 660.40 267.03 647.32 258.67 C 610.27 235.80 567.31 223.46 524.05 220.28 C 512.71 220.21 501.37 220.08 490.03 220.38 C 475.04 221.48 460.28 224.53 445.62 227.69 M 396.46 358.23 C 393.67 357.64 390.83 357.65 388.00 357.76 C 351.37 358.02 314.72 357.74 278.09 357.96 C 275.86 359.88 274.82 362.80 273.30 365.27 C 261.38 386.57 252.45 409.46 245.96 432.98 C 244.78 437.24 243.93 441.61 243.65 446.04 C 226.87 437.93 205.56 439.25 190.41 450.35 C 187.62 452.54 184.49 455.18 184.05 458.94 C 184.29 461.58 186.04 464.82 189.00 465.00 C 193.82 465.34 198.72 465.09 203.45 466.34 C 217.35 469.26 230.94 477.10 238.23 489.59 C 222.75 492.99 210.43 506.52 207.75 522.01 C 207.82 526.50 206.01 531.39 208.45 535.55 C 209.54 537.53 211.78 538.44 213.98 538.06 C 217.00 538.17 218.59 535.18 219.91 532.94 C 225.16 523.05 234.47 514.87 245.73 512.92 C 245.59 536.67 246.05 560.42 246.33 584.17 C 235.22 584.45 224.11 584.11 213.00 584.30 C 209.45 584.46 205.73 583.97 202.32 585.18 C 196.24 589.30 198.20 599.76 205.14 601.79 C 210.06 602.72 215.12 601.98 220.09 602.26 C 218.46 605.00 216.47 607.75 216.26 611.05 C 215.41 617.51 220.20 623.94 226.37 625.61 C 233.10 627.38 240.13 626.35 247.00 626.60 C 254.88 626.89 262.88 626.01 270.68 627.44 C 278.16 628.66 282.67 638.15 278.59 644.64 C 274.71 651.17 266.19 651.71 259.43 652.56 C 248.25 654.23 236.45 653.13 225.89 657.80 C 220.37 660.08 216.00 665.86 216.65 672.01 C 216.99 677.13 220.43 681.85 225.11 683.90 C 231.87 687.02 239.56 687.11 246.86 686.67 C 263.52 685.67 279.31 679.24 293.82 671.35 C 300.09 668.12 307.04 666.65 313.79 664.82 C 323.17 664.86 332.60 664.00 341.93 665.24 C 357.60 667.55 372.99 673.47 385.10 683.88 C 390.39 688.50 396.24 692.80 400.27 698.63 C 402.39 702.26 400.06 705.84 397.46 708.39 C 389.90 707.20 383.61 702.60 377.15 698.84 C 365.77 691.78 353.42 685.81 340.08 683.69 C 319.87 679.51 298.64 684.88 281.02 695.07 C 272.94 699.70 264.84 704.68 255.62 706.67 C 251.87 707.37 249.39 712.78 252.34 715.66 C 254.19 718.65 258.01 718.08 261.02 718.20 C 312.11 718.00 363.22 718.44 414.31 717.79 C 461.86 718.74 509.47 717.77 557.05 718.04 C 562.25 718.33 566.54 715.01 571.15 713.16 C 573.04 712.21 575.26 711.65 576.77 710.07 C 588.31 705.84 599.83 701.23 611.98 698.93 C 624.44 696.16 637.37 696.39 649.98 697.90 C 664.59 699.68 677.69 706.86 690.63 713.38 C 695.15 715.58 699.75 718.38 704.98 718.06 C 724.01 717.98 743.04 718.12 762.06 717.97 C 765.15 718.16 768.42 715.96 769.13 712.91 C 769.48 708.96 765.64 706.01 761.98 705.92 C 732.03 702.75 708.80 679.61 679.00 675.94 C 659.62 673.07 640.07 676.86 621.49 682.29 C 619.35 680.44 616.22 679.07 615.70 675.99 C 615.04 672.71 616.99 669.11 620.39 668.43 C 632.01 665.16 643.25 660.58 655.09 658.04 C 673.14 654.10 692.17 655.00 709.78 660.60 C 730.53 668.58 749.66 681.17 771.81 685.17 C 779.55 686.78 788.21 686.50 795.01 682.04 C 801.01 677.73 803.72 669.19 800.67 662.33 C 798.01 654.94 790.82 650.55 783.68 648.26 C 775.77 645.34 767.28 645.97 759.03 645.75 C 751.93 646.04 745.02 647.85 738.05 649.08 C 735.64 647.37 732.99 645.20 732.98 641.96 C 732.53 638.52 734.50 635.09 737.69 633.75 C 747.18 629.40 757.67 628.05 767.96 626.97 C 776.29 626.26 784.89 626.65 792.89 623.87 C 797.53 622.28 801.49 618.15 801.39 613.00 C 801.99 608.48 798.46 605.17 795.80 602.07 C 801.88 602.06 807.96 602.28 814.04 602.04 C 819.62 602.06 823.35 595.33 821.61 590.35 C 820.58 587.03 817.63 584.11 814.00 584.15 C 790.56 584.15 767.12 584.36 743.69 584.03 C 749.23 561.98 754.21 539.65 755.80 516.92 C 764.53 516.68 773.25 517.36 781.98 516.82 C 782.32 503.31 779.71 489.93 777.56 476.65 C 777.62 476.12 777.72 475.05 777.77 474.52 C 789.68 476.52 800.42 482.72 809.54 490.44 C 812.06 492.96 816.55 492.53 818.81 489.87 C 821.08 487.71 820.20 484.19 819.60 481.50 C 815.23 467.76 804.40 456.28 791.03 450.93 C 785.35 448.61 779.29 447.53 773.34 446.18 C 780.98 428.80 797.69 416.24 816.05 412.09 C 818.92 411.28 822.61 411.21 824.24 408.25 C 826.27 404.93 823.97 400.86 821.20 398.78 C 812.89 392.50 802.11 391.38 792.03 391.16 C 782.06 392.32 772.04 395.23 763.93 401.33 C 761.13 396.45 759.38 391.08 757.04 385.99 C 753.58 377.72 749.15 369.93 744.92 362.05 C 743.81 360.17 742.73 357.52 740.06 357.83 C 724.92 357.86 709.74 357.73 694.62 358.48 C 693.51 361.95 692.25 365.39 690.62 368.65 C 684.58 381.15 672.15 390.11 658.61 392.70 C 650.08 394.65 641.11 393.63 632.76 391.26 C 617.64 386.48 605.43 373.54 601.67 358.11 C 595.47 357.31 589.22 358.01 583.00 357.86 C 560.00 357.74 537.00 358.16 514.00 358.10 C 501.67 357.59 489.33 358.47 477.00 357.94 C 468.00 358.46 459.00 357.50 450.00 358.05 C 439.89 358.28 429.73 357.91 419.66 359.09 C 415.17 357.99 410.53 357.79 405.99 356.92 C 402.77 356.66 398.64 354.78 396.46 358.23 M 310.38 745.46 C 305.10 746.89 300.46 751.38 300.16 757.04 C 299.17 764.25 304.72 771.59 312.01 772.35 C 320.76 774.05 330.00 766.07 328.75 757.05 C 328.01 748.47 318.41 742.69 310.38 745.46 M 345.44 745.27 C 344.89 754.18 345.14 763.12 345.20 772.04 C 347.21 772.18 349.23 772.26 351.26 772.28 C 351.46 767.53 351.16 762.79 351.25 758.04 C 354.68 760.91 357.28 764.56 360.12 767.98 C 360.70 768.81 362.42 768.97 363.03 768.08 C 365.80 764.99 367.57 760.97 371.15 758.64 C 371.51 763.06 371.28 767.51 371.28 771.94 C 373.75 772.39 376.27 772.45 378.76 772.05 C 378.53 763.12 378.79 754.20 378.77 745.27 C 376.98 745.34 375.21 745.40 373.43 745.46 C 369.93 750.28 365.91 754.70 361.69 758.90 C 358.17 754.28 354.23 749.99 349.90 746.12 C 348.69 745.00 346.91 745.45 345.44 745.27 M 401.40 745.48 C 396.49 747.13 392.14 751.57 392.06 756.98 C 390.96 765.04 398.03 772.64 406.03 772.69 C 415.20 773.24 423.34 763.49 420.30 754.58 C 418.29 746.63 408.81 742.60 401.40 745.48 M 441.58 746.53 C 438.54 752.68 436.17 759.13 433.45 765.42 C 432.51 767.47 432.01 769.68 431.82 771.94 C 433.75 771.86 435.69 771.78 437.63 771.67 C 438.69 770.29 439.44 768.49 441.06 767.66 C 444.25 767.27 447.47 767.73 450.62 768.30 C 451.39 769.62 451.97 771.11 453.11 772.20 C 455.12 772.41 457.14 772.10 459.15 771.92 C 457.62 764.85 453.66 758.66 451.00 752.01 C 449.91 749.82 449.39 747.19 447.60 745.47 C 445.65 745.52 442.60 744.29 441.58 746.53 M 468.33 745.27 C 468.34 754.29 468.10 763.33 468.62 772.35 C 470.67 772.43 472.72 772.54 474.78 772.69 C 475.42 767.79 475.02 762.85 475.26 757.94 C 479.79 761.67 483.03 766.64 487.13 770.80 C 488.76 772.76 491.51 772.07 493.73 771.99 C 493.62 763.03 493.52 754.08 493.68 745.13 C 491.53 745.08 489.38 745.08 487.23 745.12 C 487.23 749.45 487.34 753.79 486.91 758.11 C 482.04 755.47 478.94 750.72 475.24 746.78 C 473.61 744.60 470.65 745.54 468.33 745.27 M 507.25 745.35 C 507.39 747.29 506.85 749.45 507.71 751.26 C 509.99 751.74 512.32 751.86 514.64 752.16 C 514.90 758.77 514.59 765.41 515.16 772.03 C 517.39 772.12 519.62 772.10 521.86 771.97 C 521.97 765.10 520.96 758.19 521.90 751.36 C 524.66 751.42 527.42 751.38 530.18 751.20 C 530.22 749.21 530.18 747.24 530.05 745.27 C 522.45 745.29 514.85 745.29 507.25 745.35 M 569.40 745.16 C 569.27 754.07 569.45 762.97 569.39 771.87 C 571.73 772.08 574.07 772.23 576.43 772.36 C 576.49 768.99 576.58 765.62 576.54 762.25 C 580.13 762.00 583.73 762.02 587.33 762.06 C 587.52 765.36 587.58 768.67 587.38 771.98 C 589.74 772.16 592.12 772.20 594.50 772.24 C 594.24 763.21 594.58 754.18 594.27 745.17 C 592.12 745.16 589.98 745.14 587.85 745.11 C 587.71 748.69 587.56 752.26 587.58 755.85 C 583.82 756.17 580.04 756.24 576.28 755.96 C 576.42 752.38 576.50 748.78 575.98 745.23 C 573.78 745.15 571.59 745.11 569.40 745.16 M 617.08 744.72 C 613.38 753.72 609.16 762.58 606.78 772.06 C 609.06 772.03 611.36 772.01 613.65 771.96 C 614.08 770.63 613.95 768.90 615.22 768.02 C 618.11 767.60 621.06 767.61 623.96 767.94 C 626.16 767.92 626.30 770.54 627.22 771.99 C 629.43 772.04 631.65 772.04 633.88 772.02 C 632.61 763.17 633.43 754.21 632.97 745.31 C 630.96 745.33 628.95 745.33 626.95 745.28 C 626.76 749.34 627.01 753.41 626.76 757.47 C 623.58 754.20 622.93 749.33 620.37 745.62 C 619.30 745.20 618.20 744.90 617.08 744.72 M 649.28 744.99 C 649.00 753.97 649.38 762.95 649.47 771.94 C 651.64 772.21 653.83 772.32 656.03 772.37 C 656.05 767.27 656.09 762.14 655.14 757.11 C 658.83 760.27 662.31 763.66 665.81 767.05 C 668.76 763.21 672.26 759.87 675.96 756.76 C 675.77 761.86 675.86 766.97 675.77 772.08 C 681.66 771.74 688.45 773.46 693.48 769.48 C 700.67 764.29 700.57 751.79 692.85 747.17 C 688.17 743.96 682.33 745.41 677.06 745.09 C 674.50 750.03 670.30 753.79 666.01 757.20 C 661.61 754.21 657.19 750.80 654.91 745.84 C 653.03 745.52 651.16 745.21 649.28 744.99 M 713.11 745.10 C 713.15 754.15 713.07 763.20 713.15 772.26 C 719.18 772.63 725.21 771.91 731.24 772.30 C 731.25 770.14 731.22 767.99 731.17 765.85 C 727.39 765.94 723.62 765.94 719.85 765.82 C 719.84 764.53 719.85 763.26 719.87 761.99 C 723.46 761.42 727.08 761.19 730.70 760.82 C 730.66 759.28 730.63 757.75 730.61 756.22 C 726.83 755.85 723.04 755.89 719.26 755.73 C 719.20 754.21 719.16 752.70 719.12 751.20 C 723.10 751.20 727.08 751.12 731.07 751.10 C 731.10 749.07 731.13 747.06 731.15 745.05 C 725.13 745.05 719.12 744.99 713.11 745.10 M 497.04 788.35 C 496.57 793.50 497.36 798.69 496.74 803.83 C 496.10 807.73 489.86 807.39 489.05 803.81 C 487.87 798.99 488.75 794.01 488.91 789.14 C 486.83 788.98 484.76 788.85 482.69 788.76 C 482.73 794.68 481.91 800.80 483.60 806.57 C 486.98 813.90 498.98 813.42 501.93 805.96 C 503.81 800.40 502.44 794.37 502.73 788.62 C 500.82 788.56 498.93 788.44 497.04 788.35 M 420.76 793.86 C 418.57 799.76 415.48 805.31 413.73 811.38 C 415.47 811.42 417.23 811.42 418.99 811.44 C 419.58 810.52 420.17 809.61 420.77 808.71 C 423.71 808.42 426.70 807.82 429.67 808.30 C 430.82 809.21 431.37 810.65 432.20 811.84 C 434.12 811.77 436.05 811.73 437.98 811.69 C 435.30 804.14 431.16 797.22 428.24 789.77 C 426.67 789.09 424.91 788.75 423.21 788.89 C 421.93 790.25 421.54 792.19 420.76 793.86 M 452.09 791.07 C 445.29 795.66 446.88 807.67 454.40 810.71 C 459.28 812.98 464.72 811.05 469.54 809.58 C 469.74 805.78 469.73 801.96 469.60 798.16 C 466.06 798.07 460.28 796.50 459.09 801.18 C 460.65 801.61 462.23 802.00 463.83 802.35 C 463.87 803.00 463.95 804.29 463.99 804.93 C 461.27 806.61 456.98 807.00 454.89 804.16 C 452.27 800.93 453.87 794.91 458.01 793.97 C 461.61 794.19 465.29 795.90 468.71 793.81 C 468.72 793.18 468.75 791.92 468.76 791.29 C 463.70 788.63 457.00 787.49 452.09 791.07 M 517.60 789.61 C 514.90 791.61 513.86 795.35 514.50 798.55 C 516.71 801.77 521.07 802.03 524.26 803.89 C 523.58 804.83 522.80 805.66 521.91 806.39 C 519.61 806.25 517.42 805.47 515.17 805.09 C 514.95 806.73 513.46 809.40 515.84 810.17 C 519.44 812.32 524.26 812.20 527.60 809.60 C 530.97 806.96 530.77 801.13 527.37 798.61 C 525.07 797.38 522.45 797.01 519.92 796.58 C 519.97 795.31 519.57 793.62 521.17 793.17 C 523.52 793.89 525.88 794.66 528.39 794.38 C 528.66 793.28 528.93 792.19 529.20 791.10 C 525.84 788.86 521.36 787.62 517.60 789.61 M 540.74 788.76 C 540.81 796.42 540.69 804.10 541.11 811.77 C 542.98 811.74 544.86 811.74 546.74 811.75 C 546.95 804.13 546.71 796.50 547.08 788.89 C 544.96 788.84 542.84 788.79 540.74 788.76 M 559.95 788.94 C 560.04 796.54 559.72 804.16 560.08 811.76 C 561.88 811.73 563.69 811.72 565.50 811.70 C 565.43 808.78 565.49 805.86 565.63 802.94 C 568.08 802.92 570.53 802.92 572.99 802.86 C 573.01 801.02 573.00 799.20 572.92 797.39 C 570.39 797.29 567.87 797.21 565.36 797.21 C 565.41 796.41 565.52 794.82 565.58 794.03 C 568.40 793.90 571.23 793.77 574.06 793.68 C 574.35 792.06 574.54 790.43 574.61 788.80 C 569.72 788.87 564.83 788.98 559.95 788.94 M 585.85 788.88 C 586.13 796.37 585.83 803.87 586.10 811.37 C 591.50 811.29 596.91 811.15 602.32 811.25 C 602.22 809.48 602.12 807.73 602.00 805.98 C 601.33 804.66 600.68 803.34 600.08 802.00 C 600.15 800.41 600.16 798.83 600.12 797.27 C 597.16 797.27 594.20 797.15 591.25 796.85 C 591.25 796.19 591.24 794.85 591.23 794.19 C 594.66 793.78 598.11 793.61 601.56 793.43 C 601.72 791.93 601.84 790.42 601.95 788.93 C 596.58 788.55 591.22 788.98 585.85 788.88 Z" />
<path fill="#fde9dc" opacity="1.00" d=" M 622.89 303.82 C 637.80 295.24 657.87 294.67 672.14 304.92 C 664.73 304.36 656.41 304.33 650.41 309.37 C 645.50 313.01 644.59 319.46 641.32 324.27 C 639.31 325.02 637.10 324.78 635.01 324.85 C 625.01 324.67 615.02 325.01 605.03 324.60 C 607.93 315.65 615.02 308.64 622.89 303.82 Z" />
<path fill="#fde9dc" opacity="1.00" d=" M 400.24 383.03 C 404.44 387.13 408.88 391.01 412.81 395.38 C 410.04 397.45 407.81 400.10 405.80 402.89 C 390.82 415.47 377.29 429.66 363.27 443.29 C 362.03 444.66 360.32 446.03 360.41 448.07 C 360.36 492.91 360.46 537.77 360.31 582.62 C 365.76 584.01 371.43 583.45 377.00 583.52 C 402.69 583.53 428.38 583.52 454.07 583.52 C 457.37 583.52 460.69 583.76 463.98 583.30 C 465.81 582.16 465.38 579.85 465.55 578.03 C 465.48 551.35 465.47 524.67 465.56 498.00 C 465.58 494.81 465.07 491.67 464.61 488.54 C 464.84 488.41 465.29 488.16 465.52 488.03 C 465.93 509.68 465.58 531.34 465.71 553.00 C 465.64 563.20 465.90 573.41 465.57 583.61 C 425.59 584.08 385.60 583.30 345.64 584.13 C 345.40 539.42 345.60 494.71 345.61 450.00 C 345.65 446.73 345.28 443.39 346.03 440.18 C 348.19 436.74 351.05 433.80 354.01 431.03 C 369.23 414.85 384.73 398.93 400.24 383.03 Z" />
<path fill="#fde9dc" opacity="1.00" d=" M 404.35 425.37 C 413.36 422.61 423.88 428.96 425.75 438.15 C 427.04 443.99 425.46 450.80 420.75 454.75 C 415.80 459.26 408.09 460.88 401.93 458.02 C 395.26 455.34 391.38 448.02 391.27 441.05 C 391.32 433.59 397.21 427.02 404.35 425.37 M 406.41 435.45 C 401.64 436.71 399.82 443.99 404.08 446.94 C 407.89 450.77 415.66 447.38 415.10 441.99 C 415.24 437.71 410.38 434.43 406.41 435.45 Z" />
<path fill="#fde9dc" opacity="1.00" d=" M 321.92 632.91 C 346.03 621.66 374.17 617.51 400.01 625.02 C 424.22 632.44 443.49 650.13 467.15 658.82 C 488.89 667.49 513.58 668.99 536.00 662.01 C 540.62 660.69 545.15 658.65 550.03 658.61 C 556.82 658.44 562.02 666.34 559.52 672.56 C 557.70 677.43 552.97 680.25 548.62 682.60 C 533.75 689.83 516.76 691.78 500.41 690.91 C 479.97 688.69 459.93 682.81 441.71 673.27 C 427.24 666.09 414.46 655.91 399.66 649.35 C 381.77 640.45 360.98 638.14 341.42 641.66 C 335.82 642.61 330.51 644.70 325.07 646.26 C 321.20 646.69 316.85 644.05 316.40 640.01 C 316.23 636.59 319.10 634.21 321.92 632.91 Z" />
<path fill="#fde9dc" opacity="1.00" d=" M 682.61 750.80 C 685.02 751.33 687.83 751.45 689.67 753.35 C 692.47 755.93 692.38 760.51 690.62 763.65 C 688.98 766.30 685.57 766.21 682.85 766.31 C 682.48 761.15 682.28 755.97 682.61 750.80 Z" />
<path fill="#fde9dc" opacity="1.00" d=" M 310.44 752.47 C 314.78 749.97 321.70 752.71 321.70 758.17 C 322.46 763.36 316.21 767.85 311.54 765.44 C 309.61 763.99 308.14 761.91 307.34 759.64 C 306.53 756.84 308.39 754.16 310.44 752.47 Z" />
<path fill="#fde9dc" opacity="1.00" d=" M 402.41 752.36 C 407.49 749.11 414.65 754.20 413.21 760.05 C 412.76 764.85 406.77 767.04 402.81 765.11 C 398.47 762.45 397.87 755.11 402.41 752.36 Z" />
<path fill="#fde9dc" opacity="1.00" d=" M 444.68 753.05 C 446.13 756.12 447.01 759.42 447.76 762.74 C 446.06 762.61 444.36 762.56 442.68 762.31 C 441.42 759.24 443.83 755.99 444.68 753.05 Z" />
</g>
<g id="#fe4841ff">
<path fill="#fe4841" opacity="1.00" d=" M 445.62 227.69 C 460.28 224.53 475.04 221.48 490.03 220.38 C 501.37 220.08 512.71 220.21 524.05 220.28 C 567.31 223.46 610.27 235.80 647.32 258.67 C 660.40 267.03 673.39 275.64 685.09 285.90 C 700.49 298.50 713.63 313.60 725.63 329.41 C 727.88 332.45 729.96 335.61 731.94 338.84 C 724.97 339.42 717.98 338.97 711.00 339.13 C 705.47 339.02 699.92 339.62 694.43 338.82 C 693.69 335.14 693.16 331.31 691.21 328.04 C 691.62 331.70 692.74 335.32 692.27 339.04 C 662.52 339.40 632.76 339.02 603.00 339.21 C 592.66 339.35 582.33 338.80 572.00 338.88 C 523.99 338.85 476.00 338.98 428.00 338.84 C 405.00 338.71 382.00 339.32 359.00 339.09 C 335.33 338.39 311.64 339.88 287.99 338.88 C 296.36 326.53 305.76 314.85 316.11 304.11 C 318.30 302.00 320.53 299.08 323.97 299.66 C 407.99 299.69 492.02 299.65 576.05 299.66 C 582.43 300.28 586.91 292.80 585.00 287.12 C 583.68 282.41 578.77 279.45 574.01 279.68 C 496.67 279.60 419.33 279.79 341.99 279.67 C 347.00 274.65 353.02 270.86 358.77 266.78 C 385.32 249.13 414.65 235.47 445.62 227.69 M 622.89 303.82 C 615.02 308.64 607.93 315.65 605.03 324.60 C 615.02 325.01 625.01 324.67 635.01 324.85 C 637.10 324.78 639.31 325.02 641.32 324.27 C 644.59 319.46 645.50 313.01 650.41 309.37 C 656.41 304.33 664.73 304.36 672.14 304.92 C 657.87 294.67 637.80 295.24 622.89 303.82 Z" />
<path fill="#fe4841" opacity="1.00" d=" M 273.30 365.27 C 274.82 362.80 275.86 359.88 278.09 357.96 C 314.72 357.74 351.37 358.02 388.00 357.76 C 390.83 357.65 393.67 357.64 396.46 358.23 C 389.50 367.23 380.85 374.74 373.23 383.15 C 369.04 388.59 363.78 393.04 359.15 398.07 C 353.57 404.81 347.13 410.75 341.11 417.08 C 335.87 423.49 329.67 429.02 324.45 435.45 C 317.07 443.67 308.89 451.17 301.66 459.53 C 297.52 464.02 300.51 470.93 304.80 474.11 C 307.19 475.22 310.46 475.34 312.56 473.51 C 316.38 470.34 319.86 466.76 322.88 462.83 C 324.14 462.18 325.43 461.60 326.73 461.02 C 327.64 478.32 326.99 495.68 327.16 513.00 C 326.87 536.60 327.50 560.21 326.83 583.80 C 314.25 584.65 301.61 583.94 289.00 584.18 C 281.17 583.98 273.32 584.63 265.52 583.85 C 264.94 574.14 264.29 564.42 263.55 554.72 C 263.30 541.16 263.28 527.60 263.36 514.04 C 277.47 516.70 288.95 526.28 298.69 536.31 C 300.74 538.21 302.87 540.95 306.01 540.50 C 308.85 540.55 311.52 538.75 312.00 535.86 C 313.24 529.47 309.75 523.50 307.08 517.95 C 303.55 510.58 297.68 504.70 291.54 499.46 C 285.89 494.67 278.90 491.91 271.92 489.68 C 272.23 487.73 272.54 485.79 273.09 483.90 C 278.51 466.33 289.52 450.06 305.30 440.28 C 308.51 438.20 312.29 436.81 314.94 433.97 C 316.87 430.41 315.58 425.01 311.51 423.56 C 305.24 421.08 298.44 423.01 292.10 424.15 C 276.77 427.34 264.00 438.00 255.85 451.09 C 254.12 450.91 252.38 450.74 250.66 450.49 C 248.36 448.95 246.08 447.37 243.65 446.04 C 243.93 441.61 244.78 437.24 245.96 432.98 C 252.45 409.46 261.38 386.57 273.30 365.27 Z" />
<path fill="#fe4841" opacity="1.00" d=" M 419.66 359.09 C 429.73 357.91 439.89 358.28 450.00 358.05 C 459.00 357.50 468.00 358.46 477.00 357.94 C 489.33 358.47 501.67 357.59 514.00 358.10 C 537.00 358.16 560.00 357.74 583.00 357.86 C 589.22 358.01 595.47 357.31 601.67 358.11 C 605.43 373.54 617.64 386.48 632.76 391.26 C 641.11 393.63 650.08 394.65 658.61 392.70 C 672.15 390.11 684.58 381.15 690.62 368.65 C 692.25 365.39 693.51 361.95 694.62 358.48 C 709.74 357.73 724.92 357.86 740.06 357.83 C 742.73 357.52 743.81 360.17 744.92 362.05 C 749.15 369.93 753.58 377.72 757.04 385.99 C 759.38 391.08 761.13 396.45 763.93 401.33 C 756.92 406.38 752.63 413.99 747.15 420.45 C 743.29 415.51 739.45 410.44 734.38 406.67 C 719.02 394.84 696.41 395.40 680.19 405.20 C 672.88 409.62 666.00 415.56 662.66 423.62 C 661.19 427.00 662.42 432.69 666.98 432.44 C 674.28 431.64 681.62 429.90 688.99 431.18 C 702.77 432.26 715.75 439.15 725.17 449.12 C 717.06 452.90 708.29 456.29 702.34 463.31 C 696.77 469.88 691.34 477.94 692.22 486.97 C 692.13 490.95 696.69 494.16 700.36 492.37 C 704.53 490.04 707.65 486.22 711.79 483.82 C 720.03 478.85 729.09 474.46 738.87 474.01 C 739.87 484.62 738.80 495.27 738.52 505.89 C 736.62 532.32 731.71 558.55 723.60 583.79 C 717.76 584.52 711.86 584.12 706.00 584.17 C 699.67 584.12 693.33 584.45 687.02 583.84 C 687.98 577.74 690.19 571.96 692.10 566.11 C 696.03 553.75 700.89 541.72 705.60 529.64 C 707.69 524.16 710.84 518.94 711.39 512.99 C 711.76 509.23 708.62 506.17 705.57 504.54 C 701.06 503.16 696.10 504.64 692.55 507.60 C 683.83 514.46 678.94 524.70 673.36 534.02 C 673.66 522.85 673.67 511.68 673.51 500.51 C 678.70 499.86 683.87 496.88 685.59 491.71 C 686.02 488.96 683.80 486.75 682.07 484.94 C 675.45 478.89 668.86 472.81 662.46 466.52 C 636.16 442.85 610.21 418.76 583.89 395.10 C 580.12 391.76 574.84 391.93 570.22 390.81 C 524.57 380.79 478.78 371.46 433.01 362.03 C 428.51 361.26 424.04 360.38 419.66 359.09 Z" />
<path fill="#fe4841" opacity="1.00" d=" M 420.12 377.24 C 436.08 380.23 451.92 383.78 467.81 387.10 C 483.49 389.80 498.98 393.49 514.60 396.54 C 525.20 399.61 536.39 400.45 546.79 404.14 C 560.80 414.79 574.11 426.33 588.41 436.61 C 590.08 437.90 591.67 439.29 593.24 440.71 C 585.49 436.72 578.73 431.14 571.21 426.76 C 562.50 421.53 554.07 415.84 545.32 410.68 C 538.38 406.68 531.35 401.38 522.87 402.18 C 524.15 403.85 525.57 405.45 527.29 406.71 C 536.84 413.84 546.73 420.51 556.04 427.96 C 566.12 435.92 576.46 443.57 586.76 451.25 C 595.37 458.47 605.03 464.38 613.28 472.05 C 611.80 472.10 610.33 472.13 608.87 472.15 C 608.44 472.06 607.57 471.89 607.13 471.81 C 602.04 470.07 598.15 466.21 593.85 463.16 C 589.20 459.45 584.57 455.70 579.59 452.44 C 568.97 444.72 558.71 436.50 547.74 429.29 C 540.01 423.67 532.67 417.51 524.52 412.50 C 515.19 406.83 506.65 398.21 495.02 398.08 C 499.65 403.82 505.98 407.73 511.70 412.25 C 517.90 416.77 524.57 420.63 530.58 425.45 C 540.45 433.34 551.13 440.12 561.04 447.96 C 569.90 454.86 578.97 461.47 588.04 468.09 C 587.25 468.16 585.68 468.30 584.90 468.37 C 581.32 467.98 577.60 467.66 574.34 466.04 C 564.29 458.24 553.55 451.35 543.65 443.35 C 539.94 440.37 535.95 437.74 532.33 434.65 C 525.33 428.58 517.43 423.66 510.38 417.65 C 504.49 413.17 499.09 408.00 492.64 404.31 C 486.28 400.51 480.15 395.88 472.80 394.23 C 471.67 393.83 470.76 394.12 470.08 395.10 C 471.78 398.55 475.25 400.57 478.22 402.82 C 484.55 407.10 490.39 412.04 496.64 416.44 C 504.86 422.39 512.17 429.57 520.84 434.92 C 528.24 439.79 534.88 445.70 541.95 451.02 C 546.75 455.28 552.50 458.27 557.23 462.62 C 555.09 462.73 552.96 462.86 550.83 462.90 C 548.28 462.56 545.61 462.26 543.34 461.01 C 529.99 451.73 517.79 440.93 504.60 431.43 C 497.94 425.69 490.85 420.52 483.95 415.10 C 475.74 407.81 466.48 401.87 457.65 395.38 C 452.81 391.93 447.10 387.72 440.82 389.95 C 448.61 396.70 457.24 402.40 465.59 408.43 C 473.20 414.42 480.75 420.49 488.01 426.91 C 496.84 433.73 505.61 440.63 514.16 447.81 C 517.90 451.14 522.44 453.63 525.45 457.72 C 524.56 457.84 522.78 458.08 521.89 458.20 C 518.24 458.00 514.62 457.47 510.98 457.12 C 507.64 456.83 505.25 454.26 502.81 452.25 C 487.26 438.45 472.08 424.24 456.63 410.34 C 444.72 399.02 431.88 388.72 420.12 377.24 Z" />
<path fill="#fe4841" opacity="1.00" d=" M 405.80 402.89 C 408.76 401.40 411.77 396.85 415.29 399.55 C 419.20 402.26 422.26 405.97 426.00 408.89 C 425.62 407.98 425.23 407.08 424.83 406.20 C 427.86 407.69 429.93 410.44 432.37 412.69 C 452.18 431.21 472.44 449.23 492.08 467.92 C 493.75 469.61 495.65 471.13 496.96 473.15 C 497.54 475.38 497.33 477.72 497.40 480.02 C 497.47 509.34 497.44 538.67 497.43 568.00 C 497.37 573.31 497.63 578.63 497.17 583.93 C 492.39 584.37 487.58 584.37 482.79 584.07 C 482.36 551.78 482.55 519.46 482.73 487.16 C 482.91 483.51 482.95 479.85 482.89 476.20 C 473.40 476.16 463.91 476.04 454.43 476.47 C 453.61 491.63 454.36 506.83 454.25 522.00 C 454.22 542.50 454.45 563.01 454.07 583.52 C 428.38 583.52 402.69 583.53 377.00 583.52 C 371.43 583.45 365.76 584.01 360.31 582.62 C 360.46 537.77 360.36 492.91 360.41 448.07 C 360.32 446.03 362.03 444.66 363.27 443.29 C 377.29 429.66 390.82 415.47 405.80 402.89 M 404.35 425.37 C 397.21 427.02 391.32 433.59 391.27 441.05 C 391.38 448.02 395.26 455.34 401.93 458.02 C 408.09 460.88 415.80 459.26 420.75 454.75 C 425.46 450.80 427.04 443.99 425.75 438.15 C 423.88 428.96 413.36 422.61 404.35 425.37 M 374.03 486.35 C 373.38 491.21 373.74 496.12 373.70 501.00 C 373.95 519.10 373.47 537.21 373.92 555.30 C 389.94 555.67 405.97 555.23 421.99 555.41 C 428.86 555.21 435.78 555.88 442.62 554.97 C 442.52 532.14 442.69 509.32 442.51 486.50 C 419.69 486.09 396.85 486.55 374.03 486.35 Z" />
<path fill="#fe4841" opacity="1.00" d=" M 757.23 472.82 C 764.11 472.25 771.03 473.06 777.77 474.52 C 777.72 475.05 777.62 476.12 777.56 476.65 C 779.71 489.93 782.32 503.31 781.98 516.82 C 773.25 517.36 764.53 516.68 755.80 516.92 C 757.17 502.26 757.34 487.53 757.23 472.82 Z" />
<path fill="#fe4841" opacity="1.00" d=" M 310.38 745.46 C 318.41 742.69 328.01 748.47 328.75 757.05 C 330.00 766.07 320.76 774.05 312.01 772.35 C 304.72 771.59 299.17 764.25 300.16 757.04 C 300.46 751.38 305.10 746.89 310.38 745.46 M 310.44 752.47 C 308.39 754.16 306.53 756.84 307.34 759.64 C 308.14 761.91 309.61 763.99 311.54 765.44 C 316.21 767.85 322.46 763.36 321.70 758.17 C 321.70 752.71 314.78 749.97 310.44 752.47 Z" />
<path fill="#fe4841" opacity="1.00" d=" M 345.44 745.27 C 346.91 745.45 348.69 745.00 349.90 746.12 C 354.23 749.99 358.17 754.28 361.69 758.90 C 365.91 754.70 369.93 750.28 373.43 745.46 C 375.21 745.40 376.98 745.34 378.77 745.27 C 378.79 754.20 378.53 763.12 378.76 772.05 C 376.27 772.45 373.75 772.39 371.28 771.94 C 371.28 767.51 371.51 763.06 371.15 758.64 C 367.57 760.97 365.80 764.99 363.03 768.08 C 362.42 768.97 360.70 768.81 360.12 767.98 C 357.28 764.56 354.68 760.91 351.25 758.04 C 351.16 762.79 351.46 767.53 351.26 772.28 C 349.23 772.26 347.21 772.18 345.20 772.04 C 345.14 763.12 344.89 754.18 345.44 745.27 Z" />
<path fill="#fe4841" opacity="1.00" d=" M 401.40 745.48 C 408.81 742.60 418.29 746.63 420.30 754.58 C 423.34 763.49 415.20 773.24 406.03 772.69 C 398.03 772.64 390.96 765.04 392.06 756.98 C 392.14 751.57 396.49 747.13 401.40 745.48 M 402.41 752.36 C 397.87 755.11 398.47 762.45 402.81 765.11 C 406.77 767.04 412.76 764.85 413.21 760.05 C 414.65 754.20 407.49 749.11 402.41 752.36 Z" />
<path fill="#fe4841" opacity="1.00" d=" M 441.58 746.53 C 442.60 744.29 445.65 745.52 447.60 745.47 C 449.39 747.19 449.91 749.82 451.00 752.01 C 453.66 758.66 457.62 764.85 459.15 771.92 C 457.14 772.10 455.12 772.41 453.11 772.20 C 451.97 771.11 451.39 769.62 450.62 768.30 C 447.47 767.73 444.25 767.27 441.06 767.66 C 439.44 768.49 438.69 770.29 437.63 771.67 C 435.69 771.78 433.75 771.86 431.82 771.94 C 432.01 769.68 432.51 767.47 433.45 765.42 C 436.17 759.13 438.54 752.68 441.58 746.53 M 444.68 753.05 C 443.83 755.99 441.42 759.24 442.68 762.31 C 444.36 762.56 446.06 762.61 447.76 762.74 C 447.01 759.42 446.13 756.12 444.68 753.05 Z" />
<path fill="#fe4841" opacity="1.00" d=" M 468.33 745.27 C 470.65 745.54 473.61 744.60 475.24 746.78 C 478.94 750.72 482.04 755.47 486.91 758.11 C 487.34 753.79 487.23 749.45 487.23 745.12 C 489.38 745.08 491.53 745.08 493.68 745.13 C 493.52 754.08 493.62 763.03 493.73 771.99 C 491.51 772.07 488.76 772.76 487.13 770.80 C 483.03 766.64 479.79 761.67 475.26 757.94 C 475.02 762.85 475.42 767.79 474.78 772.69 C 472.72 772.54 470.67 772.43 468.62 772.35 C 468.10 763.33 468.34 754.29 468.33 745.27 Z" />
<path fill="#fe4841" opacity="1.00" d=" M 507.25 745.35 C 514.85 745.29 522.45 745.29 530.05 745.27 C 530.18 747.24 530.22 749.21 530.18 751.20 C 527.42 751.38 524.66 751.42 521.90 751.36 C 520.96 758.19 521.97 765.10 521.86 771.97 C 519.62 772.10 517.39 772.12 515.16 772.03 C 514.59 765.41 514.90 758.77 514.64 752.16 C 512.32 751.86 509.99 751.74 507.71 751.26 C 506.85 749.45 507.39 747.29 507.25 745.35 Z" />
</g>
<g id="#06182cff">
<path fill="#06182c" opacity="1.00" d=" M 396.46 358.23 C 398.64 354.78 402.77 356.66 405.99 356.92 C 410.53 357.79 415.17 357.99 419.66 359.09 C 424.04 360.38 428.51 361.26 433.01 362.03 C 478.78 371.46 524.57 380.79 570.22 390.81 C 574.84 391.93 580.12 391.76 583.89 395.10 C 610.21 418.76 636.16 442.85 662.46 466.52 C 668.86 472.81 675.45 478.89 682.07 484.94 C 683.80 486.75 686.02 488.96 685.59 491.71 C 683.87 496.88 678.70 499.86 673.51 500.51 C 673.67 511.68 673.66 522.85 673.36 534.02 C 678.94 524.70 683.83 514.46 692.55 507.60 C 696.10 504.64 701.06 503.16 705.57 504.54 C 708.62 506.17 711.76 509.23 711.39 512.99 C 710.84 518.94 707.69 524.16 705.60 529.64 C 700.89 541.72 696.03 553.75 692.10 566.11 C 690.19 571.96 687.98 577.74 687.02 583.84 C 693.33 584.45 699.67 584.12 706.00 584.17 C 711.86 584.12 717.76 584.52 723.60 583.79 C 731.71 558.55 736.62 532.32 738.52 505.89 C 738.80 495.27 739.87 484.62 738.87 474.01 C 729.09 474.46 720.03 478.85 711.79 483.82 C 707.65 486.22 704.53 490.04 700.36 492.37 C 696.69 494.16 692.13 490.95 692.22 486.97 C 691.34 477.94 696.77 469.88 702.34 463.31 C 708.29 456.29 717.06 452.90 725.17 449.12 C 715.75 439.15 702.77 432.26 688.99 431.18 C 681.62 429.90 674.28 431.64 666.98 432.44 C 662.42 432.69 661.19 427.00 662.66 423.62 C 666.00 415.56 672.88 409.62 680.19 405.20 C 696.41 395.40 719.02 394.84 734.38 406.67 C 739.45 410.44 743.29 415.51 747.15 420.45 C 752.63 413.99 756.92 406.38 763.93 401.33 C 772.04 395.23 782.06 392.32 792.03 391.16 C 802.11 391.38 812.89 392.50 821.20 398.78 C 823.97 400.86 826.27 404.93 824.24 408.25 C 822.61 411.21 818.92 411.28 816.05 412.09 C 797.69 416.24 780.98 428.80 773.34 446.18 C 779.29 447.53 785.35 448.61 791.03 450.93 C 804.40 456.28 815.23 467.76 819.60 481.50 C 820.20 484.19 821.08 487.71 818.81 489.87 C 816.55 492.53 812.06 492.96 809.54 490.44 C 800.42 482.72 789.68 476.52 777.77 474.52 C 771.03 473.06 764.11 472.25 757.23 472.82 C 757.34 487.53 757.17 502.26 755.80 516.92 C 754.21 539.65 749.23 561.98 743.69 584.03 C 767.12 584.36 790.56 584.15 814.00 584.15 C 817.63 584.11 820.58 587.03 821.61 590.35 C 823.35 595.33 819.62 602.06 814.04 602.04 C 807.96 602.28 801.88 602.06 795.80 602.07 C 750.20 602.51 704.60 601.84 659.00 602.05 C 607.33 602.01 555.66 602.22 504.00 601.99 C 473.66 601.88 443.33 602.48 413.00 602.16 C 348.70 601.90 284.40 602.49 220.09 602.26 C 215.12 601.98 210.06 602.72 205.14 601.79 C 198.20 599.76 196.24 589.30 202.32 585.18 C 205.73 583.97 209.45 584.46 213.00 584.30 C 224.11 584.11 235.22 584.45 246.33 584.17 C 246.05 560.42 245.59 536.67 245.73 512.92 C 234.47 514.87 225.16 523.05 219.91 532.94 C 218.59 535.18 217.00 538.17 213.98 538.06 C 211.78 538.44 209.54 537.53 208.45 535.55 C 206.01 531.39 207.82 526.50 207.75 522.01 C 210.43 506.52 222.75 492.99 238.23 489.59 C 230.94 477.10 217.35 469.26 203.45 466.34 C 198.72 465.09 193.82 465.34 189.00 465.00 C 186.04 464.82 184.29 461.58 184.05 458.94 C 184.49 455.18 187.62 452.54 190.41 450.35 C 205.56 439.25 226.87 437.93 243.65 446.04 C 246.08 447.37 248.36 448.95 250.66 450.49 C 251.93 451.35 253.20 452.22 254.48 453.08 C 254.83 452.58 255.51 451.59 255.85 451.09 C 264.00 438.00 276.77 427.34 292.10 424.15 C 298.44 423.01 305.24 421.08 311.51 423.56 C 315.58 425.01 316.87 430.41 314.94 433.97 C 312.29 436.81 308.51 438.20 305.30 440.28 C 289.52 450.06 278.51 466.33 273.09 483.90 C 272.54 485.79 272.23 487.73 271.92 489.68 C 278.90 491.91 285.89 494.67 291.54 499.46 C 297.68 504.70 303.55 510.58 307.08 517.95 C 309.75 523.50 313.24 529.47 312.00 535.86 C 311.52 538.75 308.85 540.55 306.01 540.50 C 302.87 540.95 300.74 538.21 298.69 536.31 C 288.95 526.28 277.47 516.70 263.36 514.04 C 263.28 527.60 263.30 541.16 263.55 554.72 C 264.29 564.42 264.94 574.14 265.52 583.85 C 273.32 584.63 281.17 583.98 289.00 584.18 C 301.61 583.94 314.25 584.65 326.83 583.80 C 327.19 583.73 327.91 583.60 328.27 583.54 C 327.28 574.72 327.73 565.85 327.65 557.00 C 327.65 529.33 327.65 501.67 327.64 474.01 C 327.62 469.04 328.08 464.03 327.09 459.13 C 325.41 460.01 323.95 461.24 322.88 462.83 C 319.86 466.76 316.38 470.34 312.56 473.51 C 310.46 475.34 307.19 475.22 304.80 474.11 C 300.51 470.93 297.52 464.02 301.66 459.53 C 308.89 451.17 317.07 443.67 324.45 435.45 C 329.67 429.02 335.87 423.49 341.11 417.08 C 347.13 410.75 353.57 404.81 359.15 398.07 C 363.78 393.04 369.04 388.59 373.23 383.15 C 380.85 374.74 389.50 367.23 396.46 358.23 M 420.12 377.24 C 431.88 388.72 444.72 399.02 456.63 410.34 C 472.08 424.24 487.26 438.45 502.81 452.25 C 505.25 454.26 507.64 456.83 510.98 457.12 C 514.62 457.47 518.24 458.00 521.89 458.20 C 528.97 459.43 536.11 461.65 543.34 461.01 C 545.61 462.26 548.28 462.56 550.83 462.90 C 553.74 464.52 557.19 464.17 560.39 464.63 C 565.05 465.01 569.63 466.55 574.34 466.04 C 577.60 467.66 581.32 467.98 584.90 468.37 C 588.56 469.70 592.53 469.49 596.28 470.47 C 599.83 471.37 603.47 471.73 607.13 471.81 C 607.57 471.89 608.44 472.06 608.87 472.15 C 615.75 474.20 623.08 473.76 629.93 475.99 C 635.22 476.90 640.64 477.76 646.03 477.34 C 648.13 476.65 647.27 475.05 645.89 474.16 C 640.00 470.11 635.81 464.21 630.52 459.49 C 616.87 448.55 604.00 436.67 590.76 425.24 C 585.16 420.53 580.31 414.91 574.15 410.89 C 569.54 408.01 563.96 407.61 558.78 406.44 C 554.76 405.75 550.90 404.23 546.79 404.14 C 536.39 400.45 525.20 399.61 514.60 396.54 C 498.98 393.49 483.49 389.80 467.81 387.10 C 451.92 383.78 436.08 380.23 420.12 377.24 M 400.24 383.03 C 384.73 398.93 369.23 414.85 354.01 431.03 C 351.05 433.80 348.19 436.74 346.03 440.18 C 345.28 443.39 345.65 446.73 345.61 450.00 C 345.60 494.71 345.40 539.42 345.64 584.13 C 385.60 583.30 425.59 584.08 465.57 583.61 C 465.90 573.41 465.64 563.20 465.71 553.00 C 465.58 531.34 465.93 509.68 465.52 488.03 C 471.15 486.73 477.02 487.91 482.73 487.16 C 482.55 519.46 482.36 551.78 482.79 584.07 C 487.58 584.37 492.39 584.37 497.17 583.93 C 497.63 578.63 497.37 573.31 497.43 568.00 C 497.44 538.67 497.47 509.34 497.40 480.02 C 497.33 477.72 497.54 475.38 496.96 473.15 C 495.65 471.13 493.75 469.61 492.08 467.92 C 472.44 449.23 452.18 431.21 432.37 412.69 C 429.93 410.44 427.86 407.69 424.83 406.20 C 421.06 402.34 416.81 399.00 412.81 395.38 C 408.88 391.01 404.44 387.13 400.24 383.03 M 515.33 476.20 C 515.30 512.12 515.46 548.04 515.17 583.96 C 519.09 584.51 523.05 584.38 527.00 584.33 C 569.00 584.28 611.00 584.18 653.00 584.38 C 655.68 584.41 658.36 584.22 661.03 583.88 C 660.57 581.70 659.84 579.57 658.35 577.88 C 654.64 566.22 646.89 556.22 638.18 547.80 C 629.16 539.25 617.07 534.90 604.99 532.95 C 601.18 532.37 596.90 532.83 593.63 530.40 C 590.34 527.92 590.35 522.14 593.98 519.98 C 599.34 516.55 605.62 514.53 611.96 514.01 C 621.85 513.03 632.05 513.48 641.53 516.68 C 646.42 518.37 650.69 521.48 655.65 523.03 C 656.31 514.83 656.57 506.54 655.88 498.35 C 634.25 494.51 612.53 491.33 590.80 488.17 C 580.27 486.33 569.82 483.97 559.16 482.92 C 557.21 482.34 555.20 481.93 553.18 481.71 C 542.91 480.51 532.75 478.55 522.60 476.63 C 520.19 476.21 517.75 476.21 515.33 476.20 Z" />
<path fill="#06182c" opacity="1.00" d=" M 406.41 435.45 C 410.38 434.43 415.24 437.71 415.10 441.99 C 415.66 447.38 407.89 450.77 404.08 446.94 C 399.82 443.99 401.64 436.71 406.41 435.45 Z" />
<path fill="#06182c" opacity="1.00" d=" M 374.03 486.35 C 396.85 486.55 419.69 486.09 442.51 486.50 C 442.69 509.32 442.52 532.14 442.62 554.97 C 435.78 555.88 428.86 555.21 421.99 555.41 C 405.97 555.23 389.94 555.67 373.92 555.30 C 373.47 537.21 373.95 519.10 373.70 501.00 C 373.74 496.12 373.38 491.21 374.03 486.35 Z" />
<path fill="#06182c" opacity="1.00" d=" M 471.44 619.52 C 509.62 619.09 547.82 619.41 586.00 619.33 C 591.21 619.47 596.45 618.99 601.64 619.56 C 607.86 621.04 609.15 631.49 602.71 633.61 C 593.87 634.79 584.91 634.46 576.01 634.55 C 541.66 634.62 507.32 634.58 472.98 634.54 C 470.15 634.54 467.06 634.14 464.99 632.01 C 461.71 629.08 462.44 623.42 465.65 620.72 C 467.41 619.76 469.49 619.73 471.44 619.52 Z" />
<path fill="#06182c" opacity="1.00" d=" M 652.42 619.53 C 666.63 619.21 680.85 619.29 695.06 619.30 C 697.40 619.27 700.01 619.43 701.76 621.24 C 705.57 624.28 705.40 631.48 700.67 633.54 C 697.19 634.43 693.55 634.25 690.00 634.34 C 677.00 634.25 663.99 634.58 650.99 634.33 C 645.30 634.25 642.78 626.31 646.28 622.28 C 647.53 620.07 650.10 619.66 652.42 619.53 Z" />
<path fill="#06182c" opacity="1.00" d=" M 341.42 641.66 C 360.98 638.14 381.77 640.45 399.66 649.35 C 414.46 655.91 427.24 666.09 441.71 673.27 C 459.93 682.81 479.97 688.69 500.41 690.91 C 496.45 694.38 491.26 695.76 486.37 697.36 C 460.09 704.82 431.26 700.44 407.37 687.62 C 395.22 681.45 383.92 673.56 371.01 668.98 C 353.04 661.68 332.59 659.24 313.79 664.82 C 307.04 666.65 300.09 668.12 293.82 671.35 C 292.19 669.20 290.86 666.84 289.90 664.33 C 295.53 660.26 301.60 656.85 307.87 653.88 C 313.56 651.25 318.95 647.87 325.07 646.26 C 330.51 644.70 335.82 642.61 341.42 641.66 Z" />
<path fill="#06182c" opacity="1.00" d=" M 738.05 649.08 C 745.02 647.85 751.93 646.04 759.03 645.75 C 767.28 645.97 775.77 645.34 783.68 648.26 C 790.82 650.55 798.01 654.94 800.67 662.33 C 803.72 669.19 801.01 677.73 795.01 682.04 C 788.21 686.50 779.55 686.78 771.81 685.17 C 749.66 681.17 730.53 668.58 709.78 660.60 C 718.94 656.18 728.35 652.15 738.05 649.08 Z" />
<path fill="#06182c" opacity="1.00" d=" M 621.49 682.29 C 640.07 676.86 659.62 673.07 679.00 675.94 C 708.80 679.61 732.03 702.75 761.98 705.92 C 765.64 706.01 769.48 708.96 769.13 712.91 C 768.42 715.96 765.15 718.16 762.06 717.97 C 743.04 718.12 724.01 717.98 704.98 718.06 C 699.75 718.38 695.15 715.58 690.63 713.38 C 677.69 706.86 664.59 699.68 649.98 697.90 C 637.37 696.39 624.44 696.16 611.98 698.93 C 599.83 701.23 588.31 705.84 576.77 710.07 C 580.74 705.16 586.38 702.13 591.38 698.41 C 600.67 691.75 611.09 686.94 621.49 682.29 Z" />
<path fill="#06182c" opacity="1.00" d=" M 281.02 695.07 C 298.64 684.88 319.87 679.51 340.08 683.69 C 353.42 685.81 365.77 691.78 377.15 698.84 C 383.61 702.60 389.90 707.20 397.46 708.39 C 402.65 712.24 408.70 714.63 414.31 717.79 C 363.22 718.44 312.11 718.00 261.02 718.20 C 258.01 718.08 254.19 718.65 252.34 715.66 C 249.39 712.78 251.87 707.37 255.62 706.67 C 264.84 704.68 272.94 699.70 281.02 695.07 Z" />
<path fill="#06182c" opacity="1.00" d=" M 569.40 745.16 C 571.59 745.11 573.78 745.15 575.98 745.23 C 576.50 748.78 576.42 752.38 576.28 755.96 C 580.04 756.24 583.82 756.17 587.58 755.85 C 587.56 752.26 587.71 748.69 587.85 745.11 C 589.98 745.14 592.12 745.16 594.27 745.17 C 594.58 754.18 594.24 763.21 594.50 772.24 C 592.12 772.20 589.74 772.16 587.38 771.98 C 587.58 768.67 587.52 765.36 587.33 762.06 C 583.73 762.02 580.13 762.00 576.54 762.25 C 576.58 765.62 576.49 768.99 576.43 772.36 C 574.07 772.23 571.73 772.08 569.39 771.87 C 569.45 762.97 569.27 754.07 569.40 745.16 Z" />
<path fill="#06182c" opacity="1.00" d=" M 617.08 744.72 C 618.20 744.90 619.30 745.20 620.37 745.62 C 622.93 749.33 623.58 754.20 626.76 757.47 C 627.01 753.41 626.76 749.34 626.95 745.28 C 628.95 745.33 630.96 745.33 632.97 745.31 C 633.43 754.21 632.61 763.17 633.88 772.02 C 631.65 772.04 629.43 772.04 627.22 771.99 C 626.30 770.54 626.16 767.92 623.96 767.94 C 621.06 767.61 618.11 767.60 615.22 768.02 C 613.95 768.90 614.08 770.63 613.65 771.96 C 611.36 772.01 609.06 772.03 606.78 772.06 C 609.16 762.58 613.38 753.72 617.08 744.72 M 619.16 755.39 C 618.01 757.45 617.17 759.68 616.72 762.01 C 618.58 762.03 620.44 762.05 622.31 762.05 C 621.42 759.75 620.62 757.39 619.16 755.39 Z" />
<path fill="#06182c" opacity="1.00" d=" M 649.28 744.99 C 651.16 745.21 653.03 745.52 654.91 745.84 C 657.19 750.80 661.61 754.21 666.01 757.20 C 670.30 753.79 674.50 750.03 677.06 745.09 C 682.33 745.41 688.17 743.96 692.85 747.17 C 700.57 751.79 700.67 764.29 693.48 769.48 C 688.45 773.46 681.66 771.74 675.77 772.08 C 675.86 766.97 675.77 761.86 675.96 756.76 C 672.26 759.87 668.76 763.21 665.81 767.05 C 662.31 763.66 658.83 760.27 655.14 757.11 C 656.09 762.14 656.05 767.27 656.03 772.37 C 653.83 772.32 651.64 772.21 649.47 771.94 C 649.38 762.95 649.00 753.97 649.28 744.99 M 653.17 751.48 C 652.30 752.68 654.12 754.69 655.39 753.83 C 656.07 752.67 654.37 750.79 653.17 751.48 M 682.61 750.80 C 682.28 755.97 682.48 761.15 682.85 766.31 C 685.57 766.21 688.98 766.30 690.62 763.65 C 692.38 760.51 692.47 755.93 689.67 753.35 C 687.83 751.45 685.02 751.33 682.61 750.80 Z" />
<path fill="#06182c" opacity="1.00" d=" M 713.11 745.10 C 719.12 744.99 725.13 745.05 731.15 745.05 C 731.13 747.06 731.10 749.07 731.07 751.10 C 727.08 751.12 723.10 751.20 719.12 751.20 C 719.16 752.70 719.20 754.21 719.26 755.73 C 723.04 755.89 726.83 755.85 730.61 756.22 C 730.63 757.75 730.66 759.28 730.70 760.82 C 727.08 761.19 723.46 761.42 719.87 761.99 C 719.85 763.26 719.84 764.53 719.85 765.82 C 723.62 765.94 727.39 765.94 731.17 765.85 C 731.22 767.99 731.25 770.14 731.24 772.30 C 725.21 771.91 719.18 772.63 713.15 772.26 C 713.07 763.20 713.15 754.15 713.11 745.10 Z" />
<path fill="#06182c" opacity="1.00" d=" M 497.04 788.35 C 498.93 788.44 500.82 788.56 502.73 788.62 C 502.44 794.37 503.81 800.40 501.93 805.96 C 498.98 813.42 486.98 813.90 483.60 806.57 C 481.91 800.80 482.73 794.68 482.69 788.76 C 484.76 788.85 486.83 788.98 488.91 789.14 C 488.75 794.01 487.87 798.99 489.05 803.81 C 489.86 807.39 496.10 807.73 496.74 803.83 C 497.36 798.69 496.57 793.50 497.04 788.35 Z" />
<path fill="#06182c" opacity="1.00" d=" M 420.76 793.86 C 421.54 792.19 421.93 790.25 423.21 788.89 C 424.91 788.75 426.67 789.09 428.24 789.77 C 431.16 797.22 435.30 804.14 437.98 811.69 C 436.05 811.73 434.12 811.77 432.20 811.84 C 431.37 810.65 430.82 809.21 429.67 808.30 C 426.70 807.82 423.71 808.42 420.77 808.71 C 420.17 809.61 419.58 810.52 418.99 811.44 C 417.23 811.42 415.47 811.42 413.73 811.38 C 415.48 805.31 418.57 799.76 420.76 793.86 M 422.87 803.78 C 424.66 803.87 426.46 803.97 428.26 804.03 C 427.26 801.43 426.13 798.89 424.87 796.43 C 423.34 798.57 422.70 801.15 422.87 803.78 Z" />
<path fill="#06182c" opacity="1.00" d=" M 452.09 791.07 C 457.00 787.49 463.70 788.63 468.76 791.29 C 468.75 791.92 468.72 793.18 468.71 793.81 C 465.29 795.90 461.61 794.19 458.01 793.97 C 453.87 794.91 452.27 800.93 454.89 804.16 C 456.98 807.00 461.27 806.61 463.99 804.93 C 463.95 804.29 463.87 803.00 463.83 802.35 C 462.23 802.00 460.65 801.61 459.09 801.18 C 460.28 796.50 466.06 798.07 469.60 798.16 C 469.73 801.96 469.74 805.78 469.54 809.58 C 464.72 811.05 459.28 812.98 454.40 810.71 C 446.88 807.67 445.29 795.66 452.09 791.07 Z" />
<path fill="#06182c" opacity="1.00" d=" M 517.60 789.61 C 521.36 787.62 525.84 788.86 529.20 791.10 C 528.93 792.19 528.66 793.28 528.39 794.38 C 525.88 794.66 523.52 793.89 521.17 793.17 C 519.57 793.62 519.97 795.31 519.92 796.58 C 522.45 797.01 525.07 797.38 527.37 798.61 C 530.77 801.13 530.97 806.96 527.60 809.60 C 524.26 812.20 519.44 812.32 515.84 810.17 C 513.46 809.40 514.95 806.73 515.17 805.09 C 517.42 805.47 519.61 806.25 521.91 806.39 C 522.80 805.66 523.58 804.83 524.26 803.89 C 521.07 802.03 516.71 801.77 514.50 798.55 C 513.86 795.35 514.90 791.61 517.60 789.61 Z" />
<path fill="#06182c" opacity="1.00" d=" M 540.74 788.76 C 542.84 788.79 544.96 788.84 547.08 788.89 C 546.71 796.50 546.95 804.13 546.74 811.75 C 544.86 811.74 542.98 811.74 541.11 811.77 C 540.69 804.10 540.81 796.42 540.74 788.76 Z" />
<path fill="#06182c" opacity="1.00" d=" M 559.95 788.94 C 564.83 788.98 569.72 788.87 574.61 788.80 C 574.54 790.43 574.35 792.06 574.06 793.68 C 571.23 793.77 568.40 793.90 565.58 794.03 C 565.52 794.82 565.41 796.41 565.36 797.21 C 567.87 797.21 570.39 797.29 572.92 797.39 C 573.00 799.20 573.01 801.02 572.99 802.86 C 570.53 802.92 568.08 802.92 565.63 802.94 C 565.49 805.86 565.43 808.78 565.50 811.70 C 563.69 811.72 561.88 811.73 560.08 811.76 C 559.72 804.16 560.04 796.54 559.95 788.94 Z" />
<path fill="#06182c" opacity="1.00" d=" M 585.85 788.88 C 591.22 788.98 596.58 788.55 601.95 788.93 C 601.84 790.42 601.72 791.93 601.56 793.43 C 598.11 793.61 594.66 793.78 591.23 794.19 C 591.24 794.85 591.25 796.19 591.25 796.85 C 594.20 797.15 597.16 797.27 600.12 797.27 C 600.16 798.83 600.15 800.41 600.08 802.00 C 597.39 801.99 594.71 801.98 592.03 802.03 C 592.01 803.36 591.99 804.71 591.98 806.06 C 595.31 806.10 598.65 806.05 602.00 805.98 C 602.12 807.73 602.22 809.48 602.32 811.25 C 596.91 811.15 591.50 811.29 586.10 811.37 C 585.83 803.87 586.13 796.37 585.85 788.88 Z" />
</g>
<g id="#ac121dff">
<path fill="#ac121d" opacity="1.00" d=" M 440.82 389.95 C 447.10 387.72 452.81 391.93 457.65 395.38 C 466.48 401.87 475.74 407.81 483.95 415.10 C 490.85 420.52 497.94 425.69 504.60 431.43 C 517.79 440.93 529.99 451.73 543.34 461.01 C 536.11 461.65 528.97 459.43 521.89 458.20 C 522.78 458.08 524.56 457.84 525.45 457.72 C 522.44 453.63 517.90 451.14 514.16 447.81 C 505.61 440.63 496.84 433.73 488.01 426.91 C 480.75 420.49 473.20 414.42 465.59 408.43 C 457.24 402.40 448.61 396.70 440.82 389.95 Z" />
<path fill="#ac121d" opacity="1.00" d=" M 495.02 398.08 C 506.65 398.21 515.19 406.83 524.52 412.50 C 532.67 417.51 540.01 423.67 547.74 429.29 C 558.71 436.50 568.97 444.72 579.59 452.44 C 584.57 455.70 589.20 459.45 593.85 463.16 C 598.15 466.21 602.04 470.07 607.13 471.81 C 603.47 471.73 599.83 471.37 596.28 470.47 C 592.53 469.49 588.56 469.70 584.90 468.37 C 585.68 468.30 587.25 468.16 588.04 468.09 C 578.97 461.47 569.90 454.86 561.04 447.96 C 551.13 440.12 540.45 433.34 530.58 425.45 C 524.57 420.63 517.90 416.77 511.70 412.25 C 505.98 407.73 499.65 403.82 495.02 398.08 Z" />
<path fill="#ac121d" opacity="1.00" d=" M 522.87 402.18 C 531.35 401.38 538.38 406.68 545.32 410.68 C 554.07 415.84 562.50 421.53 571.21 426.76 C 578.73 431.14 585.49 436.72 593.24 440.71 C 591.67 439.29 590.08 437.90 588.41 436.61 C 574.11 426.33 560.80 414.79 546.79 404.14 C 550.90 404.23 554.76 405.75 558.78 406.44 C 563.96 407.61 569.54 408.01 574.15 410.89 C 580.31 414.91 585.16 420.53 590.76 425.24 C 604.00 436.67 616.87 448.55 630.52 459.49 C 635.81 464.21 640.00 470.11 645.89 474.16 C 647.27 475.05 648.13 476.65 646.03 477.34 C 640.64 477.76 635.22 476.90 629.93 475.99 C 623.08 473.76 615.75 474.20 608.87 472.15 C 610.33 472.13 611.80 472.10 613.28 472.05 C 605.03 464.38 595.37 458.47 586.76 451.25 C 576.46 443.57 566.12 435.92 556.04 427.96 C 546.73 420.51 536.84 413.84 527.29 406.71 C 525.57 405.45 524.15 403.85 522.87 402.18 Z" />
<path fill="#ac121d" opacity="1.00" d=" M 522.30 433.31 C 524.71 435.09 527.22 436.73 529.79 438.27 C 530.63 437.06 531.48 435.85 532.33 434.65 C 535.95 437.74 539.94 440.37 543.65 443.35 C 553.55 451.35 564.29 458.24 574.34 466.04 C 569.63 466.55 565.05 465.01 560.39 464.63 C 557.19 464.17 553.74 464.52 550.83 462.90 C 552.96 462.86 555.09 462.73 557.23 462.62 C 552.50 458.27 546.75 455.28 541.95 451.02 C 534.88 445.70 528.24 439.79 520.84 434.92 C 521.20 434.52 521.93 433.72 522.30 433.31 Z" />
<path fill="#ac121d" opacity="1.00" d=" M 515.33 476.20 C 517.75 476.21 520.19 476.21 522.60 476.63 C 532.75 478.55 542.91 480.51 553.18 481.71 C 555.20 481.93 557.21 482.34 559.16 482.92 C 548.72 482.39 538.40 480.56 528.16 478.54 C 524.88 478.00 521.49 477.22 518.18 477.94 C 514.10 481.59 516.90 487.33 516.65 491.96 C 516.60 520.65 516.70 549.33 516.58 578.02 C 516.66 579.58 516.60 581.23 517.30 582.70 C 518.71 583.47 520.41 583.31 521.98 583.42 C 567.63 583.20 613.30 583.53 658.95 583.26 C 658.76 581.46 658.58 579.67 658.35 577.88 C 659.84 579.57 660.57 581.70 661.03 583.88 C 658.36 584.22 655.68 584.41 653.00 584.38 C 611.00 584.18 569.00 584.28 527.00 584.33 C 523.05 584.38 519.09 584.51 515.17 583.96 C 515.46 548.04 515.30 512.12 515.33 476.20 Z" />
</g>
<g id="#db262aff">
<path fill="#db262a" opacity="1.00" d=" M 470.08 395.10 C 470.76 394.12 471.67 393.83 472.80 394.23 C 480.15 395.88 486.28 400.51 492.64 404.31 C 499.09 408.00 504.49 413.17 510.38 417.65 C 517.43 423.66 525.33 428.58 532.33 434.65 C 531.48 435.85 530.63 437.06 529.79 438.27 C 527.22 436.73 524.71 435.09 522.30 433.31 C 521.93 433.72 521.20 434.52 520.84 434.92 C 512.17 429.57 504.86 422.39 496.64 416.44 C 490.39 412.04 484.55 407.10 478.22 402.82 C 475.25 400.57 471.78 398.55 470.08 395.10 Z" />
<path fill="#db262a" opacity="1.00" d=" M 250.66 450.49 C 252.38 450.74 254.12 450.91 255.85 451.09 C 255.51 451.59 254.83 452.58 254.48 453.08 C 253.20 452.22 251.93 451.35 250.66 450.49 Z" />
<path fill="#db262a" opacity="1.00" d=" M 454.43 476.47 C 463.91 476.04 473.40 476.16 482.89 476.20 C 482.95 479.85 482.91 483.51 482.73 487.16 C 477.02 487.91 471.15 486.73 465.52 488.03 C 465.29 488.16 464.84 488.41 464.61 488.54 C 465.07 491.67 465.58 494.81 465.56 498.00 C 465.47 524.67 465.48 551.35 465.55 578.03 C 465.38 579.85 465.81 582.16 463.98 583.30 C 460.69 583.76 457.37 583.52 454.07 583.52 C 454.45 563.01 454.22 542.50 454.25 522.00 C 454.36 506.83 453.61 491.63 454.43 476.47 Z" />
<path fill="#db262a" opacity="1.00" d=" M 518.18 477.94 C 521.49 477.22 524.88 478.00 528.16 478.54 C 538.40 480.56 548.72 482.39 559.16 482.92 C 569.82 483.97 580.27 486.33 590.80 488.17 C 612.53 491.33 634.25 494.51 655.88 498.35 C 656.57 506.54 656.31 514.83 655.65 523.03 C 650.69 521.48 646.42 518.37 641.53 516.68 C 632.05 513.48 621.85 513.03 611.96 514.01 C 605.62 514.53 599.34 516.55 593.98 519.98 C 590.35 522.14 590.34 527.92 593.63 530.40 C 596.90 532.83 601.18 532.37 604.99 532.95 C 617.07 534.90 629.16 539.25 638.18 547.80 C 646.89 556.22 654.64 566.22 658.35 577.88 C 658.58 579.67 658.76 581.46 658.95 583.26 C 613.30 583.53 567.63 583.20 521.98 583.42 C 520.41 583.31 518.71 583.47 517.30 582.70 C 516.60 581.23 516.66 579.58 516.58 578.02 C 516.70 549.33 516.60 520.65 516.65 491.96 C 516.90 487.33 514.10 481.59 518.18 477.94 Z" />
</g>
<g id="#f2867bff">
<path fill="#f2867b" opacity="1.00" d=" M 405.80 402.89 C 407.81 400.10 410.04 397.45 412.81 395.38 C 416.81 399.00 421.06 402.34 424.83 406.20 C 425.23 407.08 425.62 407.98 426.00 408.89 C 422.26 405.97 419.20 402.26 415.29 399.55 C 411.77 396.85 408.76 401.40 405.80 402.89 Z" />
</g>
<g id="#3c303dff">
<path fill="#3c303d" opacity="1.00" d=" M 322.88 462.83 C 323.95 461.24 325.41 460.01 327.09 459.13 C 328.08 464.03 327.62 469.04 327.64 474.01 C 327.65 501.67 327.65 529.33 327.65 557.00 C 327.73 565.85 327.28 574.72 328.27 583.54 C 327.91 583.60 327.19 583.73 326.83 583.80 C 327.50 560.21 326.87 536.60 327.16 513.00 C 326.99 495.68 327.64 478.32 326.73 461.02 C 325.43 461.60 324.14 462.18 322.88 462.83 Z" />
</g>
<g id="#4d849eff">
<path fill="#4d849e" opacity="1.00" d=" M 220.09 602.26 C 284.40 602.49 348.70 601.90 413.00 602.16 C 443.33 602.48 473.66 601.88 504.00 601.99 C 555.66 602.22 607.33 602.01 659.00 602.05 C 704.60 601.84 750.20 602.51 795.80 602.07 C 798.46 605.17 801.99 608.48 801.39 613.00 C 801.49 618.15 797.53 622.28 792.89 623.87 C 784.89 626.65 776.29 626.26 767.96 626.97 C 757.67 628.05 747.18 629.40 737.69 633.75 C 734.50 635.09 732.53 638.52 732.98 641.96 C 732.99 645.20 735.64 647.37 738.05 649.08 C 728.35 652.15 718.94 656.18 709.78 660.60 C 692.17 655.00 673.14 654.10 655.09 658.04 C 643.25 660.58 632.01 665.16 620.39 668.43 C 616.99 669.11 615.04 672.71 615.70 675.99 C 616.22 679.07 619.35 680.44 621.49 682.29 C 611.09 686.94 600.67 691.75 591.38 698.41 C 586.38 702.13 580.74 705.16 576.77 710.07 C 575.26 711.65 573.04 712.21 571.15 713.16 C 566.54 715.01 562.25 718.33 557.05 718.04 C 509.47 717.77 461.86 718.74 414.31 717.79 C 408.70 714.63 402.65 712.24 397.46 708.39 C 400.06 705.84 402.39 702.26 400.27 698.63 C 396.24 692.80 390.39 688.50 385.10 683.88 C 372.99 673.47 357.60 667.55 341.93 665.24 C 332.60 664.00 323.17 664.86 313.79 664.82 C 332.59 659.24 353.04 661.68 371.01 668.98 C 383.92 673.56 395.22 681.45 407.37 687.62 C 431.26 700.44 460.09 704.82 486.37 697.36 C 491.26 695.76 496.45 694.38 500.41 690.91 C 516.76 691.78 533.75 689.83 548.62 682.60 C 552.97 680.25 557.70 677.43 559.52 672.56 C 562.02 666.34 556.82 658.44 550.03 658.61 C 545.15 658.65 540.62 660.69 536.00 662.01 C 513.58 668.99 488.89 667.49 467.15 658.82 C 443.49 650.13 424.22 632.44 400.01 625.02 C 374.17 617.51 346.03 621.66 321.92 632.91 C 319.10 634.21 316.23 636.59 316.40 640.01 C 316.85 644.05 321.20 646.69 325.07 646.26 C 318.95 647.87 313.56 651.25 307.87 653.88 C 301.60 656.85 295.53 660.26 289.90 664.33 C 290.86 666.84 292.19 669.20 293.82 671.35 C 279.31 679.24 263.52 685.67 246.86 686.67 C 239.56 687.11 231.87 687.02 225.11 683.90 C 220.43 681.85 216.99 677.13 216.65 672.01 C 216.00 665.86 220.37 660.08 225.89 657.80 C 236.45 653.13 248.25 654.23 259.43 652.56 C 266.19 651.71 274.71 651.17 278.59 644.64 C 282.67 638.15 278.16 628.66 270.68 627.44 C 262.88 626.01 254.88 626.89 247.00 626.60 C 240.13 626.35 233.10 627.38 226.37 625.61 C 220.20 623.94 215.41 617.51 216.26 611.05 C 216.47 607.75 218.46 605.00 220.09 602.26 M 471.44 619.52 C 469.49 619.73 467.41 619.76 465.65 620.72 C 462.44 623.42 461.71 629.08 464.99 632.01 C 467.06 634.14 470.15 634.54 472.98 634.54 C 507.32 634.58 541.66 634.62 576.01 634.55 C 584.91 634.46 593.87 634.79 602.71 633.61 C 609.15 631.49 607.86 621.04 601.64 619.56 C 596.45 618.99 591.21 619.47 586.00 619.33 C 547.82 619.41 509.62 619.09 471.44 619.52 M 652.42 619.53 C 650.10 619.66 647.53 620.07 646.28 622.28 C 642.78 626.31 645.30 634.25 650.99 634.33 C 663.99 634.58 677.00 634.25 690.00 634.34 C 693.55 634.25 697.19 634.43 700.67 633.54 C 705.40 631.48 705.57 624.28 701.76 621.24 C 700.01 619.43 697.40 619.27 695.06 619.30 C 680.85 619.29 666.63 619.21 652.42 619.53 Z" />
</g>
<g id="#6f7074ff">
<path fill="#6f7074" opacity="1.00" d=" M 653.17 751.48 C 654.37 750.79 656.07 752.67 655.39 753.83 C 654.12 754.69 652.30 752.68 653.17 751.48 Z" />
</g>
<g id="#afb3b3ff">
<path fill="#afb3b3" opacity="1.00" d=" M 619.16 755.39 C 620.62 757.39 621.42 759.75 622.31 762.05 C 620.44 762.05 618.58 762.03 616.72 762.01 C 617.17 759.68 618.01 757.45 619.16 755.39 Z" />
<path fill="#afb3b3" opacity="1.00" d=" M 422.87 803.78 C 422.70 801.15 423.34 798.57 424.87 796.43 C 426.13 798.89 427.26 801.43 428.26 804.03 C 426.46 803.97 424.66 803.87 422.87 803.78 Z" />
<path fill="#afb3b3" opacity="1.00" d=" M 592.03 802.03 C 594.71 801.98 597.39 801.99 600.08 802.00 C 600.68 803.34 601.33 804.66 602.00 805.98 C 598.65 806.05 595.31 806.10 591.98 806.06 C 591.99 804.71 592.01 803.36 592.03 802.03 Z" />
</g>
</svg>
